{"glyphs":{"0":{"ha":939,"x_min":61,"x_max":878,"o":"m 469 -22 q 775 107 672 -22 q 878 486 878 236 q 775 865 878 736 q 469 994 672 994 q 164 865 267 994 q 61 486 61 736 q 164 107 61 236 q 469 -22 267 -22 m 263 486 q 313 741 263 660 q 469 822 363 822 q 626 741 576 822 q 676 486 676 660 q 626 231 676 313 q 469 150 576 150 q 313 231 363 150 q 263 486 263 313 "},"1":{"ha":739,"x_min":43,"x_max":704,"o":"m 43 182 l 43 0 l 704 0 l 704 182 l 479 182 l 479 972 l 119 972 l 119 785 l 283 785 l 283 182 l 43 182 "},"2":{"ha":806,"x_min":49,"x_max":758,"o":"m 49 201 l 49 0 l 747 0 l 747 182 l 251 182 l 251 232 q 274 300 251 275 q 347 340 296 325 l 524 392 q 693 496 628 422 q 758 674 758 569 q 715 832 758 764 q 596 936 672 900 q 421 972 519 972 l 94 972 l 94 790 l 421 790 q 522 758 485 790 q 558 672 558 725 q 528 594 558 624 q 429 546 497 565 l 290 507 q 110 403 172 475 q 49 201 49 332 "},"3":{"ha":797,"x_min":35,"x_max":743,"o":"m 49 182 l 49 0 l 371 0 q 564 38 479 0 q 696 147 649 76 q 743 307 743 217 q 666 498 743 424 q 460 578 589 572 l 704 790 l 704 972 l 35 972 l 35 790 l 446 790 l 215 582 l 215 424 l 372 424 q 499 393 456 424 q 543 307 543 363 q 499 215 543 247 q 371 182 454 182 l 49 182 "},"4":{"ha":885,"x_min":36,"x_max":868,"o":"m 531 264 l 531 0 l 724 0 l 724 264 l 868 264 l 868 439 l 724 439 l 724 972 l 457 972 l 36 439 l 36 264 l 531 264 m 531 439 l 244 439 l 531 804 l 531 439 "},"5":{"ha":788,"x_min":61,"x_max":733,"o":"m 61 182 l 61 0 l 376 0 q 563 40 482 0 q 689 153 644 81 q 733 319 733 226 q 692 476 733 408 q 575 583 650 544 q 403 621 500 621 l 279 621 l 279 790 l 694 790 l 694 972 l 85 972 l 85 444 l 378 444 q 493 408 453 444 q 533 313 533 372 q 490 218 533 254 q 376 182 447 182 l 61 182 "},"6":{"ha":858,"x_min":61,"x_max":819,"o":"m 449 -22 q 641 22 557 -22 q 772 143 725 67 q 819 315 819 219 q 776 483 819 410 q 656 598 733 557 q 478 639 578 639 q 349 617 404 639 q 260 560 294 594 q 330 734 268 678 q 539 790 392 790 l 742 790 l 742 972 l 539 972 q 175 832 289 972 q 61 443 61 692 q 112 187 61 292 q 250 30 163 82 q 449 -22 338 -22 m 271 308 q 319 421 271 378 q 444 464 368 464 q 571 420 522 464 q 619 308 619 376 q 571 196 619 239 q 444 153 522 153 q 319 197 368 153 q 271 308 271 240 "},"7":{"ha":815,"x_min":57,"x_max":781,"o":"m 251 190 l 251 0 l 453 0 l 453 203 q 468 394 453 318 q 515 525 483 471 q 604 632 547 579 l 781 790 l 781 972 l 57 972 l 57 790 l 515 790 l 433 711 q 315 559 354 636 q 263 399 275 482 q 251 190 251 315 "},"8":{"ha":888,"x_min":56,"x_max":832,"o":"m 443 -22 q 652 15 564 -22 q 786 122 740 53 q 832 285 832 192 q 789 426 832 363 q 678 518 746 489 q 771 599 738 543 q 804 721 804 654 q 759 864 804 801 q 632 960 714 926 q 443 994 550 994 q 255 960 336 994 q 128 864 174 926 q 83 721 83 801 q 117 599 83 654 q 210 518 150 543 q 99 426 142 489 q 56 285 56 363 q 101 122 56 192 q 235 15 147 53 q 443 -22 322 -22 m 256 292 q 305 394 256 356 q 443 433 354 433 q 582 395 532 433 q 632 292 632 357 q 582 185 632 225 q 443 144 532 144 q 306 185 356 144 q 256 292 256 225 m 283 710 q 326 796 283 764 q 443 828 369 828 q 561 796 518 828 q 604 710 604 764 q 561 626 604 657 q 443 594 518 594 q 326 626 369 594 q 283 710 283 657 "},"9":{"ha":858,"x_min":39,"x_max":797,"o":"m 410 994 q 217 950 301 994 q 86 829 133 906 q 39 657 39 753 q 82 489 39 563 q 203 374 125 415 q 381 333 281 333 q 509 356 454 333 q 599 413 564 378 q 528 238 590 294 q 319 182 467 182 l 117 182 l 117 0 l 319 0 q 683 140 569 0 q 797 529 797 281 q 747 785 797 681 q 608 942 696 890 q 410 994 521 994 m 239 664 q 288 776 239 733 q 414 819 336 819 q 539 776 490 819 q 588 664 588 732 q 539 551 588 594 q 414 508 490 508 q 288 552 336 508 q 239 664 239 596 "},"\r":{"ha":344,"x_min":0,"x_max":0,"o":""}," ":{"ha":344,"x_min":0,"x_max":0,"o":""},"A":{"ha":1018,"x_min":22,"x_max":996,"o":"m 371 972 l 22 0 l 240 0 l 324 250 l 694 250 l 778 0 l 996 0 l 649 972 l 371 972 m 633 432 l 385 432 l 510 801 l 633 432 "},"B":{"ha":956,"x_min":115,"x_max":876,"o":"m 115 972 l 115 0 l 574 0 q 734 36 665 0 q 840 138 803 72 q 876 285 876 203 q 835 426 876 367 q 725 514 793 485 q 815 603 781 547 q 849 728 849 660 q 769 906 849 839 q 558 972 690 972 l 115 972 m 544 183 l 315 183 l 315 424 l 544 424 q 640 392 607 424 q 674 304 674 361 q 640 215 674 247 q 544 183 606 183 m 529 593 l 315 593 l 315 789 l 529 789 q 615 764 583 789 q 646 692 646 739 q 615 619 646 644 q 529 593 585 593 "},"C":{"ha":964,"x_min":68,"x_max":918,"o":"m 514 -22 q 786 74 681 -22 q 917 340 892 171 l 710 340 q 646 211 697 257 q 514 165 594 165 q 340 243 406 165 q 275 486 275 321 q 518 807 275 807 q 646 766 593 807 q 711 646 699 725 l 918 646 q 790 905 897 815 q 518 994 683 994 q 189 865 310 994 q 68 485 68 735 q 124 204 68 318 q 281 34 181 90 q 514 -22 382 -22 "},"D":{"ha":1003,"x_min":115,"x_max":935,"o":"m 115 972 l 115 0 l 478 0 q 724 58 621 0 q 881 226 826 117 q 935 486 935 336 q 880 746 935 636 q 722 914 825 856 q 478 972 619 972 l 115 972 m 489 185 l 315 185 l 315 788 l 489 788 q 669 706 608 788 q 729 486 729 625 q 669 266 729 347 q 489 185 608 185 "},"E":{"ha":840,"x_min":115,"x_max":744,"o":"m 115 972 l 115 0 l 744 0 l 744 188 l 315 188 l 315 415 l 744 415 l 744 603 l 315 603 l 315 785 l 744 785 l 744 972 l 115 972 "},"F":{"ha":793,"x_min":115,"x_max":725,"o":"m 115 972 l 115 0 l 315 0 l 315 401 l 725 401 l 725 589 l 315 589 l 315 785 l 725 785 l 725 972 l 115 972 "},"G":{"ha":1010,"x_min":68,"x_max":922,"o":"m 499 -22 q 649 8 582 -22 q 756 90 717 39 l 756 0 l 922 0 l 922 501 l 442 501 l 442 319 l 725 319 q 662 202 714 242 q 529 163 610 163 q 275 483 275 163 q 338 725 275 640 q 517 810 401 810 q 649 770 599 810 q 713 660 700 731 l 922 660 q 796 907 903 819 q 517 994 689 994 q 278 933 379 994 q 122 756 176 871 q 68 483 68 640 q 122 213 68 328 q 274 38 176 99 q 499 -22 371 -22 "},"H":{"ha":1026,"x_min":115,"x_max":910,"o":"m 710 415 l 710 0 l 910 0 l 910 972 l 710 972 l 710 603 l 315 603 l 315 972 l 115 972 l 115 0 l 315 0 l 315 415 l 710 415 "},"I":{"ha":432,"x_min":115,"x_max":315,"o":"m 115 972 l 115 0 l 315 0 l 315 972 l 115 972 "},"J":{"ha":676,"x_min":24,"x_max":574,"o":"m 24 188 l 24 0 l 249 0 q 438 34 367 0 q 541 142 508 68 q 574 342 574 217 l 574 972 l 374 972 l 374 342 q 343 225 374 263 q 249 188 313 188 l 24 188 "},"K":{"ha":951,"x_min":115,"x_max":929,"o":"m 396 407 l 683 0 l 929 0 l 557 517 l 929 972 l 685 972 l 390 611 l 315 611 l 315 972 l 115 972 l 115 0 l 315 0 l 315 407 l 396 407 "},"L":{"ha":771,"x_min":115,"x_max":749,"o":"m 115 972 l 115 0 l 749 0 l 749 188 l 315 188 l 315 972 l 115 972 "},"M":{"ha":1261,"x_min":115,"x_max":1146,"o":"m 115 972 l 115 0 l 310 0 l 310 696 l 542 0 l 719 0 l 951 696 l 951 0 l 1146 0 l 1146 972 l 864 972 l 631 265 l 397 972 l 115 972 "},"N":{"ha":1026,"x_min":115,"x_max":910,"o":"m 115 972 l 115 0 l 315 0 l 315 653 l 671 0 l 910 0 l 910 972 l 710 972 l 710 321 l 354 972 l 115 972 "},"O":{"ha":1033,"x_min":68,"x_max":965,"o":"m 517 -22 q 751 37 650 -22 q 909 210 853 96 q 965 486 965 325 q 909 762 965 647 q 751 935 853 876 q 517 994 650 994 q 283 935 385 994 q 125 762 182 876 q 68 486 68 647 q 125 210 68 325 q 283 37 182 96 q 517 -22 385 -22 m 275 486 q 341 726 275 644 q 517 807 407 807 q 693 726 626 807 q 760 486 760 644 q 693 247 760 328 q 517 165 626 165 q 341 247 407 165 q 275 486 275 328 "},"P":{"ha":926,"x_min":115,"x_max":876,"o":"m 115 972 l 115 0 l 315 0 l 315 357 l 539 357 q 785 440 694 357 q 876 665 876 522 q 785 890 876 808 q 539 972 694 972 l 115 972 m 529 546 l 315 546 l 315 785 l 529 785 q 635 753 597 785 q 674 665 674 721 q 635 578 674 610 q 529 546 597 546 "},"Q":{"ha":1040,"x_min":68,"x_max":999,"o":"m 517 0 l 999 0 l 999 176 l 833 176 q 932 324 899 238 q 965 511 965 411 q 909 773 965 664 q 751 938 853 882 q 517 994 650 994 q 283 938 385 994 q 125 769 182 881 q 68 500 68 657 q 125 228 68 342 q 283 58 182 115 q 517 0 385 0 m 275 500 q 341 729 275 651 q 517 807 407 807 q 693 729 626 807 q 760 500 760 651 q 693 266 760 346 q 517 186 626 186 q 341 266 407 186 q 275 500 275 346 "},"R":{"ha":969,"x_min":115,"x_max":918,"o":"m 115 972 l 115 0 l 315 0 l 315 378 l 404 378 l 674 0 l 918 0 l 646 379 q 825 478 760 401 q 890 672 890 556 q 799 892 890 813 q 553 972 708 972 l 115 972 m 551 560 l 315 560 l 315 785 l 551 785 q 652 755 617 785 q 688 672 688 725 q 652 590 688 619 q 551 560 617 560 "},"S":{"ha":882,"x_min":47,"x_max":828,"o":"m 450 -22 q 652 17 567 -22 q 783 130 738 57 q 828 300 828 203 q 536 590 828 553 l 432 603 q 318 638 354 613 q 282 711 282 664 q 326 790 282 760 q 440 819 369 819 q 563 789 518 819 q 611 704 608 758 l 814 704 q 713 917 811 839 q 440 994 614 994 q 251 958 333 994 q 122 854 168 921 q 76 699 76 788 q 149 506 76 578 q 369 417 222 435 l 482 403 q 588 365 554 393 q 621 286 621 338 q 574 191 621 226 q 450 156 528 156 q 306 196 360 156 q 251 304 253 236 l 47 304 q 156 65 49 151 q 450 -22 264 -22 "},"T":{"ha":835,"x_min":22,"x_max":813,"o":"m 318 785 l 318 0 l 518 0 l 518 785 l 813 785 l 813 972 l 22 972 l 22 785 l 318 785 "},"U":{"ha":975,"x_min":103,"x_max":874,"o":"m 488 -22 q 693 24 606 -22 q 827 158 781 71 q 874 365 874 246 l 874 972 l 674 972 l 674 381 q 625 221 674 276 q 488 165 576 165 q 351 221 400 165 q 303 381 303 276 l 303 972 l 103 972 l 103 365 q 206 81 103 185 q 488 -22 308 -22 "},"V":{"ha":971,"x_min":22,"x_max":949,"o":"m 22 972 l 347 0 l 624 0 l 949 972 l 725 972 l 486 222 l 246 972 l 22 972 "},"W":{"ha":1332,"x_min":32,"x_max":1301,"o":"m 32 972 l 272 0 l 510 0 l 667 693 l 822 0 l 1060 0 l 1301 972 l 1086 972 l 932 278 l 776 972 l 556 972 l 401 275 l 247 972 l 32 972 "},"X":{"ha":967,"x_min":22,"x_max":944,"o":"m 361 513 l 22 0 l 267 0 l 483 353 l 700 0 l 944 0 l 607 514 l 931 972 l 681 972 l 483 674 l 286 972 l 38 972 l 361 513 "},"Y":{"ha":963,"x_min":10,"x_max":954,"o":"m 382 403 l 382 0 l 582 0 l 582 403 l 954 972 l 715 972 l 482 601 l 247 972 l 10 972 l 382 403 "},"Z":{"ha":861,"x_min":53,"x_max":804,"o":"m 53 188 l 53 0 l 804 0 l 804 188 l 304 188 l 797 785 l 797 972 l 67 972 l 67 785 l 546 785 l 53 188 "},"Á":{"ha":1018,"x_min":22,"x_max":996,"o":"m 371 972 l 22 0 l 240 0 l 324 250 l 694 250 l 778 0 l 996 0 l 649 972 l 371 972 m 633 432 l 385 432 l 510 801 l 633 432 m 510 1225 l 428 1049 l 604 1049 l 699 1225 l 510 1225 "},"Ă":{"ha":1018,"x_min":22,"x_max":996,"o":"m 371 972 l 22 0 l 240 0 l 324 250 l 694 250 l 778 0 l 996 0 l 649 972 l 371 972 m 633 432 l 385 432 l 510 801 l 633 432 m 511 1044 q 656 1090 600 1044 q 713 1225 713 1135 l 576 1225 q 558 1173 576 1190 q 511 1156 540 1156 q 464 1173 482 1156 q 446 1225 446 1190 l 310 1225 q 366 1090 310 1135 q 511 1044 422 1044 "},"Â":{"ha":1018,"x_min":22,"x_max":996,"o":"m 371 972 l 22 0 l 240 0 l 324 250 l 694 250 l 778 0 l 996 0 l 649 972 l 371 972 m 633 432 l 385 432 l 510 801 l 633 432 m 408 1225 l 300 1049 l 461 1049 l 511 1150 l 561 1049 l 722 1049 l 614 1225 l 408 1225 "},"Ä":{"ha":1018,"x_min":22,"x_max":996,"o":"m 371 972 l 22 0 l 240 0 l 324 250 l 694 250 l 778 0 l 996 0 l 649 972 l 371 972 m 633 432 l 385 432 l 510 801 l 633 432 m 561 1218 l 561 1049 l 739 1049 l 739 1218 l 561 1218 m 283 1218 l 283 1049 l 461 1049 l 461 1218 l 283 1218 "},"Ạ":{"ha":1018,"x_min":22,"x_max":996,"o":"m 371 972 l 22 0 l 240 0 l 324 250 l 694 250 l 778 0 l 996 0 l 649 972 l 371 972 m 633 432 l 385 432 l 510 801 l 633 432 m 408 -71 l 408 -250 l 613 -250 l 613 -71 l 408 -71 "},"Æ":{"ha":1276,"x_min":22,"x_max":1181,"o":"m 374 972 l 22 0 l 240 0 l 325 250 l 601 250 l 601 0 l 1181 0 l 1181 188 l 796 188 l 796 415 l 1181 415 l 1181 603 l 796 603 l 796 785 l 1181 785 l 1181 972 l 374 972 m 601 432 l 386 432 l 506 785 l 601 785 l 601 432 "},"Ǽ":{"ha":1276,"x_min":22,"x_max":1181,"o":"m 374 972 l 22 0 l 240 0 l 325 250 l 601 250 l 601 0 l 1181 0 l 1181 188 l 796 188 l 796 415 l 1181 415 l 1181 603 l 796 603 l 796 785 l 1181 785 l 1181 972 l 374 972 m 601 432 l 386 432 l 506 785 l 601 785 l 601 432 m 668 1225 l 586 1049 l 763 1049 l 857 1225 l 668 1225 "},"À":{"ha":1018,"x_min":22,"x_max":996,"o":"m 371 972 l 22 0 l 240 0 l 324 250 l 694 250 l 778 0 l 996 0 l 649 972 l 371 972 m 633 432 l 385 432 l 510 801 l 633 432 m 322 1225 l 417 1049 l 593 1049 l 511 1225 l 322 1225 "},"Ā":{"ha":1018,"x_min":22,"x_max":996,"o":"m 371 972 l 22 0 l 240 0 l 324 250 l 694 250 l 778 0 l 996 0 l 649 972 l 371 972 m 633 432 l 385 432 l 510 801 l 633 432 m 303 1200 l 303 1076 l 717 1076 l 717 1200 l 303 1200 "},"Ą":{"ha":1018,"x_min":22,"x_max":996,"o":"m 371 972 l 22 0 l 240 0 l 324 250 l 694 250 l 765 36 q 669 -55 700 -11 q 638 -146 638 -99 q 681 -236 638 -203 q 797 -269 724 -269 l 886 -269 l 886 -151 l 835 -151 q 782 -110 782 -151 q 803 -62 782 -89 q 864 0 825 -35 l 996 0 l 649 972 l 371 972 m 633 432 l 385 432 l 510 801 l 633 432 "},"Å":{"ha":1018,"x_min":22,"x_max":996,"o":"m 371 972 l 22 0 l 240 0 l 324 250 l 694 250 l 778 0 l 996 0 l 649 972 l 371 972 m 633 432 l 385 432 l 510 801 l 633 432 m 511 1019 q 627 1062 582 1019 q 672 1169 672 1104 q 627 1277 672 1235 q 511 1319 582 1319 q 394 1277 439 1319 q 349 1169 349 1235 q 394 1062 349 1104 q 511 1019 439 1019 m 447 1169 q 465 1215 447 1197 q 511 1233 482 1233 q 556 1215 539 1233 q 574 1169 574 1197 q 556 1124 574 1142 q 511 1107 539 1107 q 465 1124 482 1107 q 447 1169 447 1142 "},"Ã":{"ha":1018,"x_min":22,"x_max":996,"o":"m 371 972 l 22 0 l 240 0 l 324 250 l 694 250 l 778 0 l 996 0 l 649 972 l 371 972 m 633 432 l 385 432 l 510 801 l 633 432 m 622 1047 q 728 1087 690 1047 q 767 1201 767 1126 l 767 1225 l 646 1225 l 646 1204 q 635 1176 646 1186 q 607 1167 625 1167 q 538 1188 583 1167 l 499 1206 q 400 1231 449 1231 q 293 1191 331 1231 q 256 1076 256 1151 l 256 1053 l 376 1053 l 376 1072 q 387 1101 376 1090 q 415 1111 397 1111 q 485 1089 440 1111 l 524 1071 q 622 1047 575 1047 "},"Ć":{"ha":964,"x_min":68,"x_max":918,"o":"m 514 -22 q 786 74 681 -22 q 917 340 892 171 l 710 340 q 646 211 697 257 q 514 165 594 165 q 340 243 406 165 q 275 486 275 321 q 518 807 275 807 q 646 766 593 807 q 711 646 699 725 l 918 646 q 790 905 897 815 q 518 994 683 994 q 189 865 310 994 q 68 485 68 735 q 124 204 68 318 q 281 34 181 90 q 514 -22 382 -22 m 497 1225 l 415 1049 l 592 1049 l 686 1225 l 497 1225 "},"Č":{"ha":964,"x_min":68,"x_max":918,"o":"m 514 -22 q 786 74 681 -22 q 917 340 892 171 l 710 340 q 646 211 697 257 q 514 165 594 165 q 340 243 406 165 q 275 486 275 321 q 518 807 275 807 q 646 766 593 807 q 711 646 699 725 l 918 646 q 790 905 897 815 q 518 994 683 994 q 189 865 310 994 q 68 485 68 735 q 124 204 68 318 q 281 34 181 90 q 514 -22 382 -22 m 289 1225 l 397 1049 l 603 1049 l 711 1225 l 550 1225 l 500 1122 l 450 1225 l 289 1225 "},"Ç":{"ha":964,"x_min":68,"x_max":918,"o":"m 364 -175 l 364 -269 l 492 -269 q 608 -233 561 -269 q 656 -143 656 -196 q 582 -40 656 -64 l 593 -17 q 810 99 726 6 q 917 340 894 193 l 710 340 q 646 211 697 257 q 514 165 594 165 q 340 243 406 165 q 275 486 275 321 q 518 807 275 807 q 646 766 593 807 q 711 646 699 725 l 918 646 q 790 905 897 815 q 518 994 683 994 q 189 865 310 994 q 68 485 68 735 q 178 121 68 250 q 472 -21 288 -8 l 442 -103 l 488 -103 q 517 -112 506 -103 q 528 -135 528 -121 q 513 -164 528 -153 q 472 -175 497 -175 l 364 -175 "},"Ĉ":{"ha":964,"x_min":68,"x_max":918,"o":"m 514 -22 q 786 74 681 -22 q 917 340 892 171 l 710 340 q 646 211 697 257 q 514 165 594 165 q 340 243 406 165 q 275 486 275 321 q 518 807 275 807 q 646 766 593 807 q 711 646 699 725 l 918 646 q 790 905 897 815 q 518 994 683 994 q 189 865 310 994 q 68 485 68 735 q 124 204 68 318 q 281 34 181 90 q 514 -22 382 -22 m 397 1225 l 289 1049 l 450 1049 l 500 1150 l 550 1049 l 711 1049 l 603 1225 l 397 1225 "},"Ċ":{"ha":964,"x_min":68,"x_max":918,"o":"m 514 -22 q 786 74 681 -22 q 917 340 892 171 l 710 340 q 646 211 697 257 q 514 165 594 165 q 340 243 406 165 q 275 486 275 321 q 518 807 275 807 q 646 766 593 807 q 711 646 699 725 l 918 646 q 790 905 897 815 q 518 994 683 994 q 189 865 310 994 q 68 485 68 735 q 124 204 68 318 q 281 34 181 90 q 514 -22 382 -22 m 396 1218 l 396 1049 l 606 1049 l 606 1218 l 396 1218 "},"Ď":{"ha":1003,"x_min":115,"x_max":935,"o":"m 115 972 l 115 0 l 478 0 q 724 58 621 0 q 881 226 826 117 q 935 486 935 336 q 880 746 935 636 q 722 914 825 856 q 478 972 619 972 l 115 972 m 489 185 l 315 185 l 315 788 l 489 788 q 669 706 608 788 q 729 486 729 625 q 669 266 729 347 q 489 185 608 185 m 215 1225 l 324 1049 l 529 1049 l 638 1225 l 476 1225 l 426 1122 l 376 1225 l 215 1225 "},"Đ":{"ha":1003,"x_min":49,"x_max":935,"o":"m 115 429 l 115 0 l 478 0 q 724 58 621 0 q 881 226 826 117 q 935 486 935 336 q 880 746 935 636 q 722 914 825 856 q 478 972 619 972 l 115 972 l 115 576 l 49 576 l 49 429 l 115 429 m 489 185 l 315 185 l 315 429 l 586 429 l 586 576 l 315 576 l 315 788 l 489 788 q 669 706 608 788 q 729 486 729 625 q 669 266 729 347 q 489 185 608 185 "},"É":{"ha":840,"x_min":115,"x_max":744,"o":"m 115 972 l 115 0 l 744 0 l 744 188 l 315 188 l 315 415 l 744 415 l 744 603 l 315 603 l 315 785 l 744 785 l 744 972 l 115 972 m 449 1225 l 367 1049 l 543 1049 l 638 1225 l 449 1225 "},"Ĕ":{"ha":840,"x_min":115,"x_max":744,"o":"m 115 972 l 115 0 l 744 0 l 744 188 l 315 188 l 315 415 l 744 415 l 744 603 l 315 603 l 315 785 l 744 785 l 744 972 l 115 972 m 451 1044 q 597 1090 540 1044 q 653 1225 653 1135 l 517 1225 q 499 1173 517 1190 q 451 1156 481 1156 q 404 1173 422 1156 q 386 1225 386 1190 l 250 1225 q 306 1090 250 1135 q 451 1044 363 1044 "},"Ě":{"ha":840,"x_min":115,"x_max":744,"o":"m 115 972 l 115 0 l 744 0 l 744 188 l 315 188 l 315 415 l 744 415 l 744 603 l 315 603 l 315 785 l 744 785 l 744 972 l 115 972 m 239 1225 l 347 1049 l 553 1049 l 661 1225 l 500 1225 l 450 1122 l 400 1225 l 239 1225 "},"Ê":{"ha":840,"x_min":115,"x_max":744,"o":"m 115 972 l 115 0 l 744 0 l 744 188 l 315 188 l 315 415 l 744 415 l 744 603 l 315 603 l 315 785 l 744 785 l 744 972 l 115 972 m 347 1225 l 239 1049 l 400 1049 l 450 1150 l 500 1049 l 661 1049 l 553 1225 l 347 1225 "},"Ë":{"ha":840,"x_min":115,"x_max":744,"o":"m 115 972 l 115 0 l 744 0 l 744 188 l 315 188 l 315 415 l 744 415 l 744 603 l 315 603 l 315 785 l 744 785 l 744 972 l 115 972 m 500 1218 l 500 1049 l 678 1049 l 678 1218 l 500 1218 m 222 1218 l 222 1049 l 400 1049 l 400 1218 l 222 1218 "},"Ė":{"ha":840,"x_min":115,"x_max":744,"o":"m 115 972 l 115 0 l 744 0 l 744 188 l 315 188 l 315 415 l 744 415 l 744 603 l 315 603 l 315 785 l 744 785 l 744 972 l 115 972 m 346 1218 l 346 1049 l 556 1049 l 556 1218 l 346 1218 "},"Ẹ":{"ha":840,"x_min":115,"x_max":744,"o":"m 115 972 l 115 0 l 744 0 l 744 188 l 315 188 l 315 415 l 744 415 l 744 603 l 315 603 l 315 785 l 744 785 l 744 972 l 115 972 m 350 -71 l 350 -250 l 554 -250 l 554 -71 l 350 -71 "},"È":{"ha":840,"x_min":115,"x_max":744,"o":"m 115 972 l 115 0 l 744 0 l 744 188 l 315 188 l 315 415 l 744 415 l 744 603 l 315 603 l 315 785 l 744 785 l 744 972 l 115 972 m 261 1225 l 356 1049 l 532 1049 l 450 1225 l 261 1225 "},"Ē":{"ha":840,"x_min":115,"x_max":744,"o":"m 115 972 l 115 0 l 744 0 l 744 188 l 315 188 l 315 415 l 744 415 l 744 603 l 315 603 l 315 785 l 744 785 l 744 972 l 115 972 m 243 1200 l 243 1076 l 657 1076 l 657 1200 l 243 1200 "},"Ę":{"ha":840,"x_min":115,"x_max":744,"o":"m 115 972 l 115 0 l 535 0 q 473 -73 493 -37 q 453 -146 453 -108 q 496 -236 453 -203 q 613 -269 539 -269 l 701 -269 l 701 -151 l 650 -151 q 597 -110 597 -151 q 619 -62 597 -89 q 679 0 640 -35 l 744 0 l 744 188 l 315 188 l 315 415 l 744 415 l 744 603 l 315 603 l 315 785 l 744 785 l 744 972 l 115 972 "},"Ð":{"ha":1003,"x_min":49,"x_max":935,"o":"m 115 429 l 115 0 l 478 0 q 724 58 621 0 q 881 226 826 117 q 935 486 935 336 q 880 746 935 636 q 722 914 825 856 q 478 972 619 972 l 115 972 l 115 576 l 49 576 l 49 429 l 115 429 m 489 185 l 315 185 l 315 429 l 586 429 l 586 576 l 315 576 l 315 788 l 489 788 q 669 706 608 788 q 729 486 729 625 q 669 266 729 347 q 489 185 608 185 "},"Ẽ":{"ha":840,"x_min":115,"x_max":744,"o":"m 115 972 l 115 0 l 744 0 l 744 188 l 315 188 l 315 415 l 744 415 l 744 603 l 315 603 l 315 785 l 744 785 l 744 972 l 115 972 m 563 1047 q 669 1087 631 1047 q 707 1201 707 1126 l 707 1225 l 586 1225 l 586 1204 q 576 1176 586 1186 q 547 1167 565 1167 q 478 1188 524 1167 l 439 1206 q 340 1231 389 1231 q 233 1191 271 1231 q 196 1076 196 1151 l 196 1053 l 317 1053 l 317 1072 q 327 1101 317 1090 q 356 1111 338 1111 q 425 1089 381 1111 l 464 1071 q 563 1047 515 1047 "},"Ğ":{"ha":1010,"x_min":68,"x_max":922,"o":"m 499 -22 q 649 8 582 -22 q 756 90 717 39 l 756 0 l 922 0 l 922 501 l 442 501 l 442 319 l 725 319 q 662 202 714 242 q 529 163 610 163 q 275 483 275 163 q 338 725 275 640 q 517 810 401 810 q 649 770 599 810 q 713 660 700 731 l 922 660 q 796 907 903 819 q 517 994 689 994 q 278 933 379 994 q 122 756 176 871 q 68 483 68 640 q 122 213 68 328 q 274 38 176 99 q 499 -22 371 -22 m 506 1044 q 651 1090 594 1044 q 707 1225 707 1135 l 571 1225 q 553 1173 571 1190 q 506 1156 535 1156 q 458 1173 476 1156 q 440 1225 440 1190 l 304 1225 q 360 1090 304 1135 q 506 1044 417 1044 "},"Ǧ":{"ha":1010,"x_min":68,"x_max":922,"o":"m 499 -22 q 649 8 582 -22 q 756 90 717 39 l 756 0 l 922 0 l 922 501 l 442 501 l 442 319 l 725 319 q 662 202 714 242 q 529 163 610 163 q 275 483 275 163 q 338 725 275 640 q 517 810 401 810 q 649 770 599 810 q 713 660 700 731 l 922 660 q 796 907 903 819 q 517 994 689 994 q 278 933 379 994 q 122 756 176 871 q 68 483 68 640 q 122 213 68 328 q 274 38 176 99 q 499 -22 371 -22 m 294 1225 l 403 1049 l 608 1049 l 717 1225 l 556 1225 l 506 1122 l 456 1225 l 294 1225 "},"Ĝ":{"ha":1010,"x_min":68,"x_max":922,"o":"m 499 -22 q 649 8 582 -22 q 756 90 717 39 l 756 0 l 922 0 l 922 501 l 442 501 l 442 319 l 725 319 q 662 202 714 242 q 529 163 610 163 q 275 483 275 163 q 338 725 275 640 q 517 810 401 810 q 649 770 599 810 q 713 660 700 731 l 922 660 q 796 907 903 819 q 517 994 689 994 q 278 933 379 994 q 122 756 176 871 q 68 483 68 640 q 122 213 68 328 q 274 38 176 99 q 499 -22 371 -22 m 403 1225 l 294 1049 l 456 1049 l 506 1150 l 556 1049 l 717 1049 l 608 1225 l 403 1225 "},"Ģ":{"ha":1010,"x_min":68,"x_max":922,"o":"m 499 -22 q 649 8 582 -22 q 756 90 717 39 l 756 0 l 922 0 l 922 501 l 442 501 l 442 319 l 725 319 q 662 202 714 242 q 529 163 610 163 q 275 483 275 163 q 338 725 275 640 q 517 810 401 810 q 649 770 599 810 q 713 660 700 731 l 922 660 q 796 907 903 819 q 517 994 689 994 q 278 933 379 994 q 122 756 176 871 q 68 483 68 640 q 122 213 68 328 q 274 38 176 99 q 499 -22 371 -22 m 410 -203 l 410 -268 l 499 -268 q 580 -249 553 -268 q 607 -176 607 -229 l 607 -47 l 410 -47 l 410 -165 l 497 -165 l 497 -187 q 478 -203 497 -203 l 410 -203 "},"Ġ":{"ha":1010,"x_min":68,"x_max":922,"o":"m 499 -22 q 649 8 582 -22 q 756 90 717 39 l 756 0 l 922 0 l 922 501 l 442 501 l 442 319 l 725 319 q 662 202 714 242 q 529 163 610 163 q 275 483 275 163 q 338 725 275 640 q 517 810 401 810 q 649 770 599 810 q 713 660 700 731 l 922 660 q 796 907 903 819 q 517 994 689 994 q 278 933 379 994 q 122 756 176 871 q 68 483 68 640 q 122 213 68 328 q 274 38 176 99 q 499 -22 371 -22 m 401 1218 l 401 1049 l 611 1049 l 611 1218 l 401 1218 "},"Ħ":{"ha":1026,"x_min":54,"x_max":972,"o":"m 710 415 l 710 0 l 910 0 l 910 708 l 972 708 l 972 856 l 910 856 l 910 972 l 710 972 l 710 856 l 315 856 l 315 972 l 115 972 l 115 856 l 54 856 l 54 708 l 115 708 l 115 0 l 315 0 l 315 415 l 710 415 m 710 603 l 315 603 l 315 708 l 710 708 l 710 603 "},"Ĥ":{"ha":1026,"x_min":115,"x_max":910,"o":"m 710 415 l 710 0 l 910 0 l 910 972 l 710 972 l 710 603 l 315 603 l 315 972 l 115 972 l 115 0 l 315 0 l 315 415 l 710 415 m 411 1225 l 303 1049 l 464 1049 l 514 1150 l 564 1049 l 725 1049 l 617 1225 l 411 1225 "},"Í":{"ha":432,"x_min":115,"x_max":403,"o":"m 115 972 l 115 0 l 315 0 l 315 972 l 115 972 m 214 1225 l 132 1049 l 308 1049 l 403 1225 l 214 1225 "},"Ĭ":{"ha":432,"x_min":15,"x_max":418,"o":"m 115 972 l 115 0 l 315 0 l 315 972 l 115 972 m 217 1044 q 362 1090 306 1044 q 418 1225 418 1135 l 282 1225 q 264 1173 282 1190 q 217 1156 246 1156 q 169 1173 188 1156 q 151 1225 151 1190 l 15 1225 q 72 1090 15 1135 q 217 1044 128 1044 "},"Î":{"ha":432,"x_min":6,"x_max":428,"o":"m 115 972 l 115 0 l 315 0 l 315 972 l 115 972 m 114 1225 l 6 1049 l 167 1049 l 217 1150 l 267 1049 l 428 1049 l 319 1225 l 114 1225 "},"Ï":{"ha":432,"x_min":-12,"x_max":443,"o":"m 115 972 l 115 0 l 315 0 l 315 972 l 115 972 m 265 1218 l 265 1049 l 443 1049 l 443 1218 l 265 1218 m -12 1218 l -12 1049 l 165 1049 l 165 1218 l -12 1218 "},"İ":{"ha":432,"x_min":113,"x_max":322,"o":"m 115 972 l 115 0 l 315 0 l 315 972 l 115 972 m 113 1218 l 113 1049 l 322 1049 l 322 1218 l 113 1218 "},"Ị":{"ha":432,"x_min":114,"x_max":318,"o":"m 115 972 l 115 0 l 315 0 l 315 972 l 115 972 m 114 -71 l 114 -250 l 318 -250 l 318 -71 l 114 -71 "},"Ì":{"ha":432,"x_min":26,"x_max":315,"o":"m 115 972 l 115 0 l 315 0 l 315 972 l 115 972 m 26 1225 l 121 1049 l 297 1049 l 215 1225 l 26 1225 "},"Ĳ":{"ha":1107,"x_min":115,"x_max":1004,"o":"m 115 972 l 115 0 l 315 0 l 315 972 l 115 972 m 454 188 l 454 0 l 679 0 q 868 34 797 0 q 972 142 939 68 q 1004 342 1004 217 l 1004 972 l 804 972 l 804 342 q 774 225 804 263 q 679 188 743 188 l 454 188 "},"Ī":{"ha":432,"x_min":8,"x_max":422,"o":"m 115 972 l 115 0 l 315 0 l 315 972 l 115 972 m 8 1200 l 8 1076 l 422 1076 l 422 1200 l 8 1200 "},"Į":{"ha":432,"x_min":21,"x_max":315,"o":"m 181 -269 l 269 -269 l 269 -151 l 218 -151 q 165 -110 165 -151 q 187 -62 165 -89 q 247 0 208 -35 l 315 0 l 315 972 l 115 972 l 115 10 q 21 -146 21 -68 q 64 -236 21 -203 q 181 -269 107 -269 "},"Ĩ":{"ha":432,"x_min":-39,"x_max":472,"o":"m 115 972 l 115 0 l 315 0 l 315 972 l 115 972 m 328 1047 q 434 1087 396 1047 q 472 1201 472 1126 l 472 1225 l 351 1225 l 351 1204 q 341 1176 351 1186 q 313 1167 331 1167 q 243 1188 289 1167 l 204 1206 q 106 1231 154 1231 q -1 1191 36 1231 q -39 1076 -39 1151 l -39 1053 l 82 1053 l 82 1072 q 92 1101 82 1090 q 121 1111 103 1111 q 190 1089 146 1111 l 229 1071 q 328 1047 281 1047 "},"Ĵ":{"ha":676,"x_min":24,"x_max":574,"o":"m 24 188 l 24 0 l 249 0 q 438 34 367 0 q 541 142 508 68 q 574 342 574 217 l 574 972 l 374 972 l 374 342 q 343 225 374 263 q 249 188 313 188 l 24 188 m 228 1225 l 119 1049 l 281 1049 l 331 1150 l 381 1049 l 542 1049 l 433 1225 l 228 1225 "},"Ķ":{"ha":951,"x_min":115,"x_max":929,"o":"m 396 407 l 683 0 l 929 0 l 557 517 l 929 972 l 685 972 l 390 611 l 315 611 l 315 972 l 115 972 l 115 0 l 315 0 l 315 407 l 396 407 m 407 -203 l 407 -268 l 496 -268 q 577 -249 550 -268 q 604 -176 604 -229 l 604 -47 l 407 -47 l 407 -165 l 494 -165 l 494 -187 q 475 -203 494 -203 l 407 -203 "},"Ĺ":{"ha":771,"x_min":115,"x_max":749,"o":"m 115 972 l 115 0 l 749 0 l 749 188 l 315 188 l 315 972 l 115 972 m 206 1225 l 124 1049 l 300 1049 l 394 1225 l 206 1225 "},"Ľ":{"ha":771,"x_min":115,"x_max":749,"o":"m 115 972 l 115 0 l 749 0 l 749 188 l 315 188 l 315 972 l 115 972 m 403 972 l 382 753 l 525 753 l 582 972 l 403 972 "},"Ļ":{"ha":771,"x_min":115,"x_max":749,"o":"m 115 972 l 115 0 l 749 0 l 749 188 l 315 188 l 315 972 l 115 972 m 336 -203 l 336 -268 l 425 -268 q 506 -249 479 -268 q 533 -176 533 -229 l 533 -47 l 336 -47 l 336 -165 l 424 -165 l 424 -187 q 404 -203 424 -203 l 336 -203 "},"Ŀ":{"ha":771,"x_min":115,"x_max":749,"o":"m 115 972 l 115 0 l 749 0 l 749 188 l 315 188 l 315 972 l 115 972 m 483 676 l 483 447 l 707 447 l 707 676 l 483 676 "},"Ł":{"ha":771,"x_min":50,"x_max":749,"o":"m 115 326 l 115 0 l 749 0 l 749 188 l 315 188 l 315 460 l 474 565 l 474 726 l 315 621 l 315 972 l 115 972 l 115 488 l 50 444 l 50 283 l 115 326 "},"Ń":{"ha":1026,"x_min":115,"x_max":910,"o":"m 115 972 l 115 0 l 315 0 l 315 653 l 671 0 l 910 0 l 910 972 l 710 972 l 710 321 l 354 972 l 115 972 m 511 1225 l 429 1049 l 606 1049 l 700 1225 l 511 1225 "},"Ň":{"ha":1026,"x_min":115,"x_max":910,"o":"m 115 972 l 115 0 l 315 0 l 315 653 l 671 0 l 910 0 l 910 972 l 710 972 l 710 321 l 354 972 l 115 972 m 303 1225 l 411 1049 l 617 1049 l 725 1225 l 564 1225 l 514 1122 l 464 1225 l 303 1225 "},"Ņ":{"ha":1026,"x_min":115,"x_max":910,"o":"m 115 972 l 115 0 l 315 0 l 315 653 l 671 0 l 910 0 l 910 972 l 710 972 l 710 321 l 354 972 l 115 972 m 414 -203 l 414 -268 l 503 -268 q 584 -249 557 -268 q 611 -176 611 -229 l 611 -47 l 414 -47 l 414 -165 l 501 -165 l 501 -187 q 482 -203 501 -203 l 414 -203 "},"Ɲ":{"ha":1026,"x_min":-90,"x_max":910,"o":"m 354 972 l 115 972 l 115 -35 q 60 -94 115 -94 l -90 -94 l -90 -265 l 65 -265 q 254 -212 193 -265 q 315 -46 315 -158 l 315 653 l 671 0 l 910 0 l 910 972 l 710 972 l 710 321 l 354 972 "},"Ñ":{"ha":1026,"x_min":115,"x_max":910,"o":"m 115 972 l 115 0 l 315 0 l 315 653 l 671 0 l 910 0 l 910 972 l 710 972 l 710 321 l 354 972 l 115 972 m 625 1047 q 731 1087 693 1047 q 769 1201 769 1126 l 769 1225 l 649 1225 l 649 1204 q 638 1176 649 1186 q 610 1167 628 1167 q 540 1188 586 1167 l 501 1206 q 403 1231 451 1231 q 296 1191 333 1231 q 258 1076 258 1151 l 258 1053 l 379 1053 l 379 1072 q 390 1101 379 1090 q 418 1111 400 1111 q 488 1089 443 1111 l 526 1071 q 625 1047 578 1047 "},"Ŋ":{"ha":1026,"x_min":115,"x_max":910,"o":"m 115 972 l 115 0 l 315 0 l 315 653 l 671 0 l 710 0 l 710 -35 q 654 -94 710 -94 l 504 -94 l 504 -265 l 660 -265 q 849 -212 788 -265 q 910 -46 910 -158 l 910 972 l 710 972 l 710 321 l 354 972 l 115 972 "},"Ó":{"ha":1033,"x_min":68,"x_max":965,"o":"m 517 -22 q 751 37 650 -22 q 909 210 853 96 q 965 486 965 325 q 909 762 965 647 q 751 935 853 876 q 517 994 650 994 q 283 935 385 994 q 125 762 182 876 q 68 486 68 647 q 125 210 68 325 q 283 37 182 96 q 517 -22 385 -22 m 275 486 q 341 726 275 644 q 517 807 407 807 q 693 726 626 807 q 760 486 760 644 q 693 247 760 328 q 517 165 626 165 q 341 247 407 165 q 275 486 275 328 m 515 1225 l 433 1049 l 610 1049 l 704 1225 l 515 1225 "},"Ŏ":{"ha":1033,"x_min":68,"x_max":965,"o":"m 517 -22 q 751 37 650 -22 q 909 210 853 96 q 965 486 965 325 q 909 762 965 647 q 751 935 853 876 q 517 994 650 994 q 283 935 385 994 q 125 762 182 876 q 68 486 68 647 q 125 210 68 325 q 283 37 182 96 q 517 -22 385 -22 m 275 486 q 341 726 275 644 q 517 807 407 807 q 693 726 626 807 q 760 486 760 644 q 693 247 760 328 q 517 165 626 165 q 341 247 407 165 q 275 486 275 328 m 517 1044 q 662 1090 606 1044 q 718 1225 718 1135 l 582 1225 q 564 1173 582 1190 q 517 1156 546 1156 q 469 1173 488 1156 q 451 1225 451 1190 l 315 1225 q 372 1090 315 1135 q 517 1044 428 1044 "},"Ô":{"ha":1033,"x_min":68,"x_max":965,"o":"m 517 -22 q 751 37 650 -22 q 909 210 853 96 q 965 486 965 325 q 909 762 965 647 q 751 935 853 876 q 517 994 650 994 q 283 935 385 994 q 125 762 182 876 q 68 486 68 647 q 125 210 68 325 q 283 37 182 96 q 517 -22 385 -22 m 275 486 q 341 726 275 644 q 517 807 407 807 q 693 726 626 807 q 760 486 760 644 q 693 247 760 328 q 517 165 626 165 q 341 247 407 165 q 275 486 275 328 m 414 1225 l 306 1049 l 467 1049 l 517 1150 l 567 1049 l 728 1049 l 619 1225 l 414 1225 "},"Ö":{"ha":1033,"x_min":68,"x_max":965,"o":"m 517 -22 q 751 37 650 -22 q 909 210 853 96 q 965 486 965 325 q 909 762 965 647 q 751 935 853 876 q 517 994 650 994 q 283 935 385 994 q 125 762 182 876 q 68 486 68 647 q 125 210 68 325 q 283 37 182 96 q 517 -22 385 -22 m 275 486 q 341 726 275 644 q 517 807 407 807 q 693 726 626 807 q 760 486 760 644 q 693 247 760 328 q 517 165 626 165 q 341 247 407 165 q 275 486 275 328 m 567 1218 l 567 1049 l 744 1049 l 744 1218 l 567 1218 m 289 1218 l 289 1049 l 467 1049 l 467 1218 l 289 1218 "},"Ọ":{"ha":1033,"x_min":68,"x_max":965,"o":"m 517 -22 q 751 37 650 -22 q 909 210 853 96 q 965 486 965 325 q 909 762 965 647 q 751 935 853 876 q 517 994 650 994 q 283 935 385 994 q 125 762 182 876 q 68 486 68 647 q 125 210 68 325 q 283 37 182 96 q 517 -22 385 -22 m 275 486 q 341 726 275 644 q 517 807 407 807 q 693 726 626 807 q 760 486 760 644 q 693 247 760 328 q 517 165 626 165 q 341 247 407 165 q 275 486 275 328 m 415 -71 l 415 -250 l 619 -250 l 619 -71 l 415 -71 "},"Œ":{"ha":1286,"x_min":68,"x_max":1189,"o":"m 524 0 l 1189 0 l 1189 188 l 804 188 l 804 415 l 1189 415 l 1189 603 l 804 603 l 804 785 l 1189 785 l 1189 972 l 524 972 q 279 914 382 972 q 122 746 176 856 q 68 486 68 636 q 122 226 68 336 q 278 58 176 117 q 524 0 381 0 m 275 486 q 335 703 275 622 q 511 785 394 785 l 610 785 l 610 188 l 511 188 q 335 269 394 188 q 275 486 275 350 "},"Ò":{"ha":1033,"x_min":68,"x_max":965,"o":"m 517 -22 q 751 37 650 -22 q 909 210 853 96 q 965 486 965 325 q 909 762 965 647 q 751 935 853 876 q 517 994 650 994 q 283 935 385 994 q 125 762 182 876 q 68 486 68 647 q 125 210 68 325 q 283 37 182 96 q 517 -22 385 -22 m 275 486 q 341 726 275 644 q 517 807 407 807 q 693 726 626 807 q 760 486 760 644 q 693 247 760 328 q 517 165 626 165 q 341 247 407 165 q 275 486 275 328 m 328 1225 l 422 1049 l 599 1049 l 517 1225 l 328 1225 "},"Ő":{"ha":1033,"x_min":68,"x_max":965,"o":"m 517 -22 q 751 37 650 -22 q 909 210 853 96 q 965 486 965 325 q 909 762 965 647 q 751 935 853 876 q 517 994 650 994 q 283 935 385 994 q 125 762 182 876 q 68 486 68 647 q 125 210 68 325 q 283 37 182 96 q 517 -22 385 -22 m 275 486 q 341 726 275 644 q 517 807 407 807 q 693 726 626 807 q 760 486 760 644 q 693 247 760 328 q 517 165 626 165 q 341 247 407 165 q 275 486 275 328 m 408 1225 l 333 1049 l 475 1049 l 557 1225 l 408 1225 m 635 1225 l 560 1049 l 701 1049 l 783 1225 l 635 1225 "},"Ō":{"ha":1033,"x_min":68,"x_max":965,"o":"m 517 -22 q 751 37 650 -22 q 909 210 853 96 q 965 486 965 325 q 909 762 965 647 q 751 935 853 876 q 517 994 650 994 q 283 935 385 994 q 125 762 182 876 q 68 486 68 647 q 125 210 68 325 q 283 37 182 96 q 517 -22 385 -22 m 275 486 q 341 726 275 644 q 517 807 407 807 q 693 726 626 807 q 760 486 760 644 q 693 247 760 328 q 517 165 626 165 q 341 247 407 165 q 275 486 275 328 m 310 1200 l 310 1076 l 724 1076 l 724 1200 l 310 1200 "},"Ǫ":{"ha":1033,"x_min":68,"x_max":965,"o":"m 517 165 q 341 247 407 165 q 275 486 275 328 q 341 726 275 644 q 517 807 407 807 q 693 726 626 807 q 760 486 760 644 q 693 247 760 328 q 517 165 626 165 m 68 486 q 124 211 68 325 q 282 38 181 97 q 515 -22 383 -21 q 456 -146 456 -82 q 499 -236 456 -203 q 615 -269 542 -269 l 704 -269 l 704 -151 l 653 -151 q 600 -110 600 -151 q 693 8 600 -68 q 893 180 821 57 q 965 486 965 303 q 909 762 965 647 q 751 935 853 876 q 517 994 650 994 q 283 935 385 994 q 125 762 182 876 q 68 486 68 647 "},"Ø":{"ha":1033,"x_min":68,"x_max":965,"o":"m 517 -22 q 751 37 650 -22 q 909 210 853 96 q 965 486 965 325 q 863 836 965 706 l 958 960 l 867 1026 l 781 917 q 517 994 671 994 q 283 935 385 994 q 125 762 182 876 q 68 486 68 647 q 172 133 68 268 l 81 14 l 172 -56 l 257 53 q 517 -22 364 -22 m 275 486 q 341 726 275 644 q 517 807 407 807 q 660 760 600 807 l 307 306 q 275 486 275 378 m 378 210 l 729 664 q 760 486 760 590 q 693 247 760 328 q 517 165 626 165 q 378 210 438 165 "},"Ǿ":{"ha":1033,"x_min":68,"x_max":965,"o":"m 517 -22 q 751 37 650 -22 q 909 210 853 96 q 965 486 965 325 q 863 836 965 706 l 958 960 l 867 1026 l 781 917 q 517 994 671 994 q 283 935 385 994 q 125 762 182 876 q 68 486 68 647 q 172 133 68 268 l 81 14 l 172 -56 l 257 53 q 517 -22 364 -22 m 275 486 q 341 726 275 644 q 517 807 407 807 q 660 760 600 807 l 307 306 q 275 486 275 378 m 378 210 l 729 664 q 760 486 760 590 q 693 247 760 328 q 517 165 626 165 q 378 210 438 165 m 515 1225 l 433 1049 l 610 1049 l 704 1225 l 515 1225 "},"Õ":{"ha":1033,"x_min":68,"x_max":965,"o":"m 517 -22 q 751 37 650 -22 q 909 210 853 96 q 965 486 965 325 q 909 762 965 647 q 751 935 853 876 q 517 994 650 994 q 283 935 385 994 q 125 762 182 876 q 68 486 68 647 q 125 210 68 325 q 283 37 182 96 q 517 -22 385 -22 m 275 486 q 341 726 275 644 q 517 807 407 807 q 693 726 626 807 q 760 486 760 644 q 693 247 760 328 q 517 165 626 165 q 341 247 407 165 q 275 486 275 328 m 628 1047 q 734 1087 696 1047 q 772 1201 772 1126 l 772 1225 l 651 1225 l 651 1204 q 641 1176 651 1186 q 613 1167 631 1167 q 543 1188 589 1167 l 504 1206 q 406 1231 454 1231 q 299 1191 336 1231 q 261 1076 261 1151 l 261 1053 l 382 1053 l 382 1072 q 392 1101 382 1090 q 421 1111 403 1111 q 490 1089 446 1111 l 529 1071 q 628 1047 581 1047 "},"Ŕ":{"ha":969,"x_min":115,"x_max":918,"o":"m 115 972 l 115 0 l 315 0 l 315 378 l 404 378 l 674 0 l 918 0 l 646 379 q 825 478 760 401 q 890 672 890 556 q 799 892 890 813 q 553 972 708 972 l 115 972 m 551 560 l 315 560 l 315 785 l 551 785 q 652 755 617 785 q 688 672 688 725 q 652 590 688 619 q 551 560 617 560 m 476 1225 l 394 1049 l 571 1049 l 665 1225 l 476 1225 "},"Ř":{"ha":969,"x_min":115,"x_max":918,"o":"m 115 972 l 115 0 l 315 0 l 315 378 l 404 378 l 674 0 l 918 0 l 646 379 q 825 478 760 401 q 890 672 890 556 q 799 892 890 813 q 553 972 708 972 l 115 972 m 551 560 l 315 560 l 315 785 l 551 785 q 652 755 617 785 q 688 672 688 725 q 652 590 688 619 q 551 560 617 560 m 268 1225 l 376 1049 l 582 1049 l 690 1225 l 529 1225 l 479 1122 l 429 1225 l 268 1225 "},"Ŗ":{"ha":969,"x_min":115,"x_max":918,"o":"m 115 972 l 115 0 l 315 0 l 315 378 l 404 378 l 674 0 l 918 0 l 646 379 q 825 478 760 401 q 890 672 890 556 q 799 892 890 813 q 553 972 708 972 l 115 972 m 551 560 l 315 560 l 315 785 l 551 785 q 652 755 617 785 q 688 672 688 725 q 652 590 688 619 q 551 560 617 560 m 388 -203 l 388 -268 l 476 -268 q 558 -249 531 -268 q 585 -176 585 -229 l 585 -47 l 388 -47 l 388 -165 l 475 -165 l 475 -187 q 456 -203 475 -203 l 388 -203 "},"Ś":{"ha":882,"x_min":47,"x_max":828,"o":"m 450 -22 q 652 17 567 -22 q 783 130 738 57 q 828 300 828 203 q 536 590 828 553 l 432 603 q 318 638 354 613 q 282 711 282 664 q 326 790 282 760 q 440 819 369 819 q 563 789 518 819 q 611 704 608 758 l 814 704 q 713 917 811 839 q 440 994 614 994 q 251 958 333 994 q 122 854 168 921 q 76 699 76 788 q 149 506 76 578 q 369 417 222 435 l 482 403 q 588 365 554 393 q 621 286 621 338 q 574 191 621 226 q 450 156 528 156 q 306 196 360 156 q 251 304 253 236 l 47 304 q 156 65 49 151 q 450 -22 264 -22 m 438 1225 l 356 1049 l 532 1049 l 626 1225 l 438 1225 "},"Š":{"ha":882,"x_min":47,"x_max":828,"o":"m 450 -22 q 652 17 567 -22 q 783 130 738 57 q 828 300 828 203 q 536 590 828 553 l 432 603 q 318 638 354 613 q 282 711 282 664 q 326 790 282 760 q 440 819 369 819 q 563 789 518 819 q 611 704 608 758 l 814 704 q 713 917 811 839 q 440 994 614 994 q 251 958 333 994 q 122 854 168 921 q 76 699 76 788 q 149 506 76 578 q 369 417 222 435 l 482 403 q 588 365 554 393 q 621 286 621 338 q 574 191 621 226 q 450 156 528 156 q 306 196 360 156 q 251 304 253 236 l 47 304 q 156 65 49 151 q 450 -22 264 -22 m 228 1225 l 336 1049 l 542 1049 l 650 1225 l 489 1225 l 439 1122 l 389 1225 l 228 1225 "},"Ş":{"ha":882,"x_min":47,"x_max":828,"o":"m 278 -175 l 278 -269 l 406 -269 q 522 -233 475 -269 q 569 -143 569 -196 q 496 -40 569 -64 l 506 -19 q 742 80 657 -6 q 828 300 828 165 q 536 590 828 553 l 432 603 q 318 638 354 613 q 282 711 282 664 q 326 790 282 760 q 440 819 369 819 q 563 789 518 819 q 611 704 608 758 l 814 704 q 713 917 811 839 q 440 994 614 994 q 251 958 333 994 q 122 854 168 921 q 76 699 76 788 q 149 506 76 578 q 369 417 222 435 l 482 403 q 588 365 554 393 q 621 286 621 338 q 574 191 621 226 q 450 156 528 156 q 306 196 360 156 q 251 304 253 236 l 47 304 q 139 81 49 165 q 388 -19 229 -4 l 356 -103 l 401 -103 q 431 -112 419 -103 q 442 -135 442 -121 q 426 -164 442 -153 q 386 -175 411 -175 l 278 -175 "},"Ŝ":{"ha":882,"x_min":47,"x_max":828,"o":"m 450 -22 q 652 17 567 -22 q 783 130 738 57 q 828 300 828 203 q 536 590 828 553 l 432 603 q 318 638 354 613 q 282 711 282 664 q 326 790 282 760 q 440 819 369 819 q 563 789 518 819 q 611 704 608 758 l 814 704 q 713 917 811 839 q 440 994 614 994 q 251 958 333 994 q 122 854 168 921 q 76 699 76 788 q 149 506 76 578 q 369 417 222 435 l 482 403 q 588 365 554 393 q 621 286 621 338 q 574 191 621 226 q 450 156 528 156 q 306 196 360 156 q 251 304 253 236 l 47 304 q 156 65 49 151 q 450 -22 264 -22 m 336 1225 l 228 1049 l 389 1049 l 439 1150 l 489 1049 l 650 1049 l 542 1225 l 336 1225 "},"Ș":{"ha":882,"x_min":47,"x_max":828,"o":"m 450 -22 q 652 17 567 -22 q 783 130 738 57 q 828 300 828 203 q 536 590 828 553 l 432 603 q 318 638 354 613 q 282 711 282 664 q 326 790 282 760 q 440 819 369 819 q 563 789 518 819 q 611 704 608 758 l 814 704 q 713 917 811 839 q 440 994 614 994 q 251 958 333 994 q 122 854 168 921 q 76 699 76 788 q 149 506 76 578 q 369 417 222 435 l 482 403 q 588 365 554 393 q 621 286 621 338 q 574 191 621 226 q 450 156 528 156 q 306 196 360 156 q 251 304 253 236 l 47 304 q 156 65 49 151 q 450 -22 264 -22 m 357 -203 l 357 -268 l 446 -268 q 527 -249 500 -268 q 554 -176 554 -229 l 554 -47 l 357 -47 l 357 -165 l 444 -165 l 444 -187 q 425 -203 444 -203 l 357 -203 "},"Ŧ":{"ha":835,"x_min":22,"x_max":813,"o":"m 318 458 l 318 0 l 518 0 l 518 458 l 686 458 l 686 606 l 518 606 l 518 785 l 813 785 l 813 972 l 22 972 l 22 785 l 318 785 l 318 606 l 149 606 l 149 458 l 318 458 "},"Ť":{"ha":835,"x_min":22,"x_max":813,"o":"m 318 785 l 318 0 l 518 0 l 518 785 l 813 785 l 813 972 l 22 972 l 22 785 l 318 785 m 207 1225 l 315 1049 l 521 1049 l 629 1225 l 468 1225 l 418 1122 l 368 1225 l 207 1225 "},"Ţ":{"ha":835,"x_min":22,"x_max":813,"o":"m 318 785 l 318 0 l 357 0 l 318 -103 l 364 -103 q 393 -112 382 -103 q 404 -135 404 -121 q 389 -164 404 -153 q 349 -175 374 -175 l 240 -175 l 240 -269 l 368 -269 q 485 -233 438 -269 q 532 -143 532 -196 q 458 -40 532 -64 l 476 0 l 518 0 l 518 785 l 813 785 l 813 972 l 22 972 l 22 785 l 318 785 "},"Ț":{"ha":835,"x_min":22,"x_max":813,"o":"m 318 785 l 318 0 l 518 0 l 518 785 l 813 785 l 813 972 l 22 972 l 22 785 l 318 785 m 319 -203 l 319 -268 l 408 -268 q 490 -249 463 -268 q 517 -176 517 -229 l 517 -47 l 319 -47 l 319 -165 l 407 -165 l 407 -187 q 388 -203 407 -203 l 319 -203 "},"Þ":{"ha":956,"x_min":115,"x_max":899,"o":"m 115 972 l 115 0 l 315 0 l 315 149 l 539 149 q 728 190 647 149 q 854 308 810 232 q 899 488 899 385 q 854 667 899 590 q 728 783 810 743 q 539 824 647 824 l 315 824 l 315 972 l 115 972 m 518 336 l 315 336 l 315 636 l 518 636 q 646 597 601 636 q 690 488 690 557 q 646 377 690 418 q 518 336 601 336 "},"Ú":{"ha":975,"x_min":103,"x_max":874,"o":"m 488 -22 q 693 24 606 -22 q 827 158 781 71 q 874 365 874 246 l 874 972 l 674 972 l 674 381 q 625 221 674 276 q 488 165 576 165 q 351 221 400 165 q 303 381 303 276 l 303 972 l 103 972 l 103 365 q 206 81 103 185 q 488 -22 308 -22 m 486 1225 l 404 1049 l 581 1049 l 675 1225 l 486 1225 "},"Ŭ":{"ha":975,"x_min":103,"x_max":874,"o":"m 488 -22 q 693 24 606 -22 q 827 158 781 71 q 874 365 874 246 l 874 972 l 674 972 l 674 381 q 625 221 674 276 q 488 165 576 165 q 351 221 400 165 q 303 381 303 276 l 303 972 l 103 972 l 103 365 q 206 81 103 185 q 488 -22 308 -22 m 488 1044 q 633 1090 576 1044 q 689 1225 689 1135 l 553 1225 q 535 1173 553 1190 q 488 1156 517 1156 q 440 1173 458 1156 q 422 1225 422 1190 l 286 1225 q 342 1090 286 1135 q 488 1044 399 1044 "},"Û":{"ha":975,"x_min":103,"x_max":874,"o":"m 488 -22 q 693 24 606 -22 q 827 158 781 71 q 874 365 874 246 l 874 972 l 674 972 l 674 381 q 625 221 674 276 q 488 165 576 165 q 351 221 400 165 q 303 381 303 276 l 303 972 l 103 972 l 103 365 q 206 81 103 185 q 488 -22 308 -22 m 385 1225 l 276 1049 l 438 1049 l 488 1150 l 538 1049 l 699 1049 l 590 1225 l 385 1225 "},"Ü":{"ha":975,"x_min":103,"x_max":874,"o":"m 488 -22 q 693 24 606 -22 q 827 158 781 71 q 874 365 874 246 l 874 972 l 674 972 l 674 381 q 625 221 674 276 q 488 165 576 165 q 351 221 400 165 q 303 381 303 276 l 303 972 l 103 972 l 103 365 q 206 81 103 185 q 488 -22 308 -22 m 538 1218 l 538 1049 l 715 1049 l 715 1218 l 538 1218 m 260 1218 l 260 1049 l 438 1049 l 438 1218 l 260 1218 "},"Ụ":{"ha":975,"x_min":103,"x_max":874,"o":"m 488 -22 q 693 24 606 -22 q 827 158 781 71 q 874 365 874 246 l 874 972 l 674 972 l 674 381 q 625 221 674 276 q 488 165 576 165 q 351 221 400 165 q 303 381 303 276 l 303 972 l 103 972 l 103 365 q 206 81 103 185 q 488 -22 308 -22 m 386 -71 l 386 -250 l 590 -250 l 590 -71 l 386 -71 "},"Ù":{"ha":975,"x_min":103,"x_max":874,"o":"m 488 -22 q 693 24 606 -22 q 827 158 781 71 q 874 365 874 246 l 874 972 l 674 972 l 674 381 q 625 221 674 276 q 488 165 576 165 q 351 221 400 165 q 303 381 303 276 l 303 972 l 103 972 l 103 365 q 206 81 103 185 q 488 -22 308 -22 m 299 1225 l 393 1049 l 569 1049 l 488 1225 l 299 1225 "},"Ű":{"ha":975,"x_min":103,"x_max":874,"o":"m 488 -22 q 693 24 606 -22 q 827 158 781 71 q 874 365 874 246 l 874 972 l 674 972 l 674 381 q 625 221 674 276 q 488 165 576 165 q 351 221 400 165 q 303 381 303 276 l 303 972 l 103 972 l 103 365 q 206 81 103 185 q 488 -22 308 -22 m 379 1225 l 304 1049 l 446 1049 l 528 1225 l 379 1225 m 606 1225 l 531 1049 l 672 1049 l 754 1225 l 606 1225 "},"Ū":{"ha":975,"x_min":103,"x_max":874,"o":"m 488 -22 q 693 24 606 -22 q 827 158 781 71 q 874 365 874 246 l 874 972 l 674 972 l 674 381 q 625 221 674 276 q 488 165 576 165 q 351 221 400 165 q 303 381 303 276 l 303 972 l 103 972 l 103 365 q 206 81 103 185 q 488 -22 308 -22 m 281 1200 l 281 1076 l 694 1076 l 694 1200 l 281 1200 "},"Ų":{"ha":975,"x_min":103,"x_max":874,"o":"m 585 -269 l 674 -269 l 674 -151 l 622 -151 q 569 -110 569 -151 q 594 -56 569 -86 q 665 11 619 -26 q 819 144 765 53 q 874 365 874 236 l 874 972 l 674 972 l 674 381 q 625 221 674 276 q 488 165 576 165 q 351 221 400 165 q 303 381 303 276 l 303 972 l 103 972 l 103 365 q 205 83 103 186 q 485 -22 307 -21 q 425 -146 425 -82 q 468 -236 425 -203 q 585 -269 511 -269 "},"Ů":{"ha":975,"x_min":103,"x_max":874,"o":"m 488 -22 q 693 24 606 -22 q 827 158 781 71 q 874 365 874 246 l 874 972 l 674 972 l 674 381 q 625 221 674 276 q 488 165 576 165 q 351 221 400 165 q 303 381 303 276 l 303 972 l 103 972 l 103 365 q 206 81 103 185 q 488 -22 308 -22 m 489 1019 q 605 1062 560 1019 q 650 1169 650 1104 q 605 1277 650 1235 q 489 1319 560 1319 q 372 1277 417 1319 q 326 1169 326 1235 q 372 1062 326 1104 q 489 1019 417 1019 m 425 1169 q 442 1215 425 1197 q 489 1233 460 1233 q 534 1215 517 1233 q 551 1169 551 1197 q 534 1124 551 1142 q 489 1107 517 1107 q 442 1124 460 1107 q 425 1169 425 1142 "},"Ũ":{"ha":975,"x_min":103,"x_max":874,"o":"m 488 -22 q 693 24 606 -22 q 827 158 781 71 q 874 365 874 246 l 874 972 l 674 972 l 674 381 q 625 221 674 276 q 488 165 576 165 q 351 221 400 165 q 303 381 303 276 l 303 972 l 103 972 l 103 365 q 206 81 103 185 q 488 -22 308 -22 m 599 1047 q 705 1087 667 1047 q 743 1201 743 1126 l 743 1225 l 622 1225 l 622 1204 q 612 1176 622 1186 q 583 1167 601 1167 q 514 1188 560 1167 l 475 1206 q 376 1231 425 1231 q 269 1191 307 1231 q 232 1076 232 1151 l 232 1053 l 353 1053 l 353 1072 q 363 1101 353 1090 q 392 1111 374 1111 q 461 1089 417 1111 l 500 1071 q 599 1047 551 1047 "},"Ẃ":{"ha":1332,"x_min":32,"x_max":1301,"o":"m 32 972 l 272 0 l 510 0 l 667 693 l 822 0 l 1060 0 l 1301 972 l 1086 972 l 932 278 l 776 972 l 556 972 l 401 275 l 247 972 l 32 972 m 664 1225 l 582 1049 l 758 1049 l 853 1225 l 664 1225 "},"Ŵ":{"ha":1332,"x_min":32,"x_max":1301,"o":"m 32 972 l 272 0 l 510 0 l 667 693 l 822 0 l 1060 0 l 1301 972 l 1086 972 l 932 278 l 776 972 l 556 972 l 401 275 l 247 972 l 32 972 m 563 1225 l 454 1049 l 615 1049 l 665 1150 l 715 1049 l 876 1049 l 768 1225 l 563 1225 "},"Ẅ":{"ha":1332,"x_min":32,"x_max":1301,"o":"m 32 972 l 272 0 l 510 0 l 667 693 l 822 0 l 1060 0 l 1301 972 l 1086 972 l 932 278 l 776 972 l 556 972 l 401 275 l 247 972 l 32 972 m 715 1218 l 715 1049 l 893 1049 l 893 1218 l 715 1218 m 438 1218 l 438 1049 l 615 1049 l 615 1218 l 438 1218 "},"Ẁ":{"ha":1332,"x_min":32,"x_max":1301,"o":"m 32 972 l 272 0 l 510 0 l 667 693 l 822 0 l 1060 0 l 1301 972 l 1086 972 l 932 278 l 776 972 l 556 972 l 401 275 l 247 972 l 32 972 m 476 1225 l 571 1049 l 747 1049 l 665 1225 l 476 1225 "},"Ý":{"ha":963,"x_min":10,"x_max":954,"o":"m 382 403 l 382 0 l 582 0 l 582 403 l 954 972 l 715 972 l 482 601 l 247 972 l 10 972 l 382 403 m 479 1225 l 397 1049 l 574 1049 l 668 1225 l 479 1225 "},"Ŷ":{"ha":963,"x_min":10,"x_max":954,"o":"m 382 403 l 382 0 l 582 0 l 582 403 l 954 972 l 715 972 l 482 601 l 247 972 l 10 972 l 382 403 m 378 1225 l 269 1049 l 431 1049 l 481 1150 l 531 1049 l 692 1049 l 583 1225 l 378 1225 "},"Ÿ":{"ha":963,"x_min":10,"x_max":954,"o":"m 382 403 l 382 0 l 582 0 l 582 403 l 954 972 l 715 972 l 482 601 l 247 972 l 10 972 l 382 403 m 531 1218 l 531 1049 l 708 1049 l 708 1218 l 531 1218 m 253 1218 l 253 1049 l 431 1049 l 431 1218 l 253 1218 "},"Ỳ":{"ha":963,"x_min":10,"x_max":954,"o":"m 382 403 l 382 0 l 582 0 l 582 403 l 954 972 l 715 972 l 482 601 l 247 972 l 10 972 l 382 403 m 292 1225 l 386 1049 l 563 1049 l 481 1225 l 292 1225 "},"Ȳ":{"ha":963,"x_min":10,"x_max":954,"o":"m 382 403 l 382 0 l 582 0 l 582 403 l 954 972 l 715 972 l 482 601 l 247 972 l 10 972 l 382 403 m 274 1200 l 274 1076 l 688 1076 l 688 1200 l 274 1200 "},"Ỹ":{"ha":963,"x_min":10,"x_max":954,"o":"m 382 403 l 382 0 l 582 0 l 582 403 l 954 972 l 715 972 l 482 601 l 247 972 l 10 972 l 382 403 m 592 1047 q 698 1087 660 1047 q 736 1201 736 1126 l 736 1225 l 615 1225 l 615 1204 q 605 1176 615 1186 q 576 1167 594 1167 q 507 1188 553 1167 l 468 1206 q 369 1231 418 1231 q 263 1191 300 1231 q 225 1076 225 1151 l 225 1053 l 346 1053 l 346 1072 q 356 1101 346 1090 q 385 1111 367 1111 q 454 1089 410 1111 l 493 1071 q 592 1047 544 1047 "},"Ź":{"ha":861,"x_min":53,"x_max":804,"o":"m 53 188 l 53 0 l 804 0 l 804 188 l 304 188 l 797 785 l 797 972 l 67 972 l 67 785 l 546 785 l 53 188 m 431 1225 l 349 1049 l 525 1049 l 619 1225 l 431 1225 "},"Ž":{"ha":861,"x_min":53,"x_max":804,"o":"m 53 188 l 53 0 l 804 0 l 804 188 l 304 188 l 797 785 l 797 972 l 67 972 l 67 785 l 546 785 l 53 188 m 221 1225 l 329 1049 l 535 1049 l 643 1225 l 482 1225 l 432 1122 l 382 1225 l 221 1225 "},"Ż":{"ha":861,"x_min":53,"x_max":804,"o":"m 53 188 l 53 0 l 804 0 l 804 188 l 304 188 l 797 785 l 797 972 l 67 972 l 67 785 l 546 785 l 53 188 m 328 1218 l 328 1049 l 538 1049 l 538 1218 l 328 1218 "},"ẞ":{"ha":978,"x_min":115,"x_max":929,"o":"m 115 972 l 115 0 l 315 0 l 315 785 l 667 785 l 507 554 l 507 425 l 589 425 q 686 390 650 425 q 722 297 722 356 q 687 203 722 238 q 589 168 651 168 l 424 168 l 424 -8 l 613 -8 q 848 72 767 -8 q 929 288 929 153 q 874 453 929 379 q 718 554 818 526 l 883 785 l 883 972 l 115 972 "},"Ə":{"ha":1014,"x_min":68,"x_max":944,"o":"m 490 -22 q 727 35 625 -22 q 887 206 829 92 q 944 485 944 319 q 825 865 944 736 q 493 994 706 994 q 213 903 325 994 q 76 643 101 813 l 285 643 q 356 762 300 717 q 493 807 411 807 q 661 744 597 807 q 736 542 725 681 l 68 542 l 68 451 q 123 187 68 293 q 273 29 178 81 q 490 -22 368 -22 m 274 365 l 726 365 q 641 214 703 263 q 490 165 579 165 q 342 217 400 165 q 274 365 283 269 "},"a":{"ha":758,"x_min":42,"x_max":732,"o":"m 306 -21 q 430 3 375 -21 q 514 68 485 26 q 537 18 517 36 q 593 0 557 0 l 732 0 l 732 154 l 671 154 q 653 174 653 154 l 653 478 q 581 647 653 586 q 383 707 510 707 q 75 486 97 707 l 267 486 q 296 535 272 519 q 369 550 319 550 q 446 530 422 550 q 469 465 469 510 l 469 436 l 293 425 q 106 357 169 417 q 42 197 42 297 q 113 38 42 96 q 306 -21 185 -21 m 235 204 q 258 254 235 233 q 325 279 281 275 l 469 292 l 469 260 q 431 168 469 200 q 332 136 392 136 q 260 154 285 136 q 235 204 235 172 "},"b":{"ha":863,"x_min":96,"x_max":808,"o":"m 479 -21 q 651 24 576 -21 q 767 152 725 69 q 808 343 808 235 q 767 534 808 451 q 651 662 725 617 q 479 707 576 707 q 371 688 421 707 q 290 633 321 668 l 290 972 l 96 972 l 96 0 l 267 0 l 267 67 q 356 2 300 25 q 479 -21 413 -21 m 288 343 q 331 480 288 428 q 447 532 375 532 q 564 480 519 532 q 608 343 608 428 q 564 206 608 258 q 447 154 519 154 q 331 206 375 154 q 288 343 288 258 "},"c":{"ha":763,"x_min":53,"x_max":728,"o":"m 396 -21 q 563 17 490 -21 q 678 118 636 56 q 728 254 719 181 l 532 254 q 490 181 524 208 q 403 154 456 154 q 294 204 335 154 q 253 342 253 254 q 294 481 253 431 q 404 532 335 532 q 488 507 456 532 q 529 446 521 482 l 725 446 q 628 635 715 564 q 407 707 542 707 q 222 660 301 707 q 97 531 142 614 q 53 340 53 447 q 94 154 53 236 q 214 26 136 72 q 396 -21 292 -21 "},"d":{"ha":863,"x_min":53,"x_max":765,"o":"m 382 -21 q 506 2 449 -21 q 596 67 563 25 l 596 0 l 765 0 l 765 972 l 572 972 l 572 633 q 491 688 542 668 q 382 707 440 707 q 210 662 285 707 q 94 534 136 617 q 53 343 53 451 q 94 152 53 235 q 210 24 136 69 q 382 -21 285 -21 m 253 343 q 297 480 253 428 q 414 532 342 532 q 531 480 486 532 q 575 343 575 428 q 531 206 575 258 q 414 154 486 154 q 297 206 342 154 q 253 343 253 258 "},"e":{"ha":781,"x_min":53,"x_max":735,"o":"m 401 -21 q 610 39 529 -21 q 722 204 690 99 l 524 204 q 479 158 510 175 q 403 140 449 140 q 292 175 333 140 q 244 274 250 210 l 731 274 q 735 353 735 318 q 644 612 735 517 q 394 707 553 707 q 217 663 294 707 q 96 536 139 618 q 53 347 53 454 q 96 154 53 238 q 218 25 139 71 q 401 -21 297 -21 m 539 421 l 243 421 q 288 518 247 482 q 394 554 328 554 q 501 519 464 554 q 539 424 539 483 l 539 421 "},"f":{"ha":614,"x_min":10,"x_max":628,"o":"m 181 769 l 181 686 l 10 686 l 10 517 l 181 517 l 181 0 l 375 0 l 375 517 l 586 517 l 586 686 l 375 686 l 375 746 q 438 803 375 803 l 628 803 l 628 972 l 389 972 q 235 920 289 972 q 181 769 181 868 "},"g":{"ha":804,"x_min":26,"x_max":788,"o":"m 247 -250 l 496 -250 q 671 -193 614 -250 q 728 -42 728 -136 q 668 94 728 44 q 499 143 608 143 l 264 143 q 231 153 243 143 q 218 182 218 164 q 230 212 218 201 q 264 222 242 222 l 374 222 q 570 285 494 222 q 646 457 646 349 l 646 490 q 669 517 646 517 l 788 517 l 788 686 l 685 686 q 622 667 647 686 q 597 600 597 649 l 597 579 q 508 672 574 636 q 363 707 443 707 q 210 676 274 707 q 113 592 146 644 q 79 472 79 539 q 100 381 79 424 q 161 307 121 339 q 79 253 106 289 q 53 174 53 217 q 67 111 53 140 q 110 63 82 82 q 48 3 69 39 q 26 -75 26 -32 q 81 -201 26 -151 q 247 -250 136 -250 m 208 -54 q 226 -15 208 -29 q 275 0 243 0 l 483 0 q 528 -14 511 0 q 544 -51 544 -28 q 526 -92 544 -78 q 481 -107 508 -107 l 274 -107 q 225 -93 242 -107 q 208 -54 208 -79 m 260 464 q 288 535 260 508 q 363 561 315 561 q 436 535 408 561 q 464 464 464 508 q 436 394 464 421 q 363 368 408 368 q 288 394 315 368 q 260 464 260 421 "},"h":{"ha":815,"x_min":96,"x_max":733,"o":"m 96 972 l 96 0 l 290 0 l 290 390 q 325 494 290 456 q 419 532 360 532 q 539 396 539 532 l 539 0 l 733 0 l 733 417 q 660 630 733 553 q 460 707 586 707 q 365 690 410 707 q 290 643 321 674 l 290 972 l 96 972 "},"i":{"ha":386,"x_min":90,"x_max":294,"o":"m 96 686 l 96 0 l 290 0 l 290 686 l 96 686 m 90 969 l 90 789 l 294 789 l 294 969 l 90 969 "},"j":{"ha":394,"x_min":-31,"x_max":304,"o":"m -31 -76 l -31 -250 l 85 -250 q 242 -201 186 -250 q 299 -50 299 -151 l 299 686 l 106 686 l 106 -24 q 97 -65 106 -54 q 67 -76 89 -76 l -31 -76 m 100 969 l 100 789 l 304 789 l 304 969 l 100 969 "},"k":{"ha":783,"x_min":96,"x_max":767,"o":"m 350 282 l 535 0 l 767 0 l 518 375 l 767 686 l 531 686 l 350 458 l 290 458 l 290 972 l 96 972 l 96 0 l 290 0 l 290 282 l 350 282 "},"l":{"ha":438,"x_min":96,"x_max":408,"o":"m 250 0 l 408 0 l 408 169 l 333 169 q 300 180 310 169 q 290 213 290 190 l 290 972 l 96 972 l 96 143 q 133 33 96 67 q 250 0 169 0 "},"m":{"ha":1153,"x_min":96,"x_max":1071,"o":"m 96 686 l 96 0 l 290 0 l 290 411 q 317 499 290 467 q 390 532 344 532 q 462 503 438 532 q 486 417 486 474 l 486 0 l 681 0 l 681 411 q 707 499 681 467 q 779 532 733 532 q 851 503 826 532 q 876 417 876 474 l 876 0 l 1071 0 l 1071 431 q 1004 634 1071 561 q 818 707 938 707 q 624 601 693 707 q 549 680 596 653 q 439 707 503 707 q 267 621 325 707 l 267 686 l 96 686 "},"n":{"ha":815,"x_min":96,"x_max":733,"o":"m 96 686 l 96 0 l 290 0 l 290 390 q 325 494 290 456 q 419 532 360 532 q 539 396 539 532 l 539 0 l 733 0 l 733 417 q 660 630 733 553 q 460 707 586 707 q 347 684 399 707 q 267 617 296 661 l 267 686 l 96 686 "},"o":{"ha":831,"x_min":53,"x_max":778,"o":"m 415 -21 q 603 24 521 -21 q 732 152 686 69 q 778 343 778 235 q 732 533 778 450 q 603 661 686 615 q 415 707 521 707 q 227 661 310 707 q 99 533 144 615 q 53 343 53 450 q 99 152 53 235 q 227 24 144 69 q 415 -21 310 -21 m 253 343 q 298 480 253 428 q 415 532 343 532 q 533 480 488 532 q 578 343 578 428 q 533 206 578 258 q 415 154 488 154 q 298 206 343 154 q 253 343 253 258 "},"p":{"ha":863,"x_min":96,"x_max":808,"o":"m 96 686 l 96 -250 l 290 -250 l 290 53 q 371 -1 321 18 q 479 -21 421 -21 q 651 24 576 -21 q 767 152 725 69 q 808 343 808 235 q 767 534 808 451 q 651 662 725 617 q 479 707 576 707 q 356 684 413 707 q 267 619 300 661 l 267 686 l 96 686 m 288 343 q 331 480 288 428 q 447 532 375 532 q 564 480 519 532 q 608 343 608 428 q 564 206 608 258 q 447 154 519 154 q 331 206 375 154 q 288 343 288 258 "},"q":{"ha":863,"x_min":53,"x_max":765,"o":"m 572 53 l 572 -250 l 765 -250 l 765 686 l 596 686 l 596 619 q 506 684 563 661 q 382 707 449 707 q 210 662 285 707 q 94 534 136 617 q 53 343 53 451 q 94 152 53 235 q 210 24 136 69 q 382 -21 285 -21 q 491 -1 440 -21 q 572 53 542 18 m 253 343 q 297 480 253 428 q 414 532 342 532 q 531 480 486 532 q 575 343 575 428 q 531 206 575 258 q 414 154 486 154 q 297 206 342 154 q 253 343 253 258 "},"r":{"ha":569,"x_min":96,"x_max":549,"o":"m 96 686 l 96 0 l 290 0 l 290 400 q 403 517 290 517 l 549 517 l 549 686 l 426 686 q 320 655 361 686 q 267 565 279 624 l 267 686 l 96 686 "},"s":{"ha":699,"x_min":38,"x_max":653,"o":"m 349 -21 q 571 42 489 -21 q 653 211 653 104 q 598 353 653 297 q 447 419 543 410 l 336 432 q 249 492 249 443 q 274 537 249 521 q 346 553 300 553 q 454 486 450 553 l 646 486 q 561 651 639 596 q 349 707 483 707 q 138 647 215 707 q 60 481 60 586 q 116 337 60 393 q 268 269 172 281 l 376 258 q 458 200 458 250 q 431 151 458 169 q 357 133 403 133 q 238 204 246 133 l 38 204 q 124 37 43 94 q 349 -21 206 -21 "},"t":{"ha":614,"x_min":8,"x_max":578,"o":"m 363 0 l 578 0 l 578 169 l 433 169 q 388 184 401 169 q 374 229 374 199 l 374 517 l 578 517 l 578 686 l 374 686 l 374 885 l 179 885 l 179 686 l 8 686 l 8 517 l 179 517 l 179 182 q 223 42 179 85 q 363 0 267 0 "},"u":{"ha":792,"x_min":78,"x_max":708,"o":"m 347 -21 q 456 -1 406 -21 q 538 56 506 18 l 538 0 l 708 0 l 708 686 l 514 686 l 514 296 q 481 192 514 231 q 388 154 447 154 q 271 290 271 154 l 271 686 l 78 686 l 78 269 q 150 56 78 133 q 347 -21 222 -21 "},"v":{"ha":793,"x_min":11,"x_max":782,"o":"m 11 686 l 286 0 l 507 0 l 782 686 l 567 686 l 396 208 l 226 686 l 11 686 "},"w":{"ha":1131,"x_min":18,"x_max":1113,"o":"m 18 686 l 218 0 l 447 0 l 565 468 l 683 0 l 913 0 l 1113 686 l 911 686 l 794 215 l 676 686 l 454 686 l 338 215 l 219 686 l 18 686 "},"x":{"ha":778,"x_min":17,"x_max":761,"o":"m 264 354 l 17 0 l 249 0 l 389 203 l 529 0 l 761 0 l 513 354 l 747 686 l 515 686 l 388 493 l 263 686 l 31 686 l 264 354 "},"y":{"ha":779,"x_min":11,"x_max":769,"o":"m 36 -79 l 36 -250 l 231 -250 q 340 -224 301 -250 q 403 -140 378 -197 l 769 686 l 553 686 l 393 278 l 232 686 l 11 686 l 290 56 l 249 -35 q 178 -79 229 -79 l 36 -79 "},"z":{"ha":732,"x_min":61,"x_max":676,"o":"m 61 169 l 61 0 l 676 0 l 676 169 l 318 169 l 663 517 l 663 686 l 68 686 l 68 517 l 404 517 l 61 169 "},"á":{"ha":758,"x_min":42,"x_max":732,"o":"m 306 -21 q 430 3 375 -21 q 514 68 485 26 q 537 18 517 36 q 593 0 557 0 l 732 0 l 732 154 l 671 154 q 653 174 653 154 l 653 478 q 581 647 653 586 q 383 707 510 707 q 75 486 97 707 l 267 486 q 296 535 272 519 q 369 550 319 550 q 446 530 422 550 q 469 465 469 510 l 469 436 l 293 425 q 106 357 169 417 q 42 197 42 297 q 113 38 42 96 q 306 -21 185 -21 m 235 204 q 258 254 235 233 q 325 279 281 275 l 469 292 l 469 260 q 431 168 469 200 q 332 136 392 136 q 260 154 285 136 q 235 204 235 172 m 392 989 l 297 783 l 463 783 l 571 989 l 392 989 "},"ă":{"ha":758,"x_min":42,"x_max":732,"o":"m 306 -21 q 430 3 375 -21 q 514 68 485 26 q 537 18 517 36 q 593 0 557 0 l 732 0 l 732 154 l 671 154 q 653 174 653 154 l 653 478 q 581 647 653 586 q 383 707 510 707 q 75 486 97 707 l 267 486 q 296 535 272 519 q 369 550 319 550 q 446 530 422 550 q 469 465 469 510 l 469 436 l 293 425 q 106 357 169 417 q 42 197 42 297 q 113 38 42 96 q 306 -21 185 -21 m 235 204 q 258 254 235 233 q 325 279 281 275 l 469 292 l 469 260 q 431 168 469 200 q 332 136 392 136 q 260 154 285 136 q 235 204 235 172 m 378 778 q 538 831 483 778 q 593 989 593 885 l 451 989 q 433 922 451 943 q 378 900 415 900 q 322 922 340 900 q 304 989 304 943 l 163 989 q 217 831 163 885 q 378 778 272 778 "},"â":{"ha":758,"x_min":42,"x_max":732,"o":"m 306 -21 q 430 3 375 -21 q 514 68 485 26 q 537 18 517 36 q 593 0 557 0 l 732 0 l 732 154 l 671 154 q 653 174 653 154 l 653 478 q 581 647 653 586 q 383 707 510 707 q 75 486 97 707 l 267 486 q 296 535 272 519 q 369 550 319 550 q 446 530 422 550 q 469 465 469 510 l 469 436 l 293 425 q 106 357 169 417 q 42 197 42 297 q 113 38 42 96 q 306 -21 185 -21 m 235 204 q 258 254 235 233 q 325 279 281 275 l 469 292 l 469 260 q 431 168 469 200 q 332 136 392 136 q 260 154 285 136 q 235 204 235 172 m 257 989 l 151 783 l 317 783 l 376 915 l 436 783 l 601 783 l 496 989 l 257 989 "},"ä":{"ha":758,"x_min":42,"x_max":732,"o":"m 306 -21 q 430 3 375 -21 q 514 68 485 26 q 537 18 517 36 q 593 0 557 0 l 732 0 l 732 154 l 671 154 q 653 174 653 154 l 653 478 q 581 647 653 586 q 383 707 510 707 q 75 486 97 707 l 267 486 q 296 535 272 519 q 369 550 319 550 q 446 530 422 550 q 469 465 469 510 l 469 436 l 293 425 q 106 357 169 417 q 42 197 42 297 q 113 38 42 96 q 306 -21 185 -21 m 235 204 q 258 254 235 233 q 325 279 281 275 l 469 292 l 469 260 q 431 168 469 200 q 332 136 392 136 q 260 154 285 136 q 235 204 235 172 m 418 969 l 418 789 l 589 789 l 589 969 l 418 969 m 165 969 l 165 789 l 336 789 l 336 969 l 165 969 "},"ạ":{"ha":758,"x_min":42,"x_max":732,"o":"m 306 -21 q 430 3 375 -21 q 514 68 485 26 q 537 18 517 36 q 593 0 557 0 l 732 0 l 732 154 l 671 154 q 653 174 653 154 l 653 478 q 581 647 653 586 q 383 707 510 707 q 75 486 97 707 l 267 486 q 296 535 272 519 q 369 550 319 550 q 446 530 422 550 q 469 465 469 510 l 469 436 l 293 425 q 106 357 169 417 q 42 197 42 297 q 113 38 42 96 q 306 -21 185 -21 m 235 204 q 258 254 235 233 q 325 279 281 275 l 469 292 l 469 260 q 431 168 469 200 q 332 136 392 136 q 260 154 285 136 q 235 204 235 172 m 274 -71 l 274 -250 l 478 -250 l 478 -71 l 274 -71 "},"æ":{"ha":1179,"x_min":42,"x_max":1133,"o":"m 306 -21 q 455 8 388 -21 q 564 89 522 38 q 672 8 608 36 q 814 -21 736 -21 q 1013 39 936 -21 q 1122 204 1090 99 l 922 204 q 883 158 910 175 q 815 140 857 140 q 713 175 750 140 q 671 274 676 210 l 1129 274 q 1133 353 1133 318 q 1047 612 1133 517 q 808 707 960 707 q 586 624 674 707 q 369 707 515 707 q 163 649 242 707 q 75 486 85 590 l 267 486 q 300 534 271 518 q 375 550 329 550 q 454 526 428 550 q 481 451 481 503 l 481 421 l 317 421 q 114 359 186 421 q 42 201 42 297 q 111 37 42 94 q 306 -21 181 -21 m 235 203 q 325 274 235 274 l 481 274 q 433 175 478 214 q 322 136 389 136 q 258 155 282 136 q 235 203 235 174 m 938 421 l 669 421 q 710 518 674 482 q 808 554 746 554 q 904 519 871 554 q 938 424 938 483 l 938 421 "},"ǽ":{"ha":1179,"x_min":42,"x_max":1133,"o":"m 306 -21 q 455 8 388 -21 q 564 89 522 38 q 672 8 608 36 q 814 -21 736 -21 q 1013 39 936 -21 q 1122 204 1090 99 l 922 204 q 883 158 910 175 q 815 140 857 140 q 713 175 750 140 q 671 274 676 210 l 1129 274 q 1133 353 1133 318 q 1047 612 1133 517 q 808 707 960 707 q 586 624 674 707 q 369 707 515 707 q 163 649 242 707 q 75 486 85 590 l 267 486 q 300 534 271 518 q 375 550 329 550 q 454 526 428 550 q 481 451 481 503 l 481 421 l 317 421 q 114 359 186 421 q 42 201 42 297 q 111 37 42 94 q 306 -21 181 -21 m 235 203 q 325 274 235 274 l 481 274 q 433 175 478 214 q 322 136 389 136 q 258 155 282 136 q 235 203 235 174 m 938 421 l 669 421 q 710 518 674 482 q 808 554 746 554 q 904 519 871 554 q 938 424 938 483 l 938 421 m 597 989 l 503 783 l 668 783 l 776 989 l 597 989 "},"à":{"ha":758,"x_min":42,"x_max":732,"o":"m 306 -21 q 430 3 375 -21 q 514 68 485 26 q 537 18 517 36 q 593 0 557 0 l 732 0 l 732 154 l 671 154 q 653 174 653 154 l 653 478 q 581 647 653 586 q 383 707 510 707 q 75 486 97 707 l 267 486 q 296 535 272 519 q 369 550 319 550 q 446 530 422 550 q 469 465 469 510 l 469 436 l 293 425 q 106 357 169 417 q 42 197 42 297 q 113 38 42 96 q 306 -21 185 -21 m 235 204 q 258 254 235 233 q 325 279 281 275 l 469 292 l 469 260 q 431 168 469 200 q 332 136 392 136 q 260 154 285 136 q 235 204 235 172 m 178 989 l 286 783 l 451 783 l 356 989 l 178 989 "},"ā":{"ha":758,"x_min":42,"x_max":732,"o":"m 306 -21 q 430 3 375 -21 q 514 68 485 26 q 537 18 517 36 q 593 0 557 0 l 732 0 l 732 154 l 671 154 q 653 174 653 154 l 653 478 q 581 647 653 586 q 383 707 510 707 q 75 486 97 707 l 267 486 q 296 535 272 519 q 369 550 319 550 q 446 530 422 550 q 469 465 469 510 l 469 436 l 293 425 q 106 357 169 417 q 42 197 42 297 q 113 38 42 96 q 306 -21 185 -21 m 235 204 q 258 254 235 233 q 325 279 281 275 l 469 292 l 469 260 q 431 168 469 200 q 332 136 392 136 q 260 154 285 136 q 235 204 235 172 m 158 938 l 158 814 l 596 814 l 596 938 l 158 938 "},"ą":{"ha":758,"x_min":42,"x_max":732,"o":"m 306 -21 q 430 3 375 -21 q 514 68 485 26 q 531 24 517 40 q 447 -60 474 -19 q 419 -146 419 -101 q 463 -236 419 -203 q 579 -269 506 -269 l 668 -269 l 668 -151 l 617 -151 q 564 -110 564 -151 q 585 -62 564 -89 q 646 0 607 -35 l 732 0 l 732 154 l 671 154 q 653 174 653 154 l 653 478 q 581 647 653 586 q 383 707 510 707 q 75 486 97 707 l 267 486 q 296 535 272 519 q 369 550 319 550 q 446 530 422 550 q 469 465 469 510 l 469 436 l 293 425 q 106 357 169 417 q 42 197 42 297 q 113 38 42 96 q 306 -21 185 -21 m 235 204 q 258 254 235 233 q 325 279 281 275 l 469 292 l 469 260 q 431 168 469 200 q 332 136 392 136 q 260 154 285 136 q 235 204 235 172 "},"å":{"ha":758,"x_min":42,"x_max":732,"o":"m 306 -21 q 430 3 375 -21 q 514 68 485 26 q 537 18 517 36 q 593 0 557 0 l 732 0 l 732 154 l 671 154 q 653 174 653 154 l 653 478 q 581 647 653 586 q 383 707 510 707 q 75 486 97 707 l 267 486 q 296 535 272 519 q 369 550 319 550 q 446 530 422 550 q 469 465 469 510 l 469 436 l 293 425 q 106 357 169 417 q 42 197 42 297 q 113 38 42 96 q 306 -21 185 -21 m 235 204 q 258 254 235 233 q 325 279 281 275 l 469 292 l 469 260 q 431 168 469 200 q 332 136 392 136 q 260 154 285 136 q 235 204 235 172 m 376 749 q 499 795 451 749 q 547 913 547 842 q 499 1031 547 985 q 376 1078 451 1078 q 255 1031 303 1078 q 207 913 207 985 q 255 795 207 842 q 376 749 303 749 m 314 913 q 331 960 314 942 q 376 978 349 978 q 422 960 404 978 q 440 913 440 942 q 422 866 440 883 q 376 849 404 849 q 331 867 349 849 q 314 913 314 885 "},"ã":{"ha":758,"x_min":42,"x_max":732,"o":"m 306 -21 q 430 3 375 -21 q 514 68 485 26 q 537 18 517 36 q 593 0 557 0 l 732 0 l 732 154 l 671 154 q 653 174 653 154 l 653 478 q 581 647 653 586 q 383 707 510 707 q 75 486 97 707 l 267 486 q 296 535 272 519 q 369 550 319 550 q 446 530 422 550 q 469 465 469 510 l 469 436 l 293 425 q 106 357 169 417 q 42 197 42 297 q 113 38 42 96 q 306 -21 185 -21 m 235 204 q 258 254 235 233 q 325 279 281 275 l 469 292 l 469 260 q 431 168 469 200 q 332 136 392 136 q 260 154 285 136 q 235 204 235 172 m 490 781 q 592 814 550 781 q 633 929 633 847 l 633 981 l 519 981 l 519 958 q 508 928 519 938 q 476 918 496 918 q 404 942 449 918 l 367 963 q 265 989 314 989 q 164 956 206 989 q 122 840 122 922 l 122 788 l 236 788 l 236 811 q 248 842 236 832 q 279 851 260 851 q 312 845 296 851 q 350 828 328 839 l 389 807 q 490 781 442 781 "},"ć":{"ha":763,"x_min":53,"x_max":728,"o":"m 396 -21 q 563 17 490 -21 q 678 118 636 56 q 728 254 719 181 l 532 254 q 490 181 524 208 q 403 154 456 154 q 294 204 335 154 q 253 342 253 254 q 294 481 253 431 q 404 532 335 532 q 488 507 456 532 q 529 446 521 482 l 725 446 q 628 635 715 564 q 407 707 542 707 q 222 660 301 707 q 97 531 142 614 q 53 340 53 447 q 94 154 53 236 q 214 26 136 72 q 396 -21 292 -21 m 429 989 l 335 783 l 500 783 l 608 989 l 429 989 "},"č":{"ha":763,"x_min":53,"x_max":728,"o":"m 396 -21 q 563 17 490 -21 q 678 118 636 56 q 728 254 719 181 l 532 254 q 490 181 524 208 q 403 154 456 154 q 294 204 335 154 q 253 342 253 254 q 294 481 253 431 q 404 532 335 532 q 488 507 456 532 q 529 446 521 482 l 725 446 q 628 635 715 564 q 407 707 542 707 q 222 660 301 707 q 97 531 142 614 q 53 340 53 447 q 94 154 53 236 q 214 26 136 72 q 396 -21 292 -21 m 189 989 l 294 783 l 533 783 l 639 989 l 474 989 l 415 858 l 354 989 l 189 989 "},"ç":{"ha":763,"x_min":53,"x_max":728,"o":"m 226 -175 l 226 -269 l 354 -269 q 471 -233 424 -269 q 518 -143 518 -196 q 444 -40 518 -64 l 456 -17 q 644 77 572 0 q 728 254 717 154 l 532 254 q 490 181 524 208 q 403 154 456 154 q 294 204 335 154 q 253 342 253 254 q 294 481 253 431 q 404 532 335 532 q 488 507 456 532 q 529 446 521 482 l 725 446 q 628 635 715 564 q 407 707 542 707 q 222 660 301 707 q 97 531 142 614 q 53 340 53 447 q 128 100 53 197 q 338 -17 204 3 l 304 -103 l 350 -103 q 379 -112 368 -103 q 390 -135 390 -121 q 375 -164 390 -153 q 335 -175 360 -175 l 226 -175 "},"ĉ":{"ha":763,"x_min":53,"x_max":728,"o":"m 396 -21 q 563 17 490 -21 q 678 118 636 56 q 728 254 719 181 l 532 254 q 490 181 524 208 q 403 154 456 154 q 294 204 335 154 q 253 342 253 254 q 294 481 253 431 q 404 532 335 532 q 488 507 456 532 q 529 446 521 482 l 725 446 q 628 635 715 564 q 407 707 542 707 q 222 660 301 707 q 97 531 142 614 q 53 340 53 447 q 94 154 53 236 q 214 26 136 72 q 396 -21 292 -21 m 294 989 l 189 783 l 354 783 l 414 915 l 474 783 l 639 783 l 533 989 l 294 989 "},"ċ":{"ha":763,"x_min":53,"x_max":728,"o":"m 396 -21 q 563 17 490 -21 q 678 118 636 56 q 728 254 719 181 l 532 254 q 490 181 524 208 q 403 154 456 154 q 294 204 335 154 q 253 342 253 254 q 294 481 253 431 q 404 532 335 532 q 488 507 456 532 q 529 446 521 482 l 725 446 q 628 635 715 564 q 407 707 542 707 q 222 660 301 707 q 97 531 142 614 q 53 340 53 447 q 94 154 53 236 q 214 26 136 72 q 396 -21 292 -21 m 313 969 l 313 789 l 517 789 l 517 969 l 313 969 "},"ď":{"ha":863,"x_min":53,"x_max":1018,"o":"m 382 -21 q 506 2 449 -21 q 596 67 563 25 l 596 0 l 765 0 l 765 972 l 572 972 l 572 633 q 491 688 542 668 q 382 707 440 707 q 210 662 285 707 q 94 534 136 617 q 53 343 53 451 q 94 152 53 235 q 210 24 136 69 q 382 -21 285 -21 m 253 343 q 297 480 253 428 q 414 532 342 532 q 531 480 486 532 q 575 343 575 428 q 531 206 575 258 q 414 154 486 154 q 297 206 342 154 q 253 343 253 258 m 839 972 l 818 753 l 961 753 l 1018 972 l 839 972 "},"đ":{"ha":863,"x_min":53,"x_max":839,"o":"m 382 -21 q 506 2 449 -21 q 596 67 563 25 l 596 0 l 765 0 l 765 758 l 839 758 l 839 876 l 765 876 l 765 972 l 572 972 l 572 876 l 364 876 l 364 758 l 572 758 l 572 633 q 491 688 542 668 q 382 707 440 707 q 210 662 285 707 q 94 534 136 617 q 53 343 53 451 q 94 152 53 235 q 210 24 136 69 q 382 -21 285 -21 m 253 343 q 297 480 253 428 q 414 532 342 532 q 531 480 486 532 q 575 343 575 428 q 531 206 575 258 q 414 154 486 154 q 297 206 342 154 q 253 343 253 258 "},"é":{"ha":781,"x_min":53,"x_max":735,"o":"m 401 -21 q 610 39 529 -21 q 722 204 690 99 l 524 204 q 479 158 510 175 q 403 140 449 140 q 292 175 333 140 q 244 274 250 210 l 731 274 q 735 353 735 318 q 644 612 735 517 q 394 707 553 707 q 217 663 294 707 q 96 536 139 618 q 53 347 53 454 q 96 154 53 238 q 218 25 139 71 q 401 -21 297 -21 m 539 421 l 243 421 q 288 518 247 482 q 394 554 328 554 q 501 519 464 554 q 539 424 539 483 l 539 421 m 421 989 l 326 783 l 492 783 l 600 989 l 421 989 "},"ĕ":{"ha":781,"x_min":53,"x_max":735,"o":"m 401 -21 q 610 39 529 -21 q 722 204 690 99 l 524 204 q 479 158 510 175 q 403 140 449 140 q 292 175 333 140 q 244 274 250 210 l 731 274 q 735 353 735 318 q 644 612 735 517 q 394 707 553 707 q 217 663 294 707 q 96 536 139 618 q 53 347 53 454 q 96 154 53 238 q 218 25 139 71 q 401 -21 297 -21 m 539 421 l 243 421 q 288 518 247 482 q 394 554 328 554 q 501 519 464 554 q 539 424 539 483 l 539 421 m 406 778 q 566 831 511 778 q 621 989 621 885 l 479 989 q 461 922 479 943 q 406 900 443 900 q 350 922 368 900 q 332 989 332 943 l 190 989 q 245 831 190 885 q 406 778 300 778 "},"ě":{"ha":781,"x_min":53,"x_max":735,"o":"m 401 -21 q 610 39 529 -21 q 722 204 690 99 l 524 204 q 479 158 510 175 q 403 140 449 140 q 292 175 333 140 q 244 274 250 210 l 731 274 q 735 353 735 318 q 644 612 735 517 q 394 707 553 707 q 217 663 294 707 q 96 536 139 618 q 53 347 53 454 q 96 154 53 238 q 218 25 139 71 q 401 -21 297 -21 m 539 421 l 243 421 q 288 518 247 482 q 394 554 328 554 q 501 519 464 554 q 539 424 539 483 l 539 421 m 181 989 l 286 783 l 525 783 l 631 989 l 465 989 l 407 858 l 346 989 l 181 989 "},"ê":{"ha":781,"x_min":53,"x_max":735,"o":"m 401 -21 q 610 39 529 -21 q 722 204 690 99 l 524 204 q 479 158 510 175 q 403 140 449 140 q 292 175 333 140 q 244 274 250 210 l 731 274 q 735 353 735 318 q 644 612 735 517 q 394 707 553 707 q 217 663 294 707 q 96 536 139 618 q 53 347 53 454 q 96 154 53 238 q 218 25 139 71 q 401 -21 297 -21 m 539 421 l 243 421 q 288 518 247 482 q 394 554 328 554 q 501 519 464 554 q 539 424 539 483 l 539 421 m 286 989 l 181 783 l 346 783 l 406 915 l 465 783 l 631 783 l 525 989 l 286 989 "},"ë":{"ha":781,"x_min":53,"x_max":735,"o":"m 401 -21 q 610 39 529 -21 q 722 204 690 99 l 524 204 q 479 158 510 175 q 403 140 449 140 q 292 175 333 140 q 244 274 250 210 l 731 274 q 735 353 735 318 q 644 612 735 517 q 394 707 553 707 q 217 663 294 707 q 96 536 139 618 q 53 347 53 454 q 96 154 53 238 q 218 25 139 71 q 401 -21 297 -21 m 539 421 l 243 421 q 288 518 247 482 q 394 554 328 554 q 501 519 464 554 q 539 424 539 483 l 539 421 m 447 969 l 447 789 l 618 789 l 618 969 l 447 969 m 194 969 l 194 789 l 365 789 l 365 969 l 194 969 "},"ė":{"ha":781,"x_min":53,"x_max":735,"o":"m 401 -21 q 610 39 529 -21 q 722 204 690 99 l 524 204 q 479 158 510 175 q 403 140 449 140 q 292 175 333 140 q 244 274 250 210 l 731 274 q 735 353 735 318 q 644 612 735 517 q 394 707 553 707 q 217 663 294 707 q 96 536 139 618 q 53 347 53 454 q 96 154 53 238 q 218 25 139 71 q 401 -21 297 -21 m 539 421 l 243 421 q 288 518 247 482 q 394 554 328 554 q 501 519 464 554 q 539 424 539 483 l 539 421 m 304 969 l 304 789 l 508 789 l 508 969 l 304 969 "},"ẹ":{"ha":781,"x_min":53,"x_max":735,"o":"m 401 -21 q 610 39 529 -21 q 722 204 690 99 l 524 204 q 479 158 510 175 q 403 140 449 140 q 292 175 333 140 q 244 274 250 210 l 731 274 q 735 353 735 318 q 644 612 735 517 q 394 707 553 707 q 217 663 294 707 q 96 536 139 618 q 53 347 53 454 q 96 154 53 238 q 218 25 139 71 q 401 -21 297 -21 m 539 421 l 243 421 q 288 518 247 482 q 394 554 328 554 q 501 519 464 554 q 539 424 539 483 l 539 421 m 308 -71 l 308 -250 l 513 -250 l 513 -71 l 308 -71 "},"è":{"ha":781,"x_min":53,"x_max":735,"o":"m 401 -21 q 610 39 529 -21 q 722 204 690 99 l 524 204 q 479 158 510 175 q 403 140 449 140 q 292 175 333 140 q 244 274 250 210 l 731 274 q 735 353 735 318 q 644 612 735 517 q 394 707 553 707 q 217 663 294 707 q 96 536 139 618 q 53 347 53 454 q 96 154 53 238 q 218 25 139 71 q 401 -21 297 -21 m 539 421 l 243 421 q 288 518 247 482 q 394 554 328 554 q 501 519 464 554 q 539 424 539 483 l 539 421 m 207 989 l 315 783 l 481 783 l 385 989 l 207 989 "},"ē":{"ha":781,"x_min":53,"x_max":735,"o":"m 401 -21 q 610 39 529 -21 q 722 204 690 99 l 524 204 q 479 158 510 175 q 403 140 449 140 q 292 175 333 140 q 244 274 250 210 l 731 274 q 735 353 735 318 q 644 612 735 517 q 394 707 553 707 q 217 663 294 707 q 96 536 139 618 q 53 347 53 454 q 96 154 53 238 q 218 25 139 71 q 401 -21 297 -21 m 539 421 l 243 421 q 288 518 247 482 q 394 554 328 554 q 501 519 464 554 q 539 424 539 483 l 539 421 m 186 938 l 186 814 l 624 814 l 624 938 l 186 938 "},"ę":{"ha":781,"x_min":53,"x_max":735,"o":"m 481 -269 l 569 -269 l 569 -151 l 518 -151 q 465 -110 465 -151 q 560 10 465 -68 q 722 204 681 65 l 524 204 q 479 158 510 175 q 403 140 449 140 q 292 175 333 140 q 244 274 250 210 l 731 274 q 735 353 735 318 q 644 612 735 517 q 394 707 553 707 q 217 663 294 707 q 96 536 139 618 q 53 347 53 454 q 94 159 53 240 q 209 31 135 78 q 382 -21 283 -17 q 321 -146 321 -82 q 364 -236 321 -203 q 481 -269 407 -269 m 539 421 l 243 421 q 288 518 247 482 q 394 554 328 554 q 501 519 464 554 q 539 424 539 483 l 539 421 "},"ẽ":{"ha":781,"x_min":53,"x_max":735,"o":"m 401 -21 q 610 39 529 -21 q 722 204 690 99 l 524 204 q 479 158 510 175 q 403 140 449 140 q 292 175 333 140 q 244 274 250 210 l 731 274 q 735 353 735 318 q 644 612 735 517 q 394 707 553 707 q 217 663 294 707 q 96 536 139 618 q 53 347 53 454 q 96 154 53 238 q 218 25 139 71 q 401 -21 297 -21 m 539 421 l 243 421 q 288 518 247 482 q 394 554 328 554 q 501 519 464 554 q 539 424 539 483 l 539 421 m 518 781 q 619 814 578 781 q 661 929 661 847 l 661 981 l 547 981 l 547 958 q 535 928 547 938 q 504 918 524 918 q 432 942 476 918 l 394 963 q 293 989 342 989 q 192 956 233 989 q 150 840 150 922 l 150 788 l 264 788 l 264 811 q 276 842 264 832 q 307 851 288 851 q 340 845 324 851 q 378 828 356 839 l 417 807 q 518 781 469 781 "},"ğ":{"ha":804,"x_min":26,"x_max":788,"o":"m 247 -250 l 496 -250 q 671 -193 614 -250 q 728 -42 728 -136 q 668 94 728 44 q 499 143 608 143 l 264 143 q 231 153 243 143 q 218 182 218 164 q 230 212 218 201 q 264 222 242 222 l 374 222 q 570 285 494 222 q 646 457 646 349 l 646 490 q 669 517 646 517 l 788 517 l 788 686 l 685 686 q 622 667 647 686 q 597 600 597 649 l 597 579 q 508 672 574 636 q 363 707 443 707 q 210 676 274 707 q 113 592 146 644 q 79 472 79 539 q 100 381 79 424 q 161 307 121 339 q 79 253 106 289 q 53 174 53 217 q 67 111 53 140 q 110 63 82 82 q 48 3 69 39 q 26 -75 26 -32 q 81 -201 26 -151 q 247 -250 136 -250 m 208 -54 q 226 -15 208 -29 q 275 0 243 0 l 483 0 q 528 -14 511 0 q 544 -51 544 -28 q 526 -92 544 -78 q 481 -107 508 -107 l 274 -107 q 225 -93 242 -107 q 208 -54 208 -79 m 260 464 q 288 535 260 508 q 363 561 315 561 q 436 535 408 561 q 464 464 464 508 q 436 394 464 421 q 363 368 408 368 q 288 394 315 368 q 260 464 260 421 m 364 778 q 524 831 469 778 q 579 989 579 885 l 438 989 q 419 922 438 943 q 364 900 401 900 q 308 922 326 900 q 290 989 290 943 l 149 989 q 203 831 149 885 q 364 778 258 778 "},"ǧ":{"ha":804,"x_min":26,"x_max":788,"o":"m 247 -250 l 496 -250 q 671 -193 614 -250 q 728 -42 728 -136 q 668 94 728 44 q 499 143 608 143 l 264 143 q 231 153 243 143 q 218 182 218 164 q 230 212 218 201 q 264 222 242 222 l 374 222 q 570 285 494 222 q 646 457 646 349 l 646 490 q 669 517 646 517 l 788 517 l 788 686 l 685 686 q 622 667 647 686 q 597 600 597 649 l 597 579 q 508 672 574 636 q 363 707 443 707 q 210 676 274 707 q 113 592 146 644 q 79 472 79 539 q 100 381 79 424 q 161 307 121 339 q 79 253 106 289 q 53 174 53 217 q 67 111 53 140 q 110 63 82 82 q 48 3 69 39 q 26 -75 26 -32 q 81 -201 26 -151 q 247 -250 136 -250 m 208 -54 q 226 -15 208 -29 q 275 0 243 0 l 483 0 q 528 -14 511 0 q 544 -51 544 -28 q 526 -92 544 -78 q 481 -107 508 -107 l 274 -107 q 225 -93 242 -107 q 208 -54 208 -79 m 260 464 q 288 535 260 508 q 363 561 315 561 q 436 535 408 561 q 464 464 464 508 q 436 394 464 421 q 363 368 408 368 q 288 394 315 368 q 260 464 260 421 m 138 989 l 243 783 l 482 783 l 588 989 l 422 989 l 364 858 l 303 989 l 138 989 "},"ĝ":{"ha":804,"x_min":26,"x_max":788,"o":"m 247 -250 l 496 -250 q 671 -193 614 -250 q 728 -42 728 -136 q 668 94 728 44 q 499 143 608 143 l 264 143 q 231 153 243 143 q 218 182 218 164 q 230 212 218 201 q 264 222 242 222 l 374 222 q 570 285 494 222 q 646 457 646 349 l 646 490 q 669 517 646 517 l 788 517 l 788 686 l 685 686 q 622 667 647 686 q 597 600 597 649 l 597 579 q 508 672 574 636 q 363 707 443 707 q 210 676 274 707 q 113 592 146 644 q 79 472 79 539 q 100 381 79 424 q 161 307 121 339 q 79 253 106 289 q 53 174 53 217 q 67 111 53 140 q 110 63 82 82 q 48 3 69 39 q 26 -75 26 -32 q 81 -201 26 -151 q 247 -250 136 -250 m 208 -54 q 226 -15 208 -29 q 275 0 243 0 l 483 0 q 528 -14 511 0 q 544 -51 544 -28 q 526 -92 544 -78 q 481 -107 508 -107 l 274 -107 q 225 -93 242 -107 q 208 -54 208 -79 m 260 464 q 288 535 260 508 q 363 561 315 561 q 436 535 408 561 q 464 464 464 508 q 436 394 464 421 q 363 368 408 368 q 288 394 315 368 q 260 464 260 421 m 243 989 l 138 783 l 303 783 l 363 915 l 422 783 l 588 783 l 482 989 l 243 989 "},"ģ":{"ha":804,"x_min":26,"x_max":788,"o":"m 247 -250 l 496 -250 q 671 -193 614 -250 q 728 -42 728 -136 q 668 94 728 44 q 499 143 608 143 l 264 143 q 231 153 243 143 q 218 182 218 164 q 230 212 218 201 q 264 222 242 222 l 374 222 q 570 285 494 222 q 646 457 646 349 l 646 490 q 669 517 646 517 l 788 517 l 788 686 l 685 686 q 622 667 647 686 q 597 600 597 649 l 597 579 q 508 672 574 636 q 363 707 443 707 q 210 676 274 707 q 113 592 146 644 q 79 472 79 539 q 100 381 79 424 q 161 307 121 339 q 79 253 106 289 q 53 174 53 217 q 67 111 53 140 q 110 63 82 82 q 48 3 69 39 q 26 -75 26 -32 q 81 -201 26 -151 q 247 -250 136 -250 m 208 -54 q 226 -15 208 -29 q 275 0 243 0 l 483 0 q 528 -14 511 0 q 544 -51 544 -28 q 526 -92 544 -78 q 481 -107 508 -107 l 274 -107 q 225 -93 242 -107 q 208 -54 208 -79 m 260 464 q 288 535 260 508 q 363 561 315 561 q 436 535 408 561 q 464 464 464 508 q 436 394 464 421 q 363 368 408 368 q 288 394 315 368 q 260 464 260 421 m 263 953 l 263 767 l 460 767 l 460 903 l 372 903 l 372 940 q 376 956 372 951 q 392 961 381 961 l 460 961 l 460 1035 l 371 1035 q 291 1015 319 1035 q 263 953 263 994 "},"ġ":{"ha":804,"x_min":26,"x_max":788,"o":"m 247 -250 l 496 -250 q 671 -193 614 -250 q 728 -42 728 -136 q 668 94 728 44 q 499 143 608 143 l 264 143 q 231 153 243 143 q 218 182 218 164 q 230 212 218 201 q 264 222 242 222 l 374 222 q 570 285 494 222 q 646 457 646 349 l 646 490 q 669 517 646 517 l 788 517 l 788 686 l 685 686 q 622 667 647 686 q 597 600 597 649 l 597 579 q 508 672 574 636 q 363 707 443 707 q 210 676 274 707 q 113 592 146 644 q 79 472 79 539 q 100 381 79 424 q 161 307 121 339 q 79 253 106 289 q 53 174 53 217 q 67 111 53 140 q 110 63 82 82 q 48 3 69 39 q 26 -75 26 -32 q 81 -201 26 -151 q 247 -250 136 -250 m 208 -54 q 226 -15 208 -29 q 275 0 243 0 l 483 0 q 528 -14 511 0 q 544 -51 544 -28 q 526 -92 544 -78 q 481 -107 508 -107 l 274 -107 q 225 -93 242 -107 q 208 -54 208 -79 m 260 464 q 288 535 260 508 q 363 561 315 561 q 436 535 408 561 q 464 464 464 508 q 436 394 464 421 q 363 368 408 368 q 288 394 315 368 q 260 464 260 421 m 261 969 l 261 789 l 465 789 l 465 969 l 261 969 "},"ħ":{"ha":815,"x_min":28,"x_max":733,"o":"m 96 758 l 96 0 l 290 0 l 290 390 q 325 494 290 456 q 419 532 360 532 q 539 396 539 532 l 539 0 l 733 0 l 733 417 q 660 630 733 553 q 460 707 586 707 q 365 690 410 707 q 290 643 321 674 l 290 758 l 503 758 l 503 876 l 290 876 l 290 972 l 96 972 l 96 876 l 28 876 l 28 758 l 96 758 "},"ĥ":{"ha":815,"x_min":96,"x_max":733,"o":"m 96 972 l 96 0 l 290 0 l 290 390 q 325 494 290 456 q 419 532 360 532 q 539 396 539 532 l 539 0 l 733 0 l 733 417 q 660 630 733 553 q 460 707 586 707 q 365 690 410 707 q 290 643 321 674 l 290 972 l 96 972 m 297 1225 l 189 1049 l 350 1049 l 400 1150 l 450 1049 l 611 1049 l 503 1225 l 297 1225 "},"í":{"ha":386,"x_min":96,"x_max":388,"o":"m 96 686 l 96 0 l 290 0 l 290 686 l 96 686 m 208 989 l 114 783 l 279 783 l 388 989 l 208 989 "},"ĭ":{"ha":386,"x_min":-22,"x_max":408,"o":"m 96 686 l 96 0 l 290 0 l 290 686 l 96 686 m 193 778 q 353 831 299 778 q 408 989 408 885 l 267 989 q 249 922 267 943 q 193 900 231 900 q 138 922 156 900 q 119 989 119 943 l -22 989 q 33 831 -22 885 q 193 778 88 778 "},"î":{"ha":386,"x_min":-32,"x_max":418,"o":"m 96 686 l 96 0 l 290 0 l 290 686 l 96 686 m 74 989 l -32 783 l 133 783 l 193 915 l 253 783 l 418 783 l 313 989 l 74 989 "},"ï":{"ha":386,"x_min":-19,"x_max":404,"o":"m 96 686 l 96 0 l 290 0 l 290 686 l 96 686 m 233 969 l 233 789 l 404 789 l 404 969 l 233 969 m -19 969 l -19 789 l 151 789 l 151 969 l -19 969 "},"ị":{"ha":386,"x_min":90,"x_max":294,"o":"m 96 686 l 96 0 l 290 0 l 290 686 l 96 686 m 90 969 l 90 789 l 294 789 l 294 969 l 90 969 m 90 -71 l 90 -250 l 294 -250 l 294 -71 l 90 -71 "},"ı":{"ha":386,"x_min":96,"x_max":290,"o":"m 96 686 l 96 0 l 290 0 l 290 686 l 96 686 "},"ì":{"ha":386,"x_min":-7,"x_max":290,"o":"m 96 686 l 96 0 l 290 0 l 290 686 l 96 686 m -7 989 l 101 783 l 267 783 l 171 989 l -7 989 "},"ĳ":{"ha":778,"x_min":90,"x_max":688,"o":"m 96 686 l 96 0 l 290 0 l 290 686 l 96 686 m 90 969 l 90 789 l 294 789 l 294 969 l 90 969 m 353 -76 l 353 -250 l 468 -250 q 626 -201 569 -250 q 682 -50 682 -151 l 682 686 l 489 686 l 489 -24 q 481 -65 489 -54 q 450 -76 472 -76 l 353 -76 m 483 969 l 483 789 l 688 789 l 688 969 l 483 969 "},"ī":{"ha":386,"x_min":-26,"x_max":411,"o":"m 96 686 l 96 0 l 290 0 l 290 686 l 96 686 m -26 938 l -26 814 l 411 814 l 411 938 l -26 938 "},"į":{"ha":386,"x_min":-26,"x_max":294,"o":"m 90 969 l 90 789 l 294 789 l 294 969 l 90 969 m -26 -146 q 17 -236 -26 -203 q 133 -269 60 -269 l 222 -269 l 222 -151 l 171 -151 q 118 -110 118 -151 q 140 -62 118 -89 q 200 0 161 -35 l 290 0 l 290 686 l 96 686 l 96 32 q 3 -57 33 -14 q -26 -146 -26 -100 "},"ĩ":{"ha":386,"x_min":-62,"x_max":449,"o":"m 96 686 l 96 0 l 290 0 l 290 686 l 96 686 m 306 781 q 407 814 365 781 q 449 929 449 847 l 449 981 l 335 981 l 335 958 q 323 928 335 938 q 292 918 311 918 q 219 942 264 918 l 182 963 q 81 989 129 989 q -21 956 21 989 q -62 840 -62 922 l -62 788 l 51 788 l 51 811 q 63 842 51 832 q 94 851 75 851 q 127 845 111 851 q 165 828 143 839 l 204 807 q 306 781 257 781 "},"ĵ":{"ha":394,"x_min":-31,"x_max":426,"o":"m -31 -76 l -31 -250 l 85 -250 q 242 -201 186 -250 q 299 -50 299 -151 l 299 686 l 106 686 l 106 -24 q 97 -65 106 -54 q 67 -76 89 -76 l -31 -76 m 82 989 l -24 783 l 142 783 l 201 915 l 261 783 l 426 783 l 321 989 l 82 989 "},"ȷ":{"ha":394,"x_min":-31,"x_max":299,"o":"m -31 -76 l -31 -250 l 85 -250 q 242 -201 186 -250 q 299 -50 299 -151 l 299 686 l 106 686 l 106 -24 q 97 -65 106 -54 q 67 -76 89 -76 l -31 -76 "},"ķ":{"ha":783,"x_min":96,"x_max":767,"o":"m 350 282 l 535 0 l 767 0 l 518 375 l 767 686 l 531 686 l 350 458 l 290 458 l 290 972 l 96 972 l 96 0 l 290 0 l 290 282 l 350 282 m 303 -203 l 303 -268 l 392 -268 q 473 -249 446 -268 q 500 -176 500 -229 l 500 -47 l 303 -47 l 303 -165 l 390 -165 l 390 -187 q 371 -203 390 -203 l 303 -203 "},"ĸ":{"ha":783,"x_min":96,"x_max":767,"o":"m 350 282 l 535 0 l 767 0 l 518 375 l 767 686 l 531 686 l 350 458 l 290 458 l 290 686 l 96 686 l 96 0 l 290 0 l 290 282 l 350 282 "},"ĺ":{"ha":438,"x_min":96,"x_max":408,"o":"m 250 0 l 408 0 l 408 169 l 333 169 q 300 180 310 169 q 290 213 290 190 l 290 972 l 96 972 l 96 143 q 133 33 96 67 q 250 0 169 0 m 190 1225 l 108 1049 l 285 1049 l 379 1225 l 190 1225 "},"ľ":{"ha":438,"x_min":96,"x_max":543,"o":"m 250 0 l 408 0 l 408 169 l 333 169 q 300 180 310 169 q 290 213 290 190 l 290 972 l 96 972 l 96 143 q 133 33 96 67 q 250 0 169 0 m 364 972 l 343 753 l 486 753 l 543 972 l 364 972 "},"ļ":{"ha":438,"x_min":96,"x_max":408,"o":"m 250 0 l 408 0 l 408 169 l 333 169 q 300 180 310 169 q 290 213 290 190 l 290 972 l 96 972 l 96 143 q 133 33 96 67 q 250 0 169 0 m 165 -203 l 165 -268 l 254 -268 q 335 -249 308 -268 q 363 -176 363 -229 l 363 -47 l 165 -47 l 165 -165 l 253 -165 l 253 -187 q 233 -203 253 -203 l 165 -203 "},"ŀ":{"ha":542,"x_min":96,"x_max":572,"o":"m 250 0 l 408 0 l 408 169 l 333 169 q 300 180 310 169 q 290 213 290 190 l 290 972 l 96 972 l 96 143 q 133 33 96 67 q 250 0 169 0 m 360 642 l 360 413 l 572 413 l 572 642 l 360 642 "},"ł":{"ha":438,"x_min":24,"x_max":408,"o":"m 250 0 l 408 0 l 408 169 l 333 169 q 300 180 310 169 q 290 213 290 190 l 290 460 l 385 518 l 385 678 l 290 619 l 290 972 l 96 972 l 96 499 l 24 454 l 24 297 l 96 342 l 96 143 q 133 33 96 67 q 250 0 169 0 "},"ń":{"ha":815,"x_min":96,"x_max":733,"o":"m 96 686 l 96 0 l 290 0 l 290 390 q 325 494 290 456 q 419 532 360 532 q 539 396 539 532 l 539 0 l 733 0 l 733 417 q 660 630 733 553 q 460 707 586 707 q 347 684 399 707 q 267 617 296 661 l 267 686 l 96 686 m 429 989 l 335 783 l 500 783 l 608 989 l 429 989 "},"ŉ":{"ha":1082,"x_min":63,"x_max":1000,"o":"m 63 678 l 63 571 l 158 571 q 242 600 213 571 q 271 689 271 629 l 271 974 l 63 974 l 63 763 l 165 763 l 165 692 q 144 678 165 678 l 63 678 m 363 686 l 363 0 l 557 0 l 557 390 q 592 494 557 456 q 686 532 626 532 q 806 396 806 532 l 806 0 l 1000 0 l 1000 417 q 926 630 1000 553 q 726 707 853 707 q 614 684 665 707 q 533 617 563 661 l 533 686 l 363 686 "},"ň":{"ha":815,"x_min":96,"x_max":733,"o":"m 96 686 l 96 0 l 290 0 l 290 390 q 325 494 290 456 q 419 532 360 532 q 539 396 539 532 l 539 0 l 733 0 l 733 417 q 660 630 733 553 q 460 707 586 707 q 347 684 399 707 q 267 617 296 661 l 267 686 l 96 686 m 188 989 l 293 783 l 532 783 l 638 989 l 472 989 l 414 858 l 353 989 l 188 989 "},"ņ":{"ha":815,"x_min":96,"x_max":733,"o":"m 96 686 l 96 0 l 290 0 l 290 390 q 325 494 290 456 q 419 532 360 532 q 539 396 539 532 l 539 0 l 733 0 l 733 417 q 660 630 733 553 q 460 707 586 707 q 347 684 399 707 q 267 617 296 661 l 267 686 l 96 686 m 315 -203 l 315 -268 l 404 -268 q 485 -249 458 -268 q 513 -176 513 -229 l 513 -47 l 315 -47 l 315 -165 l 403 -165 l 403 -187 q 383 -203 403 -203 l 315 -203 "},"ɲ":{"ha":815,"x_min":-60,"x_max":733,"o":"m 267 686 l 96 686 l 96 -35 q 80 -83 96 -65 q 32 -100 64 -100 l -60 -100 l -60 -264 l 85 -264 q 234 -208 178 -264 q 290 -58 290 -151 l 290 390 q 325 494 290 456 q 419 532 360 532 q 539 396 539 532 l 539 0 l 733 0 l 733 417 q 660 630 733 553 q 460 707 586 707 q 347 684 399 707 q 267 617 296 661 l 267 686 "},"ñ":{"ha":815,"x_min":96,"x_max":733,"o":"m 96 686 l 96 0 l 290 0 l 290 390 q 325 494 290 456 q 419 532 360 532 q 539 396 539 532 l 539 0 l 733 0 l 733 417 q 660 630 733 553 q 460 707 586 707 q 347 684 399 707 q 267 617 296 661 l 267 686 l 96 686 m 526 781 q 628 814 586 781 q 669 929 669 847 l 669 981 l 556 981 l 556 958 q 544 928 556 938 q 513 918 532 918 q 440 942 485 918 l 403 963 q 301 989 350 989 q 200 956 242 989 q 158 840 158 922 l 158 788 l 272 788 l 272 811 q 284 842 272 832 q 315 851 296 851 q 348 845 332 851 q 386 828 364 839 l 425 807 q 526 781 478 781 "},"ŋ":{"ha":815,"x_min":96,"x_max":733,"o":"m 96 686 l 96 0 l 290 0 l 290 390 q 325 494 290 456 q 419 532 360 532 q 539 396 539 532 l 539 -35 q 523 -83 539 -65 q 475 -100 507 -100 l 383 -100 l 383 -264 l 528 -264 q 677 -208 621 -264 q 733 -58 733 -151 l 733 417 q 660 630 733 553 q 460 707 586 707 q 347 684 399 707 q 267 617 296 661 l 267 686 l 96 686 "},"ó":{"ha":831,"x_min":53,"x_max":778,"o":"m 415 -21 q 603 24 521 -21 q 732 152 686 69 q 778 343 778 235 q 732 533 778 450 q 603 661 686 615 q 415 707 521 707 q 227 661 310 707 q 99 533 144 615 q 53 343 53 450 q 99 152 53 235 q 227 24 144 69 q 415 -21 310 -21 m 253 343 q 298 480 253 428 q 415 532 343 532 q 533 480 488 532 q 578 343 578 428 q 533 206 578 258 q 415 154 488 154 q 298 206 343 154 q 253 343 253 258 m 431 989 l 336 783 l 501 783 l 610 989 l 431 989 "},"ŏ":{"ha":831,"x_min":53,"x_max":778,"o":"m 415 -21 q 603 24 521 -21 q 732 152 686 69 q 778 343 778 235 q 732 533 778 450 q 603 661 686 615 q 415 707 521 707 q 227 661 310 707 q 99 533 144 615 q 53 343 53 450 q 99 152 53 235 q 227 24 144 69 q 415 -21 310 -21 m 253 343 q 298 480 253 428 q 415 532 343 532 q 533 480 488 532 q 578 343 578 428 q 533 206 578 258 q 415 154 488 154 q 298 206 343 154 q 253 343 253 258 m 415 778 q 576 831 521 778 q 631 989 631 885 l 489 989 q 471 922 489 943 q 415 900 453 900 q 360 922 378 900 q 342 989 342 943 l 200 989 q 255 831 200 885 q 415 778 310 778 "},"ô":{"ha":831,"x_min":53,"x_max":778,"o":"m 415 -21 q 603 24 521 -21 q 732 152 686 69 q 778 343 778 235 q 732 533 778 450 q 603 661 686 615 q 415 707 521 707 q 227 661 310 707 q 99 533 144 615 q 53 343 53 450 q 99 152 53 235 q 227 24 144 69 q 415 -21 310 -21 m 253 343 q 298 480 253 428 q 415 532 343 532 q 533 480 488 532 q 578 343 578 428 q 533 206 578 258 q 415 154 488 154 q 298 206 343 154 q 253 343 253 258 m 296 989 l 190 783 l 356 783 l 415 915 l 475 783 l 640 783 l 535 989 l 296 989 "},"ö":{"ha":831,"x_min":53,"x_max":778,"o":"m 415 -21 q 603 24 521 -21 q 732 152 686 69 q 778 343 778 235 q 732 533 778 450 q 603 661 686 615 q 415 707 521 707 q 227 661 310 707 q 99 533 144 615 q 53 343 53 450 q 99 152 53 235 q 227 24 144 69 q 415 -21 310 -21 m 253 343 q 298 480 253 428 q 415 532 343 532 q 533 480 488 532 q 578 343 578 428 q 533 206 578 258 q 415 154 488 154 q 298 206 343 154 q 253 343 253 258 m 456 969 l 456 789 l 626 789 l 626 969 l 456 969 m 203 969 l 203 789 l 374 789 l 374 969 l 203 969 "},"ọ":{"ha":831,"x_min":53,"x_max":778,"o":"m 415 -21 q 603 24 521 -21 q 732 152 686 69 q 778 343 778 235 q 732 533 778 450 q 603 661 686 615 q 415 707 521 707 q 227 661 310 707 q 99 533 144 615 q 53 343 53 450 q 99 152 53 235 q 227 24 144 69 q 415 -21 310 -21 m 253 343 q 298 480 253 428 q 415 532 343 532 q 533 480 488 532 q 578 343 578 428 q 533 206 578 258 q 415 154 488 154 q 298 206 343 154 q 253 343 253 258 m 314 -71 l 314 -250 l 518 -250 l 518 -71 l 314 -71 "},"œ":{"ha":1297,"x_min":53,"x_max":1251,"o":"m 401 -21 q 546 8 481 -21 q 656 90 611 36 q 769 8 701 36 q 919 -21 838 -21 q 1128 39 1047 -21 q 1240 204 1208 99 l 1040 204 q 997 158 1028 175 q 919 140 965 140 q 808 175 850 140 q 761 274 767 210 l 1247 274 q 1251 353 1251 318 q 1161 612 1251 517 q 913 707 1071 707 q 767 678 833 707 q 656 597 701 650 q 546 678 611 650 q 401 707 481 707 q 221 663 300 707 q 97 536 142 618 q 53 343 53 454 q 97 150 53 232 q 221 24 142 68 q 401 -21 300 -21 m 251 343 q 292 481 251 431 q 401 532 333 532 q 511 481 469 532 q 553 343 553 431 q 511 205 553 256 q 401 154 469 154 q 292 205 333 154 q 251 343 251 256 m 1057 421 l 760 421 q 804 518 764 482 q 913 554 844 554 q 1019 519 982 554 q 1057 424 1057 483 l 1057 421 "},"ò":{"ha":831,"x_min":53,"x_max":778,"o":"m 415 -21 q 603 24 521 -21 q 732 152 686 69 q 778 343 778 235 q 732 533 778 450 q 603 661 686 615 q 415 707 521 707 q 227 661 310 707 q 99 533 144 615 q 53 343 53 450 q 99 152 53 235 q 227 24 144 69 q 415 -21 310 -21 m 253 343 q 298 480 253 428 q 415 532 343 532 q 533 480 488 532 q 578 343 578 428 q 533 206 578 258 q 415 154 488 154 q 298 206 343 154 q 253 343 253 258 m 215 989 l 324 783 l 489 783 l 393 989 l 215 989 "},"ő":{"ha":831,"x_min":53,"x_max":778,"o":"m 415 -21 q 603 24 521 -21 q 732 152 686 69 q 778 343 778 235 q 732 533 778 450 q 603 661 686 615 q 415 707 521 707 q 227 661 310 707 q 99 533 144 615 q 53 343 53 450 q 99 152 53 235 q 227 24 144 69 q 415 -21 310 -21 m 253 343 q 298 480 253 428 q 415 532 343 532 q 533 480 488 532 q 578 343 578 428 q 533 206 578 258 q 415 154 488 154 q 298 206 343 154 q 253 343 253 258 m 319 989 l 247 783 l 376 783 l 461 989 l 319 989 m 536 989 l 464 783 l 593 783 l 678 989 l 536 989 "},"ō":{"ha":831,"x_min":53,"x_max":778,"o":"m 415 -21 q 603 24 521 -21 q 732 152 686 69 q 778 343 778 235 q 732 533 778 450 q 603 661 686 615 q 415 707 521 707 q 227 661 310 707 q 99 533 144 615 q 53 343 53 450 q 99 152 53 235 q 227 24 144 69 q 415 -21 310 -21 m 253 343 q 298 480 253 428 q 415 532 343 532 q 533 480 488 532 q 578 343 578 428 q 533 206 578 258 q 415 154 488 154 q 298 206 343 154 q 253 343 253 258 m 196 938 l 196 814 l 633 814 l 633 938 l 196 938 "},"ǫ":{"ha":831,"x_min":53,"x_max":778,"o":"m 415 154 q 298 206 343 154 q 253 343 253 258 q 298 480 253 428 q 415 532 343 532 q 533 480 488 532 q 578 343 578 428 q 533 206 578 258 q 415 154 488 154 m 53 343 q 96 158 53 239 q 217 30 139 76 q 396 -21 294 -17 q 335 -146 335 -82 q 378 -236 335 -203 q 494 -269 421 -269 l 583 -269 l 583 -151 l 532 -151 q 479 -110 479 -151 q 572 10 479 -68 q 723 138 668 50 q 778 343 778 225 q 732 533 778 450 q 603 661 686 615 q 415 707 521 707 q 227 661 310 707 q 99 533 144 615 q 53 343 53 450 "},"ø":{"ha":831,"x_min":53,"x_max":778,"o":"m 415 -21 q 603 24 521 -21 q 732 152 686 69 q 778 343 778 235 q 696 586 778 489 l 761 665 l 685 738 l 615 654 q 415 707 531 707 q 227 661 310 707 q 99 533 144 615 q 53 343 53 450 q 76 203 53 267 q 143 92 100 139 l 75 11 l 151 -61 l 225 26 q 415 -21 308 -21 m 253 343 q 298 480 253 428 q 415 532 343 532 q 494 511 461 532 l 272 246 q 253 343 253 289 m 344 169 l 563 429 q 578 343 578 390 q 533 206 578 258 q 415 154 488 154 q 344 169 378 154 "},"ǿ":{"ha":831,"x_min":53,"x_max":778,"o":"m 415 -21 q 603 24 521 -21 q 732 152 686 69 q 778 343 778 235 q 696 586 778 489 l 761 665 l 685 738 l 615 654 q 415 707 531 707 q 227 661 310 707 q 99 533 144 615 q 53 343 53 450 q 76 203 53 267 q 143 92 100 139 l 75 11 l 151 -61 l 225 26 q 415 -21 308 -21 m 253 343 q 298 480 253 428 q 415 532 343 532 q 494 511 461 532 l 272 246 q 253 343 253 289 m 344 169 l 563 429 q 578 343 578 390 q 533 206 578 258 q 415 154 488 154 q 344 169 378 154 m 431 989 l 336 783 l 501 783 l 610 989 l 431 989 "},"õ":{"ha":831,"x_min":53,"x_max":778,"o":"m 415 -21 q 603 24 521 -21 q 732 152 686 69 q 778 343 778 235 q 732 533 778 450 q 603 661 686 615 q 415 707 521 707 q 227 661 310 707 q 99 533 144 615 q 53 343 53 450 q 99 152 53 235 q 227 24 144 69 q 415 -21 310 -21 m 253 343 q 298 480 253 428 q 415 532 343 532 q 533 480 488 532 q 578 343 578 428 q 533 206 578 258 q 415 154 488 154 q 298 206 343 154 q 253 343 253 258 m 528 781 q 629 814 588 781 q 671 929 671 847 l 671 981 l 557 981 l 557 958 q 545 928 557 938 q 514 918 533 918 q 442 942 486 918 l 404 963 q 303 989 351 989 q 201 956 243 989 q 160 840 160 922 l 160 788 l 274 788 l 274 811 q 285 842 274 832 q 317 851 297 851 q 349 845 333 851 q 388 828 365 839 l 426 807 q 528 781 479 781 "},"ŕ":{"ha":569,"x_min":96,"x_max":549,"o":"m 96 686 l 96 0 l 290 0 l 290 400 q 403 517 290 517 l 549 517 l 549 686 l 426 686 q 320 655 361 686 q 267 565 279 624 l 267 686 l 96 686 m 347 989 l 253 783 l 418 783 l 526 989 l 347 989 "},"ř":{"ha":569,"x_min":96,"x_max":557,"o":"m 96 686 l 96 0 l 290 0 l 290 400 q 403 517 290 517 l 549 517 l 549 686 l 426 686 q 320 655 361 686 q 267 565 279 624 l 267 686 l 96 686 m 107 989 l 213 783 l 451 783 l 557 989 l 392 989 l 333 858 l 272 989 l 107 989 "},"ŗ":{"ha":569,"x_min":94,"x_max":549,"o":"m 96 686 l 96 0 l 290 0 l 290 400 q 403 517 290 517 l 549 517 l 549 686 l 426 686 q 320 655 361 686 q 267 565 279 624 l 267 686 l 96 686 m 94 -203 l 94 -268 l 183 -268 q 265 -249 238 -268 q 292 -176 292 -229 l 292 -47 l 94 -47 l 94 -165 l 182 -165 l 182 -187 q 163 -203 182 -203 l 94 -203 "},"ś":{"ha":699,"x_min":38,"x_max":653,"o":"m 349 -21 q 571 42 489 -21 q 653 211 653 104 q 598 353 653 297 q 447 419 543 410 l 336 432 q 249 492 249 443 q 274 537 249 521 q 346 553 300 553 q 454 486 450 553 l 646 486 q 561 651 639 596 q 349 707 483 707 q 138 647 215 707 q 60 481 60 586 q 116 337 60 393 q 268 269 172 281 l 376 258 q 458 200 458 250 q 431 151 458 169 q 357 133 403 133 q 238 204 246 133 l 38 204 q 124 37 43 94 q 349 -21 206 -21 m 363 989 l 268 783 l 433 783 l 542 989 l 363 989 "},"š":{"ha":699,"x_min":38,"x_max":653,"o":"m 349 -21 q 571 42 489 -21 q 653 211 653 104 q 598 353 653 297 q 447 419 543 410 l 336 432 q 249 492 249 443 q 274 537 249 521 q 346 553 300 553 q 454 486 450 553 l 646 486 q 561 651 639 596 q 349 707 483 707 q 138 647 215 707 q 60 481 60 586 q 116 337 60 393 q 268 269 172 281 l 376 258 q 458 200 458 250 q 431 151 458 169 q 357 133 403 133 q 238 204 246 133 l 38 204 q 124 37 43 94 q 349 -21 206 -21 m 121 989 l 226 783 l 465 783 l 571 989 l 406 989 l 347 858 l 286 989 l 121 989 "},"ş":{"ha":699,"x_min":38,"x_max":653,"o":"m 193 -175 l 193 -269 l 321 -269 q 438 -233 390 -269 q 485 -143 485 -196 q 411 -40 485 -64 l 422 -15 q 592 60 531 0 q 653 211 653 119 q 598 353 653 297 q 447 419 543 410 l 336 432 q 249 492 249 443 q 274 537 249 521 q 346 553 300 553 q 454 486 450 553 l 646 486 q 561 651 639 596 q 349 707 483 707 q 138 647 215 707 q 60 481 60 586 q 116 337 60 393 q 268 269 172 281 l 376 258 q 458 200 458 250 q 431 151 458 169 q 357 133 403 133 q 238 204 246 133 l 38 204 q 112 47 43 103 q 303 -19 181 -10 l 271 -103 l 317 -103 q 346 -112 335 -103 q 357 -135 357 -121 q 342 -164 357 -153 q 301 -175 326 -175 l 193 -175 "},"ŝ":{"ha":699,"x_min":38,"x_max":653,"o":"m 349 -21 q 571 42 489 -21 q 653 211 653 104 q 598 353 653 297 q 447 419 543 410 l 336 432 q 249 492 249 443 q 274 537 249 521 q 346 553 300 553 q 454 486 450 553 l 646 486 q 561 651 639 596 q 349 707 483 707 q 138 647 215 707 q 60 481 60 586 q 116 337 60 393 q 268 269 172 281 l 376 258 q 458 200 458 250 q 431 151 458 169 q 357 133 403 133 q 238 204 246 133 l 38 204 q 124 37 43 94 q 349 -21 206 -21 m 226 989 l 121 783 l 286 783 l 346 915 l 406 783 l 571 783 l 465 989 l 226 989 "},"ș":{"ha":699,"x_min":38,"x_max":653,"o":"m 349 -21 q 571 42 489 -21 q 653 211 653 104 q 598 353 653 297 q 447 419 543 410 l 336 432 q 249 492 249 443 q 274 537 249 521 q 346 553 300 553 q 454 486 450 553 l 646 486 q 561 651 639 596 q 349 707 483 707 q 138 647 215 707 q 60 481 60 586 q 116 337 60 393 q 268 269 172 281 l 376 258 q 458 200 458 250 q 431 151 458 169 q 357 133 403 133 q 238 204 246 133 l 38 204 q 124 37 43 94 q 349 -21 206 -21 m 272 -203 l 272 -268 l 361 -268 q 442 -249 415 -268 q 469 -176 469 -229 l 469 -47 l 272 -47 l 272 -165 l 360 -165 l 360 -187 q 340 -203 360 -203 l 272 -203 "},"ŧ":{"ha":614,"x_min":8,"x_max":578,"o":"m 363 0 l 578 0 l 578 169 l 433 169 q 388 184 401 169 q 374 229 374 199 l 374 308 l 533 308 l 533 426 l 374 426 l 374 517 l 578 517 l 578 686 l 374 686 l 374 885 l 179 885 l 179 686 l 8 686 l 8 517 l 179 517 l 179 426 l 58 426 l 58 308 l 179 308 l 179 182 q 223 42 179 85 q 363 0 267 0 "},"ť":{"ha":614,"x_min":8,"x_max":622,"o":"m 363 0 l 578 0 l 578 169 l 433 169 q 388 184 401 169 q 374 229 374 199 l 374 517 l 578 517 l 578 686 l 374 686 l 374 885 l 179 885 l 179 686 l 8 686 l 8 517 l 179 517 l 179 182 q 223 42 179 85 q 363 0 267 0 m 443 972 l 422 753 l 565 753 l 622 972 l 443 972 "},"ţ":{"ha":614,"x_min":8,"x_max":578,"o":"m 8 686 l 8 517 l 179 517 l 179 182 q 208 62 179 104 q 296 6 236 19 l 254 -103 l 300 -103 q 329 -112 318 -103 q 340 -135 340 -121 q 325 -164 340 -153 q 285 -175 310 -175 l 176 -175 l 176 -269 l 304 -269 q 421 -233 374 -269 q 468 -143 468 -196 q 394 -40 468 -64 l 413 0 l 578 0 l 578 169 l 433 169 q 388 184 401 169 q 374 229 374 199 l 374 517 l 578 517 l 578 686 l 374 686 l 374 885 l 179 885 l 179 686 l 8 686 "},"ț":{"ha":614,"x_min":8,"x_max":578,"o":"m 363 0 l 578 0 l 578 169 l 433 169 q 388 184 401 169 q 374 229 374 199 l 374 517 l 578 517 l 578 686 l 374 686 l 374 885 l 179 885 l 179 686 l 8 686 l 8 517 l 179 517 l 179 182 q 223 42 179 85 q 363 0 267 0 m 256 -203 l 256 -268 l 344 -268 q 426 -249 399 -268 q 453 -176 453 -229 l 453 -47 l 256 -47 l 256 -165 l 343 -165 l 343 -187 q 324 -203 343 -203 l 256 -203 "},"þ":{"ha":863,"x_min":96,"x_max":808,"o":"m 96 972 l 96 -250 l 290 -250 l 290 40 q 467 -21 363 -21 q 644 24 567 -21 q 765 152 722 69 q 808 343 808 235 q 765 533 808 450 q 644 661 722 615 q 467 707 567 707 q 290 647 363 707 l 290 972 l 96 972 m 288 343 q 331 480 288 428 q 447 532 375 532 q 564 480 519 532 q 608 343 608 428 q 564 206 608 258 q 447 154 519 154 q 331 206 375 154 q 288 343 288 258 "},"ú":{"ha":792,"x_min":78,"x_max":708,"o":"m 347 -21 q 456 -1 406 -21 q 538 56 506 18 l 538 0 l 708 0 l 708 686 l 514 686 l 514 296 q 481 192 514 231 q 388 154 447 154 q 271 290 271 154 l 271 686 l 78 686 l 78 269 q 150 56 78 133 q 347 -21 222 -21 m 407 989 l 313 783 l 478 783 l 586 989 l 407 989 "},"ŭ":{"ha":792,"x_min":78,"x_max":708,"o":"m 347 -21 q 456 -1 406 -21 q 538 56 506 18 l 538 0 l 708 0 l 708 686 l 514 686 l 514 296 q 481 192 514 231 q 388 154 447 154 q 271 290 271 154 l 271 686 l 78 686 l 78 269 q 150 56 78 133 q 347 -21 222 -21 m 393 778 q 553 831 499 778 q 608 989 608 885 l 467 989 q 449 922 467 943 q 393 900 431 900 q 338 922 356 900 q 319 989 319 943 l 178 989 q 233 831 178 885 q 393 778 288 778 "},"û":{"ha":792,"x_min":78,"x_max":708,"o":"m 347 -21 q 456 -1 406 -21 q 538 56 506 18 l 538 0 l 708 0 l 708 686 l 514 686 l 514 296 q 481 192 514 231 q 388 154 447 154 q 271 290 271 154 l 271 686 l 78 686 l 78 269 q 150 56 78 133 q 347 -21 222 -21 m 272 989 l 167 783 l 332 783 l 392 915 l 451 783 l 617 783 l 511 989 l 272 989 "},"ü":{"ha":792,"x_min":78,"x_max":708,"o":"m 347 -21 q 456 -1 406 -21 q 538 56 506 18 l 538 0 l 708 0 l 708 686 l 514 686 l 514 296 q 481 192 514 231 q 388 154 447 154 q 271 290 271 154 l 271 686 l 78 686 l 78 269 q 150 56 78 133 q 347 -21 222 -21 m 433 969 l 433 789 l 604 789 l 604 969 l 433 969 m 181 969 l 181 789 l 351 789 l 351 969 l 181 969 "},"ụ":{"ha":792,"x_min":78,"x_max":708,"o":"m 347 -21 q 456 -1 406 -21 q 538 56 506 18 l 538 0 l 708 0 l 708 686 l 514 686 l 514 296 q 481 192 514 231 q 388 154 447 154 q 271 290 271 154 l 271 686 l 78 686 l 78 269 q 150 56 78 133 q 347 -21 222 -21 m 313 -71 l 313 -250 l 517 -250 l 517 -71 l 313 -71 "},"ù":{"ha":792,"x_min":78,"x_max":708,"o":"m 347 -21 q 456 -1 406 -21 q 538 56 506 18 l 538 0 l 708 0 l 708 686 l 514 686 l 514 296 q 481 192 514 231 q 388 154 447 154 q 271 290 271 154 l 271 686 l 78 686 l 78 269 q 150 56 78 133 q 347 -21 222 -21 m 193 989 l 301 783 l 467 783 l 371 989 l 193 989 "},"ű":{"ha":792,"x_min":78,"x_max":708,"o":"m 347 -21 q 456 -1 406 -21 q 538 56 506 18 l 538 0 l 708 0 l 708 686 l 514 686 l 514 296 q 481 192 514 231 q 388 154 447 154 q 271 290 271 154 l 271 686 l 78 686 l 78 269 q 150 56 78 133 q 347 -21 222 -21 m 296 989 l 224 783 l 353 783 l 438 989 l 296 989 m 513 989 l 440 783 l 569 783 l 654 989 l 513 989 "},"ū":{"ha":792,"x_min":78,"x_max":708,"o":"m 347 -21 q 456 -1 406 -21 q 538 56 506 18 l 538 0 l 708 0 l 708 686 l 514 686 l 514 296 q 481 192 514 231 q 388 154 447 154 q 271 290 271 154 l 271 686 l 78 686 l 78 269 q 150 56 78 133 q 347 -21 222 -21 m 174 938 l 174 814 l 611 814 l 611 938 l 174 938 "},"ų":{"ha":792,"x_min":78,"x_max":708,"o":"m 347 -21 q 456 -1 406 -21 q 538 56 506 18 l 538 17 q 460 -65 486 -25 q 435 -146 435 -104 q 478 -236 435 -203 q 594 -269 521 -269 l 683 -269 l 683 -151 l 632 -151 q 579 -110 579 -151 q 601 -62 579 -89 q 661 0 622 -35 l 708 0 l 708 686 l 514 686 l 514 296 q 481 192 514 231 q 388 154 447 154 q 271 290 271 154 l 271 686 l 78 686 l 78 269 q 150 56 78 133 q 347 -21 222 -21 "},"ů":{"ha":792,"x_min":78,"x_max":708,"o":"m 347 -21 q 456 -1 406 -21 q 538 56 506 18 l 538 0 l 708 0 l 708 686 l 514 686 l 514 296 q 481 192 514 231 q 388 154 447 154 q 271 290 271 154 l 271 686 l 78 686 l 78 269 q 150 56 78 133 q 347 -21 222 -21 m 392 749 q 515 795 467 749 q 563 913 563 842 q 515 1031 563 985 q 392 1078 467 1078 q 270 1031 318 1078 q 222 913 222 985 q 270 795 222 842 q 392 749 318 749 m 329 913 q 347 960 329 942 q 392 978 364 978 q 438 960 419 978 q 456 913 456 942 q 438 866 456 883 q 392 849 419 849 q 347 867 364 849 q 329 913 329 885 "},"ũ":{"ha":792,"x_min":78,"x_max":708,"o":"m 347 -21 q 456 -1 406 -21 q 538 56 506 18 l 538 0 l 708 0 l 708 686 l 514 686 l 514 296 q 481 192 514 231 q 388 154 447 154 q 271 290 271 154 l 271 686 l 78 686 l 78 269 q 150 56 78 133 q 347 -21 222 -21 m 506 781 q 607 814 565 781 q 649 929 649 847 l 649 981 l 535 981 l 535 958 q 523 928 535 938 q 492 918 511 918 q 419 942 464 918 l 382 963 q 281 989 329 989 q 179 956 221 989 q 138 840 138 922 l 138 788 l 251 788 l 251 811 q 263 842 251 832 q 294 851 275 851 q 327 845 311 851 q 365 828 343 839 l 404 807 q 506 781 457 781 "},"ẃ":{"ha":1131,"x_min":18,"x_max":1113,"o":"m 18 686 l 218 0 l 447 0 l 565 468 l 683 0 l 913 0 l 1113 686 l 911 686 l 794 215 l 676 686 l 454 686 l 338 215 l 219 686 l 18 686 m 581 989 l 486 783 l 651 783 l 760 989 l 581 989 "},"ŵ":{"ha":1131,"x_min":18,"x_max":1113,"o":"m 18 686 l 218 0 l 447 0 l 565 468 l 683 0 l 913 0 l 1113 686 l 911 686 l 794 215 l 676 686 l 454 686 l 338 215 l 219 686 l 18 686 m 446 989 l 340 783 l 506 783 l 565 915 l 625 783 l 790 783 l 685 989 l 446 989 "},"ẅ":{"ha":1131,"x_min":18,"x_max":1113,"o":"m 18 686 l 218 0 l 447 0 l 565 468 l 683 0 l 913 0 l 1113 686 l 911 686 l 794 215 l 676 686 l 454 686 l 338 215 l 219 686 l 18 686 m 607 969 l 607 789 l 778 789 l 778 969 l 607 969 m 354 969 l 354 789 l 525 789 l 525 969 l 354 969 "},"ẁ":{"ha":1131,"x_min":18,"x_max":1113,"o":"m 18 686 l 218 0 l 447 0 l 565 468 l 683 0 l 913 0 l 1113 686 l 911 686 l 794 215 l 676 686 l 454 686 l 338 215 l 219 686 l 18 686 m 367 989 l 475 783 l 640 783 l 544 989 l 367 989 "},"ý":{"ha":779,"x_min":11,"x_max":769,"o":"m 36 -79 l 36 -250 l 231 -250 q 340 -224 301 -250 q 403 -140 378 -197 l 769 686 l 553 686 l 393 278 l 232 686 l 11 686 l 290 56 l 249 -35 q 178 -79 229 -79 l 36 -79 m 404 989 l 310 783 l 475 783 l 583 989 l 404 989 "},"ŷ":{"ha":779,"x_min":11,"x_max":769,"o":"m 36 -79 l 36 -250 l 231 -250 q 340 -224 301 -250 q 403 -140 378 -197 l 769 686 l 553 686 l 393 278 l 232 686 l 11 686 l 290 56 l 249 -35 q 178 -79 229 -79 l 36 -79 m 269 989 l 164 783 l 329 783 l 389 915 l 449 783 l 614 783 l 508 989 l 269 989 "},"ÿ":{"ha":779,"x_min":11,"x_max":769,"o":"m 36 -79 l 36 -250 l 231 -250 q 340 -224 301 -250 q 403 -140 378 -197 l 769 686 l 553 686 l 393 278 l 232 686 l 11 686 l 290 56 l 249 -35 q 178 -79 229 -79 l 36 -79 m 431 969 l 431 789 l 601 789 l 601 969 l 431 969 m 178 969 l 178 789 l 349 789 l 349 969 l 178 969 "},"ỳ":{"ha":779,"x_min":11,"x_max":769,"o":"m 36 -79 l 36 -250 l 231 -250 q 340 -224 301 -250 q 403 -140 378 -197 l 769 686 l 553 686 l 393 278 l 232 686 l 11 686 l 290 56 l 249 -35 q 178 -79 229 -79 l 36 -79 m 190 989 l 299 783 l 464 783 l 368 989 l 190 989 "},"ȳ":{"ha":779,"x_min":11,"x_max":769,"o":"m 36 -79 l 36 -250 l 231 -250 q 340 -224 301 -250 q 403 -140 378 -197 l 769 686 l 553 686 l 393 278 l 232 686 l 11 686 l 290 56 l 249 -35 q 178 -79 229 -79 l 36 -79 m 171 938 l 171 814 l 608 814 l 608 938 l 171 938 "},"ỹ":{"ha":779,"x_min":11,"x_max":769,"o":"m 36 -79 l 36 -250 l 231 -250 q 340 -224 301 -250 q 403 -140 378 -197 l 769 686 l 553 686 l 393 278 l 232 686 l 11 686 l 290 56 l 249 -35 q 178 -79 229 -79 l 36 -79 m 503 781 q 604 814 563 781 q 646 929 646 847 l 646 981 l 532 981 l 532 958 q 520 928 532 938 q 489 918 508 918 q 417 942 461 918 l 379 963 q 278 989 326 989 q 176 956 218 989 q 135 840 135 922 l 135 788 l 249 788 l 249 811 q 260 842 249 832 q 292 851 272 851 q 324 845 308 851 q 363 828 340 839 l 401 807 q 503 781 454 781 "},"ź":{"ha":732,"x_min":61,"x_max":676,"o":"m 61 169 l 61 0 l 676 0 l 676 169 l 318 169 l 663 517 l 663 686 l 68 686 l 68 517 l 404 517 l 61 169 m 383 989 l 289 783 l 454 783 l 563 989 l 383 989 "},"ž":{"ha":732,"x_min":61,"x_max":676,"o":"m 61 169 l 61 0 l 676 0 l 676 169 l 318 169 l 663 517 l 663 686 l 68 686 l 68 517 l 404 517 l 61 169 m 143 989 l 249 783 l 488 783 l 593 989 l 428 989 l 369 858 l 308 989 l 143 989 "},"ż":{"ha":732,"x_min":61,"x_max":676,"o":"m 61 169 l 61 0 l 676 0 l 676 169 l 318 169 l 663 517 l 663 686 l 68 686 l 68 517 l 404 517 l 61 169 m 267 969 l 267 789 l 471 789 l 471 969 l 267 969 "},"ß":{"ha":853,"x_min":10,"x_max":813,"o":"m 414 153 l 414 -11 l 489 -11 q 654 27 581 -11 q 770 134 728 65 q 813 293 813 203 q 769 447 813 382 q 656 538 725 511 q 725 615 699 565 q 751 728 751 665 q 714 866 751 806 q 607 960 676 926 q 446 993 538 993 q 217 917 304 993 q 131 693 131 840 l 131 686 l 10 686 l 10 517 l 131 517 l 131 0 l 325 0 l 325 711 q 357 797 325 764 q 442 829 389 829 q 525 800 493 829 q 557 719 557 771 q 525 633 557 667 q 442 599 493 599 l 414 599 l 414 442 l 456 442 q 570 403 528 442 q 613 297 613 364 q 571 192 613 232 q 461 153 529 153 l 414 153 "},"ð":{"ha":836,"x_min":53,"x_max":783,"o":"m 410 -21 q 601 31 517 -21 q 735 188 686 83 q 783 443 783 292 q 650 853 783 719 l 736 892 l 736 994 l 565 915 q 304 972 463 972 l 108 972 l 108 822 l 304 822 q 379 818 344 822 l 249 771 l 249 668 l 506 771 q 568 685 547 739 q 592 556 589 632 q 509 616 563 593 q 382 639 456 639 q 213 598 288 639 q 95 484 138 557 q 53 317 53 411 q 98 144 53 221 q 224 24 143 68 q 410 -21 306 -21 m 254 308 q 299 421 254 378 q 414 464 343 464 q 529 421 485 464 q 574 308 574 378 q 528 197 574 240 q 414 154 483 154 q 299 197 343 154 q 254 308 254 240 "},"ə":{"ha":781,"x_min":46,"x_max":728,"o":"m 379 707 q 171 647 251 707 q 58 482 90 588 l 257 482 q 301 528 271 511 q 378 546 332 546 q 489 511 447 546 q 536 413 531 476 l 50 413 q 46 333 46 369 q 137 74 46 169 q 386 -21 228 -21 q 564 24 486 -21 q 685 150 642 68 q 728 339 728 232 q 685 532 728 449 q 563 661 642 615 q 379 707 483 707 m 242 263 l 242 265 l 538 265 q 493 168 533 204 q 386 132 453 132 q 279 167 317 132 q 242 263 242 203 "},"ª":{"ha":600,"x_min":43,"x_max":567,"o":"m 243 481 q 335 497 294 481 q 399 539 376 513 q 417 507 401 518 q 458 496 433 496 l 567 496 l 567 617 l 519 617 q 507 629 507 617 l 507 835 q 453 954 507 911 q 303 997 399 997 q 68 838 85 997 l 221 838 q 292 881 228 881 q 344 867 328 881 q 361 826 361 854 l 361 807 l 233 800 q 92 752 140 794 q 43 638 43 710 q 97 523 43 565 q 243 481 151 481 m 190 649 q 208 683 190 668 q 258 699 226 697 l 361 707 l 361 686 q 334 619 361 642 q 264 597 307 597 q 190 649 190 597 "},"º":{"ha":653,"x_min":53,"x_max":600,"o":"m 326 482 q 468 515 406 482 q 565 606 531 547 q 600 740 600 664 q 565 875 600 817 q 468 966 531 933 q 326 999 406 999 q 184 967 246 999 q 88 876 122 935 q 53 740 53 817 q 88 605 53 664 q 184 514 122 546 q 326 482 246 482 m 211 740 q 243 826 211 793 q 326 860 275 860 q 410 826 378 860 q 442 740 442 793 q 410 655 442 688 q 326 622 378 622 q 243 655 275 622 q 211 740 211 688 "},"`":{"ha":413,"x_min":69,"x_max":343,"o":"m 69 989 l 178 783 l 343 783 l 247 989 l 69 989 "},"´":{"ha":413,"x_min":69,"x_max":343,"o":"m 164 989 l 69 783 l 235 783 l 343 989 l 164 989 "},"ˆ":{"ha":589,"x_min":69,"x_max":519,"o":"m 175 989 l 69 783 l 235 783 l 294 915 l 354 783 l 519 783 l 414 989 l 175 989 "},"˜":{"ha":650,"x_min":69,"x_max":581,"o":"m 438 781 q 539 814 497 781 q 581 929 581 847 l 581 981 l 467 981 l 467 958 q 455 928 467 938 q 424 918 443 918 q 351 942 396 918 l 314 963 q 213 989 261 989 q 111 956 153 989 q 69 840 69 922 l 69 788 l 183 788 l 183 811 q 195 842 183 832 q 226 851 207 851 q 259 845 243 851 q 297 828 275 839 l 336 807 q 438 781 389 781 "},"ˇ":{"ha":589,"x_min":69,"x_max":519,"o":"m 69 989 l 175 783 l 414 783 l 519 989 l 354 989 l 296 858 l 235 989 l 69 989 "},"¨":{"ha":563,"x_min":69,"x_max":493,"o":"m 322 969 l 322 789 l 493 789 l 493 969 l 322 969 m 69 969 l 69 789 l 240 789 l 240 969 l 69 969 "},"¯":{"ha":576,"x_min":69,"x_max":507,"o":"m 69 938 l 69 814 l 507 814 l 507 938 l 69 938 "},"˘":{"ha":569,"x_min":69,"x_max":500,"o":"m 285 778 q 445 831 390 778 q 500 989 500 885 l 358 989 q 340 922 358 943 q 285 900 322 900 q 229 922 247 900 q 211 989 211 943 l 69 989 q 124 831 69 885 q 285 778 179 778 "},"˚":{"ha":479,"x_min":69,"x_max":410,"o":"m 239 749 q 362 795 314 749 q 410 913 410 842 q 362 1031 410 985 q 239 1078 314 1078 q 117 1031 165 1078 q 69 913 69 985 q 117 795 69 842 q 239 749 165 749 m 176 913 q 194 960 176 942 q 239 978 211 978 q 285 960 267 978 q 303 913 303 942 q 285 866 303 883 q 239 849 267 849 q 194 867 211 849 q 176 913 176 885 "},"˝":{"ha":569,"x_min":69,"x_max":500,"o":"m 142 989 l 69 783 l 199 783 l 283 989 l 142 989 m 358 989 l 286 783 l 415 783 l 500 989 l 358 989 "},"˙":{"ha":343,"x_min":69,"x_max":274,"o":"m 69 969 l 69 789 l 274 789 l 274 969 l 69 969 "},"¸":{"ha":431,"x_min":69,"x_max":361,"o":"m 69 -175 l 69 -269 l 197 -269 q 314 -233 267 -269 q 361 -143 361 -196 q 288 -40 361 -64 l 321 36 l 200 36 l 147 -103 l 193 -103 q 222 -112 211 -103 q 233 -135 233 -121 q 218 -164 233 -153 q 178 -175 203 -175 l 69 -175 "},"˛":{"ha":389,"x_min":69,"x_max":318,"o":"m 229 -269 l 318 -269 l 318 -151 l 267 -151 q 214 -110 214 -151 q 311 13 214 -68 l 236 63 q 110 -43 151 7 q 69 -146 69 -93 q 113 -236 69 -203 q 229 -269 156 -269 "},",":{"ha":408,"x_min":92,"x_max":317,"o":"m 92 -92 l 92 -207 l 196 -207 q 285 -176 254 -207 q 317 -79 317 -144 l 317 229 l 92 229 l 92 0 l 203 0 l 203 -76 q 198 -88 203 -85 q 181 -92 193 -92 l 92 -92 "},";":{"ha":408,"x_min":92,"x_max":317,"o":"m 92 -92 l 92 -207 l 196 -207 q 285 -176 254 -207 q 317 -79 317 -144 l 317 229 l 92 229 l 92 0 l 203 0 l 203 -76 q 198 -88 203 -85 q 181 -92 193 -92 l 92 -92 m 92 692 l 92 463 l 317 463 l 317 692 l 92 692 "},":":{"ha":408,"x_min":92,"x_max":317,"o":"m 92 692 l 92 463 l 317 463 l 317 692 l 92 692 m 92 229 l 92 0 l 317 0 l 317 229 l 92 229 "},".":{"ha":408,"x_min":92,"x_max":317,"o":"m 92 229 l 92 0 l 317 0 l 317 229 l 92 229 "},"…":{"ha":1181,"x_min":92,"x_max":1090,"o":"m 92 229 l 92 0 l 317 0 l 317 229 l 92 229 m 478 229 l 478 0 l 703 0 l 703 229 l 478 229 m 865 229 l 865 0 l 1090 0 l 1090 229 l 865 229 "},"-":{"ha":581,"x_min":67,"x_max":514,"o":"m 67 460 l 67 278 l 514 278 l 514 460 l 67 460 "},"!":{"ha":499,"x_min":143,"x_max":354,"o":"m 150 972 l 150 304 l 350 304 l 350 972 l 150 972 m 143 197 l 143 0 l 354 0 l 354 197 l 143 197 "},"¡":{"ha":453,"x_min":99,"x_max":310,"o":"m 303 -250 l 303 418 l 103 418 l 103 -250 l 303 -250 m 99 722 l 99 525 l 310 525 l 310 722 l 99 722 "},"?":{"ha":758,"x_min":63,"x_max":717,"o":"m 214 197 l 214 0 l 424 0 l 424 197 l 214 197 m 63 972 l 63 790 l 404 790 q 488 767 458 790 q 517 704 517 743 q 438 611 517 635 l 382 594 q 265 525 306 571 q 225 388 225 479 l 225 304 l 418 304 l 418 356 q 433 407 418 388 q 478 438 447 426 l 544 461 q 667 548 618 485 q 717 703 717 611 q 633 900 717 828 q 404 972 549 972 l 63 972 "},"¿":{"ha":726,"x_min":18,"x_max":672,"o":"m 521 525 l 521 722 l 311 722 l 311 525 l 521 525 m 18 19 q 102 -178 18 -106 q 331 -250 186 -250 l 672 -250 l 672 -68 l 331 -68 q 247 -44 276 -68 q 218 18 218 -21 q 297 111 218 88 l 353 128 q 469 197 429 151 q 510 335 510 243 l 510 418 l 317 418 l 317 367 q 302 315 317 335 q 257 285 288 296 l 190 261 q 67 174 117 238 q 18 19 18 111 "},"‘":{"ha":328,"x_min":57,"x_max":265,"o":"m 265 888 l 265 994 l 169 994 q 86 965 115 994 q 57 876 57 936 l 57 592 l 265 592 l 265 803 l 163 803 l 163 874 q 167 885 163 882 q 183 888 172 888 l 265 888 "},"’":{"ha":328,"x_min":63,"x_max":271,"o":"m 63 678 l 63 571 l 158 571 q 242 600 213 571 q 271 689 271 629 l 271 974 l 63 974 l 63 763 l 165 763 l 165 692 q 144 678 165 678 l 63 678 "},"“":{"ha":601,"x_min":57,"x_max":538,"o":"m 538 888 l 538 994 l 442 994 q 331 876 331 994 l 331 592 l 538 592 l 538 803 l 436 803 l 436 874 q 440 885 436 882 q 456 888 444 888 l 538 888 m 57 876 l 57 592 l 265 592 l 265 803 l 163 803 l 163 874 q 167 885 163 882 q 183 888 172 888 l 265 888 l 265 994 l 169 994 q 86 965 115 994 q 57 876 57 936 "},"”":{"ha":601,"x_min":63,"x_max":543,"o":"m 336 678 l 336 571 l 432 571 q 543 689 543 571 l 543 974 l 336 974 l 336 763 l 439 763 l 439 692 q 418 678 439 678 l 336 678 m 63 678 l 63 571 l 158 571 q 242 600 213 571 q 271 689 271 629 l 271 974 l 63 974 l 63 763 l 165 763 l 165 692 q 144 678 165 678 l 63 678 "},"‚":{"ha":328,"x_min":63,"x_max":271,"o":"m 63 -85 l 63 -192 l 158 -192 q 242 -162 213 -192 q 271 -74 271 -133 l 271 213 l 63 213 l 63 0 l 165 0 l 165 -71 q 144 -85 165 -85 l 63 -85 "},"„":{"ha":601,"x_min":63,"x_max":543,"o":"m 63 -85 l 63 -192 l 158 -192 q 242 -162 213 -192 q 271 -74 271 -133 l 271 213 l 63 213 l 63 0 l 165 0 l 165 -71 q 144 -85 165 -85 l 63 -85 m 336 -85 l 336 -192 l 432 -192 q 543 -74 543 -192 l 543 213 l 336 213 l 336 0 l 439 0 l 439 -71 q 418 -85 439 -85 l 336 -85 "},"‹":{"ha":339,"x_min":21,"x_max":318,"o":"m 21 279 l 132 111 l 318 111 l 167 365 l 318 624 l 132 624 l 21 450 l 21 279 "},"›":{"ha":339,"x_min":21,"x_max":318,"o":"m 318 456 l 207 624 l 21 624 l 172 369 l 21 111 l 207 111 l 318 285 l 318 456 "},"·":{"ha":408,"x_min":92,"x_max":317,"o":"m 92 468 l 92 239 l 317 239 l 317 468 l 92 468 "},"/":{"ha":696,"x_min":10,"x_max":688,"o":"m 489 1000 l 10 -153 l 207 -153 l 688 1000 l 489 1000 "},"|":{"ha":371,"x_min":94,"x_max":276,"o":"m 94 1000 l 94 -153 l 276 -153 l 276 1000 l 94 1000 "},"–":{"ha":694,"x_min":0,"x_max":694,"o":"m 0 457 l 0 281 l 694 281 l 694 457 l 0 457 "},"—":{"ha":1389,"x_min":0,"x_max":1389,"o":"m 0 457 l 0 281 l 1389 281 l 1389 457 l 0 457 "},"•":{"ha":529,"x_min":51,"x_max":478,"o":"m 264 161 q 374 189 325 161 q 450 265 422 217 q 478 374 478 314 q 417 527 478 467 q 264 588 357 588 q 156 560 204 588 q 79 483 107 532 q 51 374 51 435 q 79 265 51 314 q 156 189 107 217 q 264 161 204 161 "},"(":{"ha":629,"x_min":118,"x_max":586,"o":"m 572 -236 l 586 -236 l 586 -72 l 572 -72 q 436 -11 497 -72 q 338 168 375 50 q 301 450 301 286 q 338 732 301 614 q 436 911 375 850 q 572 972 497 972 l 586 972 l 586 1136 l 572 1136 q 339 1058 442 1136 q 177 825 236 979 q 118 450 118 671 q 177 75 118 229 q 339 -158 236 -79 q 572 -236 442 -236 "},")":{"ha":629,"x_min":43,"x_max":511,"o":"m 57 1136 l 43 1136 l 43 972 l 57 972 q 193 911 132 972 q 291 732 254 850 q 328 450 328 614 q 291 168 328 286 q 193 -11 254 50 q 57 -72 132 -72 l 43 -72 l 43 -236 l 57 -236 q 290 -158 188 -236 q 452 75 393 -79 q 511 450 511 229 q 452 825 511 671 q 290 1058 393 979 q 57 1136 188 1136 "},"[":{"ha":563,"x_min":135,"x_max":535,"o":"m 135 1136 l 135 -236 l 535 -236 l 535 -72 l 306 -72 l 306 972 l 535 972 l 535 1136 l 135 1136 "},"]":{"ha":563,"x_min":28,"x_max":428,"o":"m 428 -236 l 428 1136 l 28 1136 l 28 972 l 257 972 l 257 -72 l 28 -72 l 28 -236 l 428 -236 "},"{":{"ha":568,"x_min":58,"x_max":539,"o":"m 417 -236 l 539 -236 l 539 -83 l 417 -83 q 383 -69 394 -83 q 371 -31 371 -56 l 371 301 q 276 451 371 408 q 371 599 371 488 l 371 929 q 383 969 371 954 q 417 983 394 983 l 539 983 l 539 1136 l 417 1136 q 256 1077 308 1136 q 204 929 204 1018 l 204 594 q 136 529 204 529 l 58 529 l 58 371 l 136 371 q 204 307 204 371 l 204 -31 q 256 -177 204 -118 q 417 -236 308 -236 "},"}":{"ha":568,"x_min":29,"x_max":510,"o":"m 151 1136 l 29 1136 l 29 983 l 151 983 q 185 969 174 983 q 197 931 197 956 l 197 599 q 292 449 197 492 q 197 301 197 413 l 197 -29 q 185 -69 197 -54 q 151 -83 174 -83 l 29 -83 l 29 -236 l 151 -236 q 312 -177 260 -236 q 364 -29 364 -118 l 364 306 q 432 371 364 371 l 510 371 l 510 529 l 432 529 q 364 593 364 529 l 364 931 q 312 1077 364 1018 q 151 1136 260 1136 "},"­":{"ha":581,"x_min":67,"x_max":514,"o":"m 67 460 l 67 278 l 514 278 l 514 460 l 67 460 "},"«":{"ha":631,"x_min":21,"x_max":610,"o":"m 21 279 l 132 111 l 318 111 l 167 365 l 318 624 l 132 624 l 21 450 l 21 279 m 313 279 l 424 111 l 610 111 l 458 365 l 610 624 l 424 624 l 313 450 l 313 279 "},"»":{"ha":632,"x_min":21,"x_max":611,"o":"m 611 456 l 500 624 l 314 624 l 465 369 l 314 111 l 500 111 l 611 285 l 611 456 m 318 456 l 207 624 l 21 624 l 172 369 l 21 111 l 207 111 l 318 285 l 318 456 "},"*":{"ha":690,"x_min":58,"x_max":633,"o":"m 113 531 l 257 425 l 347 597 l 435 424 l 579 531 l 442 668 l 633 696 l 579 869 l 404 782 l 436 972 l 254 972 l 285 781 l 113 869 l 58 696 l 249 667 l 113 531 "},"~":{"ha":889,"x_min":101,"x_max":786,"o":"m 621 296 q 786 353 717 296 l 786 518 q 621 453 713 453 q 565 460 592 453 q 489 485 538 468 q 380 519 426 507 q 272 531 333 531 q 101 472 178 531 l 101 306 q 272 374 174 374 q 359 364 321 374 q 457 333 397 354 q 542 306 506 315 q 621 296 579 296 "},"¦":{"ha":414,"x_min":115,"x_max":299,"o":"m 115 1000 l 115 493 l 299 493 l 299 1000 l 115 1000 m 115 354 l 115 -153 l 299 -153 l 299 354 l 115 354 "},"\\":{"ha":696,"x_min":10,"x_max":688,"o":"m 10 1000 l 489 -153 l 688 -153 l 207 1000 l 10 1000 "},"_":{"ha":865,"x_min":7,"x_max":858,"o":"m 7 0 l 7 -160 l 858 -160 l 858 0 l 7 0 "},"'":{"ha":472,"x_min":135,"x_max":338,"o":"m 135 972 l 154 568 l 318 568 l 338 972 l 135 972 "},"\"":{"ha":779,"x_min":135,"x_max":646,"o":"m 443 972 l 463 568 l 626 568 l 646 972 l 443 972 m 135 972 l 154 568 l 318 568 l 338 972 l 135 972 "},"ʼ":{"ha":328,"x_min":63,"x_max":271,"o":"m 63 678 l 63 571 l 158 571 q 242 600 213 571 q 271 689 271 629 l 271 974 l 63 974 l 63 763 l 165 763 l 165 692 q 144 678 165 678 l 63 678 "},"&":{"ha":1029,"x_min":28,"x_max":994,"o":"m 390 -21 q 701 108 582 -21 l 774 36 q 818 8 794 17 q 879 0 842 0 l 994 0 l 994 164 l 907 164 q 880 167 889 164 q 860 182 871 171 l 799 244 l 799 246 l 869 372 q 906 392 879 392 l 994 392 l 994 557 l 833 557 q 790 546 807 557 q 760 508 774 535 l 681 365 l 560 488 q 713 594 664 525 q 763 754 763 664 q 726 878 763 824 q 624 963 690 932 q 472 993 558 993 q 320 962 386 993 q 217 874 254 931 q 181 747 181 818 q 198 649 181 693 q 256 554 215 604 q 28 274 28 483 q 76 120 28 188 q 207 16 124 53 q 390 -21 290 -21 m 225 281 q 371 436 225 396 l 586 222 q 503 164 549 183 q 399 144 458 144 q 274 183 322 144 q 225 281 225 221 m 367 743 q 397 814 367 786 q 478 842 428 842 q 551 815 524 842 q 579 747 579 789 q 443 607 579 647 q 383 681 399 653 q 367 743 367 710 "},"@":{"ha":1328,"x_min":68,"x_max":1260,"o":"m 693 -143 l 1038 -143 l 1038 -1 l 701 -1 q 354 101 481 -1 q 228 390 228 204 q 285 624 228 519 q 454 790 343 729 q 719 850 565 850 q 1003 766 897 850 q 1108 515 1108 682 q 1076 330 1108 415 q 988 244 1043 244 q 928 311 928 244 q 932 350 928 329 l 990 693 l 714 693 q 525 649 607 693 q 399 533 443 606 q 354 376 354 461 q 426 185 354 258 q 618 111 499 111 q 736 138 683 111 q 819 204 789 164 q 869 140 828 165 q 972 114 910 114 q 1119 167 1053 114 q 1222 313 1185 221 q 1260 517 1260 406 q 1190 770 1260 663 q 997 935 1121 878 q 717 992 874 992 q 385 915 533 992 q 152 701 236 839 q 68 389 68 564 q 144 108 68 228 q 360 -78 219 -12 q 693 -143 501 -143 m 518 369 q 540 459 518 417 q 601 528 561 501 q 694 554 642 554 l 825 554 l 801 425 q 747 301 788 353 q 636 250 706 250 q 549 282 581 250 q 518 369 518 314 "},"©":{"ha":1468,"x_min":68,"x_max":1400,"o":"m 733 158 q 926 222 851 158 q 1019 400 1001 285 l 869 400 q 826 321 860 349 q 740 293 792 293 q 626 342 668 293 q 583 496 583 392 q 740 694 583 694 q 826 670 790 694 q 872 597 861 646 l 1021 597 q 928 771 1004 713 q 738 829 853 829 q 513 744 596 829 q 431 493 431 658 q 514 244 431 329 q 733 158 597 158 m 68 486 q 155 145 68 297 q 394 -94 242 -7 q 735 -181 546 -181 q 1075 -94 924 -181 q 1313 145 1226 -7 q 1400 486 1400 297 q 1313 827 1400 675 q 1075 1066 1226 979 q 735 1153 924 1153 q 394 1066 546 1153 q 155 827 242 979 q 68 486 68 675 m 214 486 q 282 758 214 636 q 469 950 350 881 q 735 1019 588 1019 q 999 950 881 1019 q 1186 758 1118 881 q 1254 486 1254 636 q 1186 214 1254 336 q 999 22 1118 92 q 735 -47 881 -47 q 469 22 588 -47 q 282 214 350 92 q 214 486 214 336 "},"®":{"ha":856,"x_min":58,"x_max":797,"o":"m 283 883 l 283 513 l 371 513 l 371 650 l 401 650 l 500 513 l 601 513 l 492 667 q 565 706 539 674 q 590 782 590 738 q 556 856 590 828 q 465 883 522 883 l 283 883 m 58 699 q 106 515 58 597 q 238 387 154 433 q 426 340 322 340 q 617 387 532 340 q 749 515 701 433 q 797 699 797 597 q 749 882 797 800 q 617 1010 701 964 q 426 1057 532 1057 q 238 1010 322 1057 q 106 882 154 964 q 58 699 58 800 m 146 699 q 183 841 146 778 q 284 941 219 904 q 426 978 349 978 q 570 942 506 978 q 672 842 635 906 q 708 699 708 778 q 672 556 708 619 q 570 456 635 492 q 426 419 506 419 q 284 456 349 419 q 183 556 219 493 q 146 699 146 619 m 456 729 l 371 729 l 371 803 l 456 803 q 500 767 500 803 q 488 739 500 749 q 456 729 476 729 "},"™":{"ha":1140,"x_min":29,"x_max":1067,"o":"m 499 972 l 499 492 l 619 492 l 619 793 l 739 492 l 826 492 l 946 793 l 946 492 l 1067 492 l 1067 972 l 903 972 l 783 689 l 664 972 l 499 972 m 29 972 l 29 857 l 179 857 l 179 492 l 304 492 l 304 857 l 456 857 l 456 972 l 29 972 "},"¶":{"ha":876,"x_min":53,"x_max":761,"o":"m 356 389 l 356 -250 l 493 -250 l 493 849 l 625 849 l 625 -250 l 761 -250 l 761 972 l 421 972 q 152 894 251 972 q 53 675 53 817 q 92 530 53 596 q 200 426 131 464 q 356 389 269 389 "},"§":{"ha":768,"x_min":58,"x_max":710,"o":"m 103 -86 l 103 -250 l 401 -250 q 544 -219 482 -250 q 640 -135 606 -189 q 675 -14 675 -82 q 650 92 675 46 q 579 168 625 139 q 676 258 642 200 q 710 382 710 317 q 661 512 710 456 q 518 606 613 568 l 378 660 q 305 699 328 679 q 282 744 282 719 q 303 790 282 772 q 360 808 325 808 l 651 808 l 651 972 l 367 972 q 224 943 286 972 q 128 862 163 914 q 93 743 93 810 q 121 639 93 686 q 196 563 149 592 q 58 358 58 499 q 109 221 58 285 q 251 122 160 157 l 378 74 q 465 28 443 49 q 486 -21 486 8 q 465 -67 486 -49 q 410 -86 444 -86 l 103 -86 m 247 372 q 350 496 247 463 l 435 463 q 501 419 482 443 q 521 356 521 394 q 492 281 521 311 q 408 239 463 250 l 340 265 q 270 309 293 283 q 247 372 247 335 "},"^":{"ha":810,"x_min":46,"x_max":763,"o":"m 313 972 l 46 486 l 242 486 l 407 811 l 567 486 l 763 486 l 496 972 l 313 972 "},"†":{"ha":832,"x_min":57,"x_max":774,"o":"m 325 556 l 325 -153 l 507 -153 l 507 556 l 774 556 l 774 725 l 507 725 l 507 997 l 325 997 l 325 725 l 57 725 l 57 556 l 325 556 "},"‡":{"ha":832,"x_min":57,"x_max":774,"o":"m 325 124 l 325 -153 l 507 -153 l 507 124 l 774 124 l 774 293 l 507 293 l 507 556 l 774 556 l 774 725 l 507 725 l 507 997 l 325 997 l 325 725 l 57 725 l 57 556 l 325 556 l 325 293 l 57 293 l 57 124 l 325 124 "},"∅":{"ha":1468,"x_min":68,"x_max":1400,"o":"m 735 -181 q 1075 -94 924 -181 q 1313 145 1226 -7 q 1400 486 1400 297 q 1360 726 1400 614 q 1244 925 1319 838 l 1347 1028 l 1275 1104 l 1171 1000 q 972 1113 1083 1074 q 735 1153 861 1153 q 394 1066 546 1153 q 155 827 242 979 q 68 486 68 675 q 108 247 68 360 q 222 47 149 135 l 122 -53 l 193 -132 l 297 -26 q 497 -140 385 -100 q 735 -181 608 -181 m 214 486 q 282 758 214 636 q 469 950 350 881 q 735 1019 588 1019 q 917 988 831 1019 q 1071 900 1003 957 l 324 150 q 242 305 271 219 q 214 486 214 390 m 397 74 l 1143 824 q 1226 669 1197 756 q 1254 486 1254 583 q 1186 214 1254 336 q 999 22 1118 92 q 735 -47 881 -47 q 551 -16 638 -47 q 397 74 465 15 "},"":{"ha":1226,"x_min":115,"x_max":1110,"o":"m 693 -17 q 899 65 803 -17 q 1053 278 996 146 q 1110 557 1110 411 q 1074 766 1110 678 q 979 899 1039 854 q 849 944 919 944 q 753 927 789 944 q 681 878 718 910 q 645 851 660 860 q 613 842 631 842 q 578 851 593 842 q 543 879 564 860 q 472 927 504 911 q 385 943 439 943 q 246 898 307 943 q 150 765 185 853 q 115 557 115 678 q 169 282 115 414 q 318 68 224 150 q 528 -14 413 -14 q 551 -12 540 -14 q 569 -10 561 -11 q 613 -4 597 -4 q 643 -10 621 -4 q 693 -17 678 -17 m 175 556 q 202 730 175 656 q 277 843 229 804 q 385 882 325 882 q 470 864 438 882 q 540 814 503 846 q 578 783 563 793 q 613 774 593 774 q 645 783 631 774 q 681 813 660 793 q 753 865 717 846 q 849 883 789 883 q 949 844 903 883 q 1022 731 994 806 q 1050 556 1050 656 q 999 305 1050 425 q 863 111 949 185 q 679 38 778 38 q 642 43 663 38 q 613 49 621 49 q 576 44 610 49 q 542 40 558 40 q 356 114 440 40 q 223 307 271 188 q 175 556 175 426 m 253 324 l 253 285 q 307 275 278 275 q 371 288 340 275 q 454 176 386 221 q 613 131 522 131 q 769 175 701 131 q 854 286 838 219 q 913 275 885 275 q 967 285 942 275 l 967 324 q 917 315 942 315 q 835 340 872 315 q 782 404 797 364 l 756 390 q 815 307 774 340 q 750 211 808 250 q 613 172 692 172 q 473 213 532 172 q 408 311 414 253 q 464 390 447 342 l 438 404 q 385 340 422 364 q 303 315 347 315 q 253 324 278 315 m 315 644 l 315 606 l 374 615 q 405 559 378 582 q 467 536 432 536 q 522 560 499 536 q 546 617 546 583 q 540 646 546 629 l 586 654 l 586 693 l 315 644 m 522 451 q 533 425 522 436 q 560 414 544 414 q 585 425 575 414 q 596 451 596 436 q 585 477 596 467 q 560 488 575 488 q 533 477 544 488 q 522 451 522 467 m 583 933 q 712 957 647 928 q 813 1032 776 986 q 855 1124 838 1064 q 872 1240 872 1183 q 871 1274 872 1263 q 739 1240 807 1269 q 643 1174 671 1211 q 599 1075 615 1136 q 582 960 582 1014 q 583 933 582 942 m 632 451 q 643 425 632 436 q 669 414 654 414 q 695 425 685 414 q 706 451 706 436 q 695 477 706 467 q 669 488 685 488 q 643 477 654 488 q 632 451 632 467 m 657 693 l 657 654 l 703 646 q 697 617 697 629 q 721 560 697 583 q 776 536 744 536 q 838 559 811 536 q 869 615 865 582 l 928 606 l 928 644 l 657 693 "},"ℓ":{"ha":613,"x_min":33,"x_max":564,"o":"m 279 -4 l 501 -4 l 501 149 l 338 149 q 299 162 310 149 q 288 199 288 175 l 288 382 q 433 465 371 407 q 530 599 496 522 q 564 758 564 676 q 506 929 564 865 q 342 993 449 993 q 185 938 247 993 q 122 768 122 883 l 122 517 l 33 517 l 33 364 l 122 364 l 122 167 q 160 35 122 75 q 279 -4 199 -4 m 288 547 l 288 767 q 301 822 288 803 q 339 840 314 840 q 380 819 367 840 q 393 753 393 799 q 365 632 393 686 q 288 547 338 578 "},"$":{"ha":851,"x_min":50,"x_max":803,"o":"m 375 189 l 71 189 l 71 0 l 375 0 l 375 -104 l 469 -104 l 469 0 q 711 81 619 3 q 803 299 803 158 q 733 505 803 415 q 490 594 664 594 l 469 594 l 469 783 l 739 783 l 739 972 l 469 972 l 469 1063 l 375 1063 l 375 972 q 210 935 283 971 q 93 835 136 900 q 50 682 50 769 q 81 544 50 610 q 182 435 111 478 q 365 392 253 392 l 375 392 l 375 189 m 256 692 q 287 758 256 732 q 371 783 318 783 l 375 783 l 375 594 l 368 594 q 285 622 314 594 q 256 692 256 649 m 469 189 l 469 392 l 472 392 q 566 364 538 392 q 594 294 594 336 q 563 218 594 247 q 469 189 531 189 "},"¢":{"ha":650,"x_min":53,"x_max":599,"o":"m 369 3 l 369 -104 l 465 -104 l 465 0 l 599 0 l 599 176 l 465 176 l 465 510 l 596 510 l 596 686 l 465 686 l 465 788 l 369 788 l 369 683 q 136 574 219 667 q 53 340 53 482 q 135 108 53 200 q 369 3 218 15 m 253 342 q 283 447 253 406 q 369 503 314 489 l 369 183 q 283 238 314 197 q 253 342 253 279 "},"£":{"ha":814,"x_min":53,"x_max":778,"o":"m 53 169 l 53 0 l 778 0 l 778 169 l 353 169 q 406 256 385 203 q 432 369 426 308 l 639 369 l 639 528 l 415 528 q 383 606 403 567 q 358 667 367 642 q 350 721 350 693 q 376 782 350 761 q 453 803 401 803 l 722 803 l 722 972 l 406 972 q 208 910 279 972 q 138 747 138 849 q 152 652 138 692 q 194 564 167 613 q 214 528 211 533 l 94 528 l 94 369 l 246 369 q 184 235 236 288 q 53 169 132 182 "},"¥":{"ha":879,"x_min":24,"x_max":857,"o":"m 343 150 l 343 0 l 538 0 l 538 150 l 765 150 l 765 274 l 538 274 l 538 343 l 765 343 l 765 467 l 585 467 l 857 972 l 632 972 l 440 599 l 247 972 l 24 972 l 296 467 l 119 467 l 119 343 l 343 343 l 343 274 l 119 274 l 119 150 l 343 150 "},"€":{"ha":858,"x_min":26,"x_max":810,"o":"m 614 0 l 810 0 l 810 182 l 608 182 q 458 219 525 182 q 350 319 390 256 l 594 319 l 594 443 l 306 443 q 303 488 303 471 q 304 522 303 511 l 657 522 l 657 646 l 340 646 q 444 753 376 715 q 601 790 513 790 l 803 790 l 803 972 l 607 972 q 300 884 428 972 q 126 646 172 796 l 26 646 l 26 522 l 104 522 q 103 488 103 511 q 104 443 103 457 l 26 443 l 26 319 l 129 319 q 308 86 179 172 q 614 0 436 0 "},"¤":{"ha":806,"x_min":39,"x_max":764,"o":"m 401 40 q 550 78 479 40 l 649 -21 l 764 94 l 665 193 q 704 343 704 263 q 665 493 704 424 l 764 592 l 649 708 l 550 608 q 401 646 479 646 q 254 608 322 646 l 154 708 l 39 592 l 138 493 q 99 343 99 424 q 138 193 99 263 l 39 94 l 154 -21 l 253 78 q 401 40 324 40 m 231 343 q 280 472 231 422 q 401 522 329 522 q 523 472 474 522 q 572 343 572 422 q 523 214 572 264 q 401 164 474 164 q 280 214 329 164 q 231 343 231 264 "},"ﬁ":{"ha":1000,"x_min":10,"x_max":908,"o":""},"ﬂ":{"ha":1051,"x_min":10,"x_max":1022,"o":""},"⁄":{"ha":268,"x_min":-337,"x_max":606,"o":"m 450 972 l -337 0 l -182 0 l 606 972 l 450 972 "},"¼":{"ha":1242,"x_min":40,"x_max":1218,"o":"m 40 538 l 40 408 l 456 408 l 456 538 l 324 538 l 324 972 l 86 972 l 86 839 l 185 839 l 185 538 l 40 538 m 957 972 l 169 0 l 325 0 l 1113 972 l 957 972 "},"½":{"ha":1321,"x_min":40,"x_max":1282,"o":"m 40 538 l 40 408 l 456 408 l 456 538 l 324 538 l 324 972 l 86 972 l 86 839 l 185 839 l 185 538 l 40 538 m 957 972 l 169 0 l 325 0 l 1113 972 l 957 972 "},"¾":{"ha":1213,"x_min":33,"x_max":1189,"o":"m 42 538 l 42 408 l 246 408 q 415 458 349 408 q 481 589 481 508 q 440 694 481 651 q 328 744 399 736 l 457 843 l 457 972 l 33 972 l 33 843 l 271 843 l 146 749 l 146 638 l 246 638 q 316 625 292 638 q 340 589 340 613 q 316 551 340 565 q 246 538 292 538 l 42 538 m 928 972 l 140 0 l 296 0 l 1083 972 l 928 972 "},"⅓":{"ha":1333,"x_min":40,"x_max":1299,"o":"m 40 538 l 40 408 l 456 408 l 456 538 l 324 538 l 324 972 l 86 972 l 86 839 l 185 839 l 185 538 l 40 538 m 957 972 l 169 0 l 325 0 l 1113 972 l 957 972 "},"⅔":{"ha":1369,"x_min":40,"x_max":1331,"o":"m 40 538 l 40 408 l 483 408 l 483 538 l 183 538 l 183 558 q 194 581 183 572 q 232 597 204 590 l 344 629 q 449 690 407 646 q 492 793 492 733 q 432 924 492 876 q 275 972 372 972 l 68 972 l 68 843 l 275 843 q 330 829 310 843 q 350 792 350 815 q 333 759 350 771 q 278 738 317 747 l 190 715 q 80 656 119 697 q 40 538 40 614 m 989 972 l 201 0 l 357 0 l 1144 972 l 989 972 "},"⅛":{"ha":1322,"x_min":40,"x_max":1279,"o":"m 40 538 l 40 408 l 456 408 l 456 538 l 324 538 l 324 972 l 86 972 l 86 839 l 185 839 l 185 538 l 40 538 m 957 972 l 169 0 l 325 0 l 1113 972 l 957 972 "},"⅜":{"ha":1293,"x_min":33,"x_max":1250,"o":"m 42 538 l 42 408 l 246 408 q 415 458 349 408 q 481 589 481 508 q 440 694 481 651 q 328 744 399 736 l 457 843 l 457 972 l 33 972 l 33 843 l 271 843 l 146 749 l 146 638 l 246 638 q 316 625 292 638 q 340 589 340 613 q 316 551 340 565 q 246 538 292 538 l 42 538 m 928 972 l 140 0 l 296 0 l 1083 972 l 928 972 "},"⅝":{"ha":1290,"x_min":50,"x_max":1246,"o":"m 50 538 l 50 408 l 247 408 q 412 461 350 408 q 474 597 474 514 q 416 725 474 675 q 268 775 358 775 l 201 775 l 201 843 l 450 843 l 450 972 l 65 972 l 65 650 l 249 650 q 310 634 289 650 q 332 593 332 618 q 309 553 332 568 q 247 538 286 538 l 50 538 m 924 972 l 136 0 l 292 0 l 1079 972 l 924 972 "},"⅞":{"ha":1219,"x_min":53,"x_max":1176,"o":"m 165 506 l 165 408 l 308 408 l 308 515 q 328 665 308 615 q 394 753 347 715 l 506 843 l 506 972 l 53 972 l 53 843 l 315 843 l 274 807 q 188 687 211 753 q 165 506 165 621 m 854 972 l 67 0 l 222 0 l 1010 972 l 854 972 "},"%":{"ha":1078,"x_min":35,"x_max":1043,"o":"m 851 972 l 60 0 l 226 0 l 1018 972 l 851 972 m 35 760 q 65 641 35 694 q 149 557 96 588 q 268 526 203 526 q 388 557 333 526 q 472 641 442 588 q 503 760 503 694 q 472 878 503 825 q 387 963 440 932 q 268 993 333 993 q 149 963 203 993 q 65 878 96 932 q 35 760 35 825 m 169 760 q 197 835 169 806 q 268 864 225 864 q 340 835 313 864 q 368 760 368 806 q 340 685 368 714 q 268 656 313 656 q 197 685 225 656 q 169 760 169 714 m 575 213 q 606 94 575 147 q 690 10 636 40 q 810 -21 744 -21 q 928 10 875 -21 q 1013 94 982 40 q 1043 213 1043 147 q 1013 331 1043 278 q 928 415 982 385 q 810 446 875 446 q 691 415 744 446 q 606 331 638 385 q 575 213 575 278 m 710 213 q 738 288 710 258 q 810 317 765 317 q 881 288 853 317 q 908 213 908 258 q 881 138 908 167 q 810 108 853 108 q 738 138 765 108 q 710 213 710 167 "},"‰":{"ha":1407,"x_min":36,"x_max":1368,"o":"m 843 972 l 56 0 l 229 0 l 1015 972 l 843 972 m 36 760 q 67 641 36 694 q 151 557 97 588 q 269 526 204 526 q 389 557 335 526 q 474 641 443 588 q 504 760 504 694 q 473 878 504 825 q 388 963 442 932 q 269 993 335 993 q 151 963 204 993 q 67 878 97 932 q 36 760 36 825 m 171 760 q 199 835 171 806 q 269 864 226 864 q 342 835 314 864 q 369 760 369 806 q 342 685 369 714 q 269 656 314 656 q 199 685 226 656 q 171 760 171 714 m 568 213 q 599 94 568 147 q 683 10 629 40 q 801 -21 736 -21 q 893 -3 850 -21 q 968 46 936 14 q 1043 -3 1000 14 q 1135 -21 1086 -21 q 1253 10 1200 -21 q 1338 94 1307 40 q 1368 213 1368 147 q 1338 331 1368 278 q 1253 415 1307 385 q 1135 446 1200 446 q 1043 428 1086 446 q 968 379 1000 411 q 893 428 936 411 q 801 446 850 446 q 683 415 736 446 q 599 331 629 385 q 568 213 568 278 m 701 213 q 729 288 701 258 q 801 317 757 317 q 873 288 844 317 q 901 213 901 258 q 873 138 901 167 q 801 108 844 108 q 729 138 757 108 q 701 213 701 167 m 1035 213 q 1063 288 1035 258 q 1135 317 1090 317 q 1207 288 1179 317 q 1235 213 1235 258 q 1207 138 1235 167 q 1135 108 1179 108 q 1063 138 1090 108 q 1035 213 1035 167 "},"#":{"ha":892,"x_min":39,"x_max":853,"o":"m 474 247 l 421 0 l 568 0 l 621 247 l 790 247 l 790 389 l 650 389 l 690 578 l 853 578 l 853 725 l 721 725 l 774 972 l 626 972 l 574 725 l 418 725 l 471 972 l 324 972 l 271 725 l 101 725 l 101 578 l 240 578 l 200 389 l 39 389 l 39 247 l 171 247 l 118 0 l 265 0 l 318 247 l 474 247 m 503 389 l 347 389 l 388 578 l 543 578 l 503 389 "},"№":{"ha":1538,"x_min":115,"x_max":1421,"o":"m 115 972 l 115 0 l 299 0 l 299 633 l 575 0 l 796 0 l 796 790 l 1049 790 l 1049 972 l 613 972 l 613 339 l 336 972 l 115 972 m 906 482 q 939 353 906 410 q 1031 265 972 296 q 1164 233 1090 233 q 1296 265 1238 233 q 1388 353 1354 296 q 1421 482 1421 410 q 1388 610 1421 554 q 1296 698 1354 667 q 1164 729 1238 729 q 1031 698 1090 729 q 939 610 972 667 q 906 482 906 554 m 919 182 l 919 0 l 1407 0 l 1407 182 l 919 182 m 1074 482 q 1099 549 1074 524 q 1164 574 1124 574 q 1229 549 1204 574 q 1254 482 1254 524 q 1229 415 1254 440 q 1164 389 1204 389 q 1099 415 1124 389 q 1074 482 1074 440 "},"+":{"ha":889,"x_min":89,"x_max":800,"o":"m 89 479 l 89 326 l 358 326 l 358 54 l 517 54 l 517 326 l 800 326 l 800 479 l 517 479 l 517 750 l 358 750 l 358 479 l 89 479 "},"−":{"ha":889,"x_min":101,"x_max":786,"o":"m 101 479 l 101 326 l 786 326 l 786 479 l 101 479 "},"±":{"ha":889,"x_min":114,"x_max":774,"o":"m 114 590 l 114 447 l 357 447 l 357 286 l 515 286 l 515 447 l 774 447 l 774 590 l 515 590 l 515 750 l 357 750 l 357 590 l 114 590 m 114 199 l 114 56 l 774 56 l 774 199 l 114 199 "},"×":{"ha":889,"x_min":110,"x_max":779,"o":"m 444 296 l 671 68 l 779 176 l 553 404 l 778 629 l 668 738 l 443 513 l 218 738 l 110 629 l 335 404 l 110 178 l 218 69 l 444 296 "},"÷":{"ha":889,"x_min":101,"x_max":786,"o":"m 101 479 l 101 326 l 786 326 l 786 479 l 101 479 m 357 233 l 357 54 l 517 54 l 517 233 l 357 233 m 357 751 l 357 572 l 517 572 l 517 751 l 357 751 "},"=":{"ha":889,"x_min":103,"x_max":788,"o":"m 103 632 l 103 479 l 788 479 l 788 632 l 103 632 m 103 326 l 103 174 l 788 174 l 788 326 l 103 326 "},"<":{"ha":889,"x_min":124,"x_max":765,"o":"m 124 326 l 765 76 l 765 238 l 318 403 l 765 568 l 765 729 l 124 481 l 124 326 "},">":{"ha":889,"x_min":124,"x_max":765,"o":"m 765 479 l 124 729 l 124 568 l 571 403 l 124 238 l 124 76 l 765 325 l 765 479 "},"°":{"ha":597,"x_min":53,"x_max":546,"o":"m 299 508 q 478 575 410 508 q 546 750 546 642 q 478 925 546 858 q 299 992 410 992 q 121 925 189 992 q 53 750 53 858 q 120 575 53 642 q 299 508 188 508 m 197 750 q 226 827 197 797 q 299 857 254 857 q 372 827 343 857 q 400 750 400 797 q 372 673 400 703 q 299 643 343 643 q 226 673 254 643 q 197 750 197 703 "},"≈":{"ha":889,"x_min":103,"x_max":788,"o":"m 622 446 q 788 503 718 446 l 788 668 q 622 603 714 603 q 566 610 593 603 q 490 635 539 618 q 381 669 428 657 q 274 681 335 681 q 103 622 179 681 l 103 456 q 274 524 175 524 q 360 514 322 524 q 458 483 399 504 q 544 456 507 465 q 622 446 581 446 m 622 146 q 788 203 718 146 l 788 368 q 622 303 714 303 q 566 310 593 303 q 490 335 539 318 q 381 369 428 357 q 274 381 335 381 q 103 322 179 381 l 103 156 q 274 224 175 224 q 360 214 322 224 q 458 183 399 204 q 544 156 507 165 q 622 146 581 146 "},"≥":{"ha":889,"x_min":114,"x_max":774,"o":"m 122 246 l 764 440 l 764 594 l 122 792 l 122 638 l 579 518 l 122 400 l 122 246 m 114 199 l 114 56 l 774 56 l 774 199 l 114 199 "},"≤":{"ha":889,"x_min":114,"x_max":774,"o":"m 765 792 l 124 594 l 124 440 l 765 246 l 765 400 l 308 518 l 765 638 l 765 792 m 114 199 l 114 56 l 774 56 l 774 199 l 114 199 "},"≠":{"ha":889,"x_min":103,"x_max":788,"o":"m 103 632 l 103 479 l 415 479 l 313 326 l 103 326 l 103 174 l 211 174 l 153 86 l 254 13 l 363 174 l 788 174 l 788 326 l 464 326 l 567 479 l 788 479 l 788 632 l 668 632 l 725 717 l 624 792 l 517 632 l 103 632 "},"̈":{"ha":0,"x_min":69,"x_max":493,"o":"m 322 969 l 322 789 l 493 789 l 493 969 l 322 969 m 69 969 l 69 789 l 240 789 l 240 969 l 69 969 "},"̇":{"ha":0,"x_min":69,"x_max":274,"o":"m 69 969 l 69 789 l 274 789 l 274 969 l 69 969 "},"̀":{"ha":0,"x_min":69,"x_max":343,"o":"m 69 989 l 178 783 l 343 783 l 247 989 l 69 989 "},"́":{"ha":0,"x_min":69,"x_max":343,"o":"m 164 989 l 69 783 l 235 783 l 343 989 l 164 989 "},"̋":{"ha":0,"x_min":69,"x_max":500,"o":"m 142 989 l 69 783 l 199 783 l 283 989 l 142 989 m 358 989 l 286 783 l 415 783 l 500 989 l 358 989 "},"̂":{"ha":0,"x_min":69,"x_max":519,"o":"m 175 989 l 69 783 l 235 783 l 294 915 l 354 783 l 519 783 l 414 989 l 175 989 "},"̌":{"ha":0,"x_min":69,"x_max":519,"o":"m 69 989 l 175 783 l 414 783 l 519 989 l 354 989 l 296 858 l 235 989 l 69 989 "},"̆":{"ha":0,"x_min":69,"x_max":500,"o":"m 285 778 q 445 831 390 778 q 500 989 500 885 l 358 989 q 340 922 358 943 q 285 900 322 900 q 229 922 247 900 q 211 989 211 943 l 69 989 q 124 831 69 885 q 285 778 179 778 "},"̊":{"ha":0,"x_min":69,"x_max":410,"o":"m 239 749 q 362 795 314 749 q 410 913 410 842 q 362 1031 410 985 q 239 1078 314 1078 q 117 1031 165 1078 q 69 913 69 985 q 117 795 69 842 q 239 749 165 749 m 176 913 q 194 960 176 942 q 239 978 211 978 q 285 960 267 978 q 303 913 303 942 q 285 866 303 883 q 239 849 267 849 q 194 867 211 849 q 176 913 176 885 "},"̃":{"ha":0,"x_min":69,"x_max":581,"o":"m 438 781 q 539 814 497 781 q 581 929 581 847 l 581 981 l 467 981 l 467 958 q 455 928 467 938 q 424 918 443 918 q 351 942 396 918 l 314 963 q 213 989 261 989 q 111 956 153 989 q 69 840 69 922 l 69 788 l 183 788 l 183 811 q 195 842 183 832 q 226 851 207 851 q 259 845 243 851 q 297 828 275 839 l 336 807 q 438 781 389 781 "},"̄":{"ha":0,"x_min":69,"x_max":507,"o":"m 69 938 l 69 814 l 507 814 l 507 938 l 69 938 "},"̒":{"ha":0,"x_min":69,"x_max":267,"o":"m 69 953 l 69 767 l 267 767 l 267 903 l 179 903 l 179 940 q 183 956 179 951 q 199 961 188 961 l 267 961 l 267 1035 l 178 1035 q 98 1015 126 1035 q 69 953 69 994 "},"̦":{"ha":0,"x_min":69,"x_max":267,"o":"m 69 -203 l 69 -268 l 158 -268 q 240 -249 213 -268 q 267 -176 267 -229 l 267 -47 l 69 -47 l 69 -165 l 157 -165 l 157 -187 q 138 -203 157 -203 l 69 -203 "},"̧":{"ha":0,"x_min":69,"x_max":361,"o":"m 69 -175 l 69 -269 l 197 -269 q 314 -233 267 -269 q 361 -143 361 -196 q 288 -40 361 -64 l 321 36 l 200 36 l 147 -103 l 193 -103 q 222 -112 211 -103 q 233 -135 233 -121 q 218 -164 233 -153 q 178 -175 203 -175 l 69 -175 "},"̨":{"ha":0,"x_min":69,"x_max":318,"o":"m 229 -269 l 318 -269 l 318 -151 l 267 -151 q 214 -110 214 -151 q 311 13 214 -68 l 236 63 q 110 -43 151 7 q 69 -146 69 -93 q 113 -236 69 -203 q 229 -269 156 -269 "}," ":{"ha":1389,"x_min":0,"x_max":0,"o":""}," ":{"ha":694,"x_min":0,"x_max":0,"o":""}," ":{"ha":347,"x_min":0,"x_max":0,"o":""}," ":{"ha":58,"x_min":0,"x_max":0,"o":""}," ":{"ha":174,"x_min":0,"x_max":0,"o":""}," ":{"ha":463,"x_min":0,"x_max":0,"o":""},"❶":{"ha":1468,"x_min":68,"x_max":1400,"o":"m 735 -181 q 1075 -94 924 -181 q 1313 145 1226 -7 q 1400 486 1400 297 q 1313 827 1400 675 q 1075 1066 1226 979 q 735 1153 924 1153 q 394 1066 546 1153 q 155 827 242 979 q 68 486 68 675 q 155 145 68 297 q 394 -94 242 -7 q 735 -181 546 -181 m 993 150 l 513 150 l 513 279 l 689 279 l 689 728 l 568 728 l 568 860 l 826 860 l 826 279 l 993 279 l 993 150 "},"❷":{"ha":1468,"x_min":68,"x_max":1400,"o":"m 735 -181 q 1075 -94 924 -181 q 1313 145 1226 -7 q 1400 486 1400 297 q 1313 827 1400 675 q 1075 1066 1226 979 q 735 1153 924 1153 q 394 1066 546 1153 q 155 827 242 979 q 68 486 68 675 q 155 145 68 297 q 394 -94 242 -7 q 735 -181 546 -181 m 1001 150 l 494 150 l 494 293 q 540 441 494 389 q 671 518 585 493 l 772 546 q 845 583 822 561 q 868 642 868 604 q 840 706 868 682 q 765 731 813 731 l 529 731 l 529 860 l 765 860 q 942 801 874 860 q 1010 643 1010 742 q 962 513 1010 567 q 839 438 914 460 l 711 399 q 655 368 672 388 q 638 317 638 349 l 638 279 l 1001 279 l 1001 150 "},"❸":{"ha":1468,"x_min":68,"x_max":1400,"o":"m 735 -181 q 1075 -94 924 -181 q 1313 145 1226 -7 q 1400 486 1400 297 q 1313 827 1400 675 q 1075 1066 1226 979 q 735 1153 924 1153 q 394 1066 546 1153 q 155 827 242 979 q 68 486 68 675 q 155 145 68 297 q 394 -94 242 -7 q 735 -181 546 -181 m 800 731 l 497 731 l 497 860 l 983 860 l 983 731 l 801 571 q 955 512 899 565 q 1011 374 1011 458 q 935 212 1011 274 q 740 150 860 150 l 507 150 l 507 279 l 740 279 q 836 304 803 279 q 869 372 869 329 q 837 439 869 415 q 742 463 804 463 l 629 463 l 629 574 l 800 731 "},"❹":{"ha":1468,"x_min":68,"x_max":1400,"o":"m 735 -181 q 1075 -94 924 -181 q 1313 145 1226 -7 q 1400 486 1400 297 q 1313 827 1400 675 q 1075 1066 1226 979 q 735 1153 924 1153 q 394 1066 546 1153 q 155 827 242 979 q 68 486 68 675 q 155 145 68 297 q 394 -94 242 -7 q 735 -181 546 -181 m 783 344 l 421 344 l 421 468 l 732 860 l 921 860 l 921 468 l 1026 468 l 1026 344 l 921 344 l 921 150 l 783 150 l 783 344 m 783 740 l 567 468 l 783 468 l 783 740 "},"❺":{"ha":1468,"x_min":68,"x_max":1400,"o":"m 735 -181 q 1075 -94 924 -181 q 1313 145 1226 -7 q 1400 486 1400 297 q 1313 827 1400 675 q 1075 1066 1226 979 q 735 1153 924 1153 q 394 1066 546 1153 q 155 827 242 979 q 68 486 68 675 q 155 145 68 297 q 394 -94 242 -7 q 735 -181 546 -181 m 742 150 l 513 150 l 513 279 l 742 279 q 827 306 794 279 q 860 378 860 333 q 828 451 860 424 q 742 478 797 478 l 529 478 l 529 860 l 972 860 l 972 731 l 667 731 l 667 603 l 761 603 q 934 541 867 603 q 1001 382 1001 479 q 969 261 1001 314 q 877 179 936 208 q 742 150 818 150 "},"❻":{"ha":1468,"x_min":68,"x_max":1400,"o":"m 735 -181 q 1075 -94 924 -181 q 1313 145 1226 -7 q 1400 486 1400 297 q 1313 827 1400 675 q 1075 1066 1226 979 q 735 1153 924 1153 q 394 1066 546 1153 q 155 827 242 979 q 68 486 68 675 q 155 145 68 297 q 394 -94 242 -7 q 735 -181 546 -181 m 442 472 q 788 860 442 860 l 935 860 l 935 731 l 788 731 q 633 688 679 731 q 582 553 588 644 q 648 599 607 582 q 743 617 689 617 q 872 587 815 617 q 960 503 929 557 q 992 381 992 449 q 958 255 992 311 q 863 167 924 199 q 724 135 801 135 q 520 222 599 135 q 442 472 442 308 m 590 376 q 626 290 590 324 q 719 257 663 257 q 815 290 778 257 q 851 375 851 322 q 815 459 851 426 q 719 492 778 492 q 626 460 663 492 q 590 376 590 428 "},"❼":{"ha":1468,"x_min":68,"x_max":1400,"o":"m 735 -181 q 1075 -94 924 -181 q 1313 145 1226 -7 q 1400 486 1400 297 q 1313 827 1400 675 q 1075 1066 1226 979 q 735 1153 924 1153 q 394 1066 546 1153 q 155 827 242 979 q 68 486 68 675 q 155 145 68 297 q 394 -94 242 -7 q 735 -181 546 -181 m 824 731 l 485 731 l 485 860 l 1011 860 l 1011 731 l 883 617 q 795 491 821 558 q 769 300 769 424 l 769 150 l 628 150 l 628 292 q 635 438 628 379 q 672 555 643 496 q 763 672 701 614 l 824 731 "},"❽":{"ha":1468,"x_min":68,"x_max":1400,"o":"m 735 -181 q 1075 -94 924 -181 q 1313 145 1226 -7 q 1400 486 1400 297 q 1313 827 1400 675 q 1075 1066 1226 979 q 735 1153 924 1153 q 394 1066 546 1153 q 155 827 242 979 q 68 486 68 675 q 155 145 68 297 q 394 -94 242 -7 q 735 -181 546 -181 m 456 358 q 488 461 456 415 q 569 528 519 507 q 501 586 525 546 q 476 676 476 626 q 548 820 476 765 q 738 875 619 875 q 926 820 854 875 q 997 676 997 765 q 973 586 997 626 q 904 528 949 546 q 986 461 954 508 q 1018 358 1018 414 q 944 195 1018 256 q 738 135 869 135 q 530 195 604 135 q 456 358 456 256 m 596 361 q 633 282 596 313 q 738 251 671 251 q 840 282 803 251 q 878 361 878 313 q 840 439 878 410 q 738 468 803 468 q 633 439 671 468 q 596 361 596 410 m 617 669 q 649 606 617 629 q 738 582 682 582 q 825 606 793 582 q 857 669 857 629 q 825 734 857 710 q 738 758 793 758 q 649 734 681 758 q 617 669 617 710 "},"❾":{"ha":1468,"x_min":68,"x_max":1400,"o":"m 735 -181 q 1075 -94 924 -181 q 1313 145 1226 -7 q 1400 486 1400 297 q 1313 827 1400 675 q 1075 1066 1226 979 q 735 1153 924 1153 q 394 1066 546 1153 q 155 827 242 979 q 68 486 68 675 q 155 145 68 297 q 394 -94 242 -7 q 735 -181 546 -181 m 482 629 q 516 755 482 699 q 612 843 550 811 q 751 875 674 875 q 955 788 876 875 q 1033 538 1033 701 q 950 253 1033 356 q 686 150 867 150 l 539 150 l 539 279 l 686 279 q 842 323 796 279 q 893 458 888 367 q 827 411 868 429 q 731 393 786 393 q 601 423 658 393 q 513 507 544 453 q 482 629 482 561 m 624 635 q 660 551 624 583 q 754 518 697 518 q 847 550 811 518 q 883 633 883 582 q 847 719 883 686 q 754 753 811 753 q 660 720 697 753 q 624 635 624 688 "},"①":{"ha":1468,"x_min":68,"x_max":1400,"o":"m 735 -181 q 1075 -94 924 -181 q 1313 145 1226 -7 q 1400 486 1400 297 q 1313 827 1400 675 q 1075 1066 1226 979 q 735 1153 924 1153 q 394 1066 546 1153 q 155 827 242 979 q 68 486 68 675 q 155 145 68 297 q 394 -94 242 -7 q 735 -181 546 -181 m 214 486 q 282 758 214 636 q 469 950 350 881 q 735 1019 588 1019 q 999 950 881 1019 q 1186 758 1118 881 q 1254 486 1254 636 q 1186 214 1254 336 q 999 22 1118 92 q 735 -47 881 -47 q 469 22 588 -47 q 282 214 350 92 q 214 486 214 336 m 513 279 l 513 150 l 993 150 l 993 279 l 828 279 l 828 860 l 568 860 l 568 728 l 689 728 l 689 279 l 513 279 "},"②":{"ha":1468,"x_min":68,"x_max":1400,"o":"m 735 -181 q 1075 -94 924 -181 q 1313 145 1226 -7 q 1400 486 1400 297 q 1313 827 1400 675 q 1075 1066 1226 979 q 735 1153 924 1153 q 394 1066 546 1153 q 155 827 242 979 q 68 486 68 675 q 155 145 68 297 q 394 -94 242 -7 q 735 -181 546 -181 m 214 486 q 282 758 214 636 q 469 950 350 881 q 735 1019 588 1019 q 999 950 881 1019 q 1186 758 1118 881 q 1254 486 1254 636 q 1186 214 1254 336 q 999 22 1118 92 q 735 -47 881 -47 q 469 22 588 -47 q 282 214 350 92 q 214 486 214 336 m 494 293 l 494 150 l 1001 150 l 1001 279 l 638 279 l 638 317 q 655 369 638 350 q 711 399 672 388 l 839 438 q 962 513 914 460 q 1010 643 1010 567 q 942 801 1010 742 q 765 860 874 860 l 528 860 l 528 731 l 765 731 q 840 706 813 731 q 868 642 868 682 q 845 583 868 604 q 772 546 822 561 l 671 518 q 540 441 585 493 q 494 293 494 389 "},"③":{"ha":1468,"x_min":68,"x_max":1400,"o":"m 735 -181 q 1075 -94 924 -181 q 1313 145 1226 -7 q 1400 486 1400 297 q 1313 827 1400 675 q 1075 1066 1226 979 q 735 1153 924 1153 q 394 1066 546 1153 q 155 827 242 979 q 68 486 68 675 q 155 145 68 297 q 394 -94 242 -7 q 735 -181 546 -181 m 214 486 q 282 758 214 636 q 469 950 350 881 q 735 1019 588 1019 q 999 950 881 1019 q 1186 758 1118 881 q 1254 486 1254 636 q 1186 214 1254 336 q 999 22 1118 92 q 735 -47 881 -47 q 469 22 588 -47 q 282 214 350 92 q 214 486 214 336 m 496 860 l 496 731 l 799 731 l 628 574 l 628 463 l 742 463 q 837 439 804 463 q 869 372 869 415 q 835 304 869 329 q 740 279 801 279 l 506 279 l 506 150 l 740 150 q 880 178 818 150 q 976 256 942 206 q 1011 374 1011 307 q 954 513 1011 458 q 801 572 897 568 l 983 731 l 983 860 l 496 860 "},"④":{"ha":1468,"x_min":68,"x_max":1400,"o":"m 735 -181 q 1075 -94 924 -181 q 1313 145 1226 -7 q 1400 486 1400 297 q 1313 827 1400 675 q 1075 1066 1226 979 q 735 1153 924 1153 q 394 1066 546 1153 q 155 827 242 979 q 68 486 68 675 q 155 145 68 297 q 394 -94 242 -7 q 735 -181 546 -181 m 214 486 q 282 758 214 636 q 469 950 350 881 q 735 1019 588 1019 q 999 950 881 1019 q 1186 758 1118 881 q 1254 486 1254 636 q 1186 214 1254 336 q 999 22 1118 92 q 735 -47 881 -47 q 469 22 588 -47 q 282 214 350 92 q 214 486 214 336 m 419 468 l 419 344 l 783 344 l 783 150 l 919 150 l 919 344 l 1026 344 l 1026 468 l 919 468 l 919 860 l 732 860 l 419 468 m 783 468 l 567 468 l 783 742 l 783 468 "},"⑤":{"ha":1468,"x_min":68,"x_max":1400,"o":"m 735 -181 q 1075 -94 924 -181 q 1313 145 1226 -7 q 1400 486 1400 297 q 1313 827 1400 675 q 1075 1066 1226 979 q 735 1153 924 1153 q 394 1066 546 1153 q 155 827 242 979 q 68 486 68 675 q 155 145 68 297 q 394 -94 242 -7 q 735 -181 546 -181 m 214 486 q 282 758 214 636 q 469 950 350 881 q 735 1019 588 1019 q 999 950 881 1019 q 1186 758 1118 881 q 1254 486 1254 636 q 1186 214 1254 336 q 999 22 1118 92 q 735 -47 881 -47 q 469 22 588 -47 q 282 214 350 92 q 214 486 214 336 m 513 279 l 513 150 l 742 150 q 877 179 818 150 q 969 261 936 208 q 1001 382 1001 314 q 934 541 1001 479 q 761 603 867 603 l 667 603 l 667 731 l 972 731 l 972 860 l 529 860 l 529 478 l 742 478 q 828 451 797 478 q 860 378 860 424 q 827 306 860 333 q 742 279 794 279 l 513 279 "},"⑥":{"ha":1468,"x_min":68,"x_max":1400,"o":"m 735 -181 q 1075 -94 924 -181 q 1313 145 1226 -7 q 1400 486 1400 297 q 1313 827 1400 675 q 1075 1066 1226 979 q 735 1153 924 1153 q 394 1066 546 1153 q 155 827 242 979 q 68 486 68 675 q 155 145 68 297 q 394 -94 242 -7 q 735 -181 546 -181 m 214 486 q 282 758 214 636 q 469 950 350 881 q 735 1019 588 1019 q 999 950 881 1019 q 1186 758 1118 881 q 1254 486 1254 636 q 1186 214 1254 336 q 999 22 1118 92 q 735 -47 881 -47 q 469 22 588 -47 q 282 214 350 92 q 214 486 214 336 m 442 472 q 520 222 442 308 q 724 135 599 135 q 863 167 801 135 q 958 255 924 199 q 992 381 992 311 q 960 503 992 449 q 872 587 929 557 q 743 617 815 617 q 648 600 689 617 q 582 557 607 583 q 633 688 588 646 q 788 731 679 731 l 935 731 l 935 860 l 788 860 q 442 472 442 860 m 589 376 q 625 460 589 428 q 719 492 661 492 q 815 459 778 492 q 851 375 851 426 q 815 290 851 322 q 719 257 778 257 q 626 290 663 257 q 589 376 589 324 "},"⑦":{"ha":1468,"x_min":68,"x_max":1400,"o":"m 735 -181 q 1075 -94 924 -181 q 1313 145 1226 -7 q 1400 486 1400 297 q 1313 827 1400 675 q 1075 1066 1226 979 q 735 1153 924 1153 q 394 1066 546 1153 q 155 827 242 979 q 68 486 68 675 q 155 145 68 297 q 394 -94 242 -7 q 735 -181 546 -181 m 214 486 q 282 758 214 636 q 469 950 350 881 q 735 1019 588 1019 q 999 950 881 1019 q 1186 758 1118 881 q 1254 486 1254 636 q 1186 214 1254 336 q 999 22 1118 92 q 735 -47 881 -47 q 469 22 588 -47 q 282 214 350 92 q 214 486 214 336 m 486 860 l 486 731 l 825 731 l 764 672 q 674 555 703 614 q 637 438 644 496 q 629 292 629 379 l 629 150 l 771 150 l 771 300 q 796 491 771 424 q 885 617 821 558 l 1013 731 l 1013 860 l 486 860 "},"⑧":{"ha":1468,"x_min":68,"x_max":1400,"o":"m 735 -181 q 1075 -94 924 -181 q 1313 145 1226 -7 q 1400 486 1400 297 q 1313 827 1400 675 q 1075 1066 1226 979 q 735 1153 924 1153 q 394 1066 546 1153 q 155 827 242 979 q 68 486 68 675 q 155 145 68 297 q 394 -94 242 -7 q 735 -181 546 -181 m 214 486 q 282 758 214 636 q 469 950 350 881 q 735 1019 588 1019 q 999 950 881 1019 q 1186 758 1118 881 q 1254 486 1254 636 q 1186 214 1254 336 q 999 22 1118 92 q 735 -47 881 -47 q 469 22 588 -47 q 282 214 350 92 q 214 486 214 336 m 456 358 q 531 195 456 256 q 738 135 606 135 q 944 195 869 135 q 1019 358 1019 256 q 987 461 1019 414 q 904 528 954 508 q 974 587 949 546 q 999 676 999 628 q 926 820 999 765 q 738 875 854 875 q 548 820 619 875 q 476 676 476 765 q 501 587 476 628 q 571 528 526 546 q 488 460 521 507 q 456 358 456 414 m 597 361 q 634 439 597 410 q 738 468 671 468 q 841 440 804 468 q 878 361 878 411 q 841 282 878 313 q 738 251 804 251 q 634 282 671 251 q 597 361 597 313 m 618 669 q 650 734 618 710 q 738 758 682 758 q 826 734 794 758 q 857 669 857 710 q 825 606 857 629 q 738 582 793 582 q 650 606 682 582 q 618 669 618 629 "},"⑨":{"ha":1468,"x_min":68,"x_max":1400,"o":"m 735 -181 q 1075 -94 924 -181 q 1313 145 1226 -7 q 1400 486 1400 297 q 1313 827 1400 675 q 1075 1066 1226 979 q 735 1153 924 1153 q 394 1066 546 1153 q 155 827 242 979 q 68 486 68 675 q 155 145 68 297 q 394 -94 242 -7 q 735 -181 546 -181 m 214 486 q 282 758 214 636 q 469 950 350 881 q 735 1019 588 1019 q 999 950 881 1019 q 1186 758 1118 881 q 1254 486 1254 636 q 1186 214 1254 336 q 999 22 1118 92 q 735 -47 881 -47 q 469 22 588 -47 q 282 214 350 92 q 214 486 214 336 m 482 629 q 513 507 482 561 q 601 423 544 453 q 729 393 657 393 q 826 410 785 393 q 892 454 868 426 q 840 322 886 364 q 686 279 794 279 l 539 279 l 539 150 l 686 150 q 950 253 867 150 q 1033 538 1033 356 q 997 723 1033 647 q 896 837 960 799 q 750 875 832 875 q 611 843 672 875 q 516 755 550 811 q 482 629 482 699 m 624 635 q 660 720 624 688 q 753 753 696 753 q 847 719 811 753 q 883 633 883 686 q 847 550 883 582 q 753 518 811 518 q 660 551 696 518 q 624 635 624 583 "},"¹":{"ha":585,"x_min":42,"x_max":546,"o":"m 42 535 l 42 375 l 546 375 l 546 535 l 389 535 l 389 1056 l 97 1056 l 97 890 l 217 890 l 217 535 l 42 535 "},"²":{"ha":633,"x_min":43,"x_max":592,"o":"m 43 533 l 43 375 l 581 375 l 581 535 l 221 535 l 221 560 q 233 584 221 575 q 276 601 246 593 l 413 639 q 542 714 493 661 q 592 839 592 767 q 517 997 592 939 q 326 1056 443 1056 l 78 1056 l 78 896 l 326 896 q 391 879 367 896 q 415 838 415 863 q 396 799 415 814 q 331 774 376 785 l 224 747 q 90 676 136 725 q 43 533 43 628 "},"³":{"ha":626,"x_min":38,"x_max":581,"o":"m 49 535 l 49 375 l 296 375 q 442 403 378 375 q 544 480 507 431 q 581 592 581 529 q 532 718 581 667 q 399 779 483 769 l 551 896 l 551 1056 l 38 1056 l 38 896 l 319 896 l 174 788 l 174 649 l 318 649 q 383 634 360 649 q 406 594 406 619 q 383 551 406 567 q 319 535 361 535 l 49 535 "},"﻿":{"ha":0,"x_min":0,"x_max":0,"o":""}," ":{"ha":889,"x_min":0,"x_max":0,"o":""}," ":{"ha":408,"x_min":0,"x_max":0,"o":""}," ":{"ha":344,"x_min":0,"x_max":0,"o":""},"​":{"ha":0,"x_min":0,"x_max":0,"o":""},"₍":{"ha":497,"x_min":100,"x_max":442,"o":"m 432 -267 l 442 -267 l 442 -122 l 432 -122 q 347 -81 386 -122 q 285 42 308 -39 q 261 233 261 122 q 285 425 261 344 q 347 547 308 506 q 432 588 386 588 l 442 588 l 442 733 l 432 733 q 262 676 338 733 q 143 506 186 618 q 100 233 100 393 q 143 -39 100 74 q 262 -209 186 -151 q 432 -267 338 -267 "},"₎":{"ha":497,"x_min":56,"x_max":396,"o":"m 65 733 l 56 733 l 56 588 l 65 588 q 150 546 111 588 q 213 424 189 504 q 236 233 236 344 q 213 42 236 122 q 150 -81 189 -39 q 65 -122 111 -122 l 56 -122 l 56 -267 l 65 -267 q 235 -209 160 -267 q 353 -39 310 -151 q 396 233 396 74 q 353 506 396 393 q 235 676 310 619 q 65 733 160 733 "},"⁽":{"ha":497,"x_min":100,"x_max":442,"o":"m 432 192 l 442 192 l 442 336 l 432 336 q 347 378 386 336 q 285 500 308 419 q 261 692 261 581 q 285 883 261 803 q 347 1005 308 964 q 432 1046 386 1046 l 442 1046 l 442 1192 l 432 1192 q 262 1134 338 1192 q 143 964 186 1076 q 100 692 100 851 q 143 419 100 532 q 262 249 186 307 q 432 192 338 192 "},"⁾":{"ha":497,"x_min":56,"x_max":396,"o":"m 65 1192 l 56 1192 l 56 1046 l 65 1046 q 150 1004 111 1046 q 213 883 189 963 q 236 692 236 803 q 213 500 236 581 q 150 378 189 419 q 65 336 111 336 l 56 336 l 56 192 l 65 192 q 235 249 160 192 q 353 419 310 307 q 396 692 396 532 q 353 965 396 851 q 235 1135 310 1078 q 65 1192 160 1192 "},"☠":{"ha":1413,"x_min":115,"x_max":1296,"o":"m 115 1076 l 115 -104 l 1296 -104 l 1296 1076 l 115 1076 m 364 774 l 189 774 l 189 892 l 307 892 l 307 1010 l 425 1010 l 425 835 l 482 835 l 482 717 l 364 717 l 364 774 m 321 82 l 203 82 l 203 200 l 378 200 l 378 257 l 496 257 l 496 139 l 439 139 l 439 -36 l 321 -36 l 321 82 m 478 343 l 390 343 l 390 467 l 418 467 l 418 642 l 492 642 l 492 732 l 575 732 l 575 815 l 835 815 l 835 732 l 918 732 l 918 642 l 988 642 l 988 467 l 1015 467 l 1015 343 l 932 343 l 932 265 l 804 265 l 804 219 l 606 219 l 606 265 l 478 265 l 478 343 m 450 542 l 450 375 l 644 375 l 644 542 l 450 542 m 804 113 l 606 113 l 606 175 l 804 175 l 804 113 m 642 322 l 642 296 l 757 296 l 757 322 l 733 322 l 733 364 l 714 364 l 714 404 l 683 404 l 683 364 l 665 364 l 665 322 l 642 322 m 753 542 l 753 375 l 947 375 l 947 542 l 753 542 m 985 139 l 926 139 l 926 257 l 1044 257 l 1044 200 l 1221 200 l 1221 82 l 1103 82 l 1103 -36 l 985 -36 l 985 139 m 1044 717 l 926 717 l 926 835 l 985 835 l 985 1010 l 1103 1010 l 1103 892 l 1221 892 l 1221 774 l 1044 774 l 1044 717 "},"℀":{"ha":1343,"x_min":68,"x_max":1275,"o":"m 1000 972 l 263 0 l 429 0 l 1167 972 l 1000 972 m 68 635 q 122 520 68 563 q 268 478 176 478 q 360 494 319 478 q 424 536 401 510 q 442 504 426 515 q 483 493 458 493 l 592 493 l 592 614 l 544 614 q 532 626 532 614 l 532 832 q 478 951 532 908 q 328 994 424 994 q 93 835 110 994 l 246 835 q 317 878 253 878 q 369 865 353 878 q 386 824 386 851 l 386 804 l 258 797 q 117 749 165 792 q 68 635 68 707 m 215 646 q 233 680 215 665 q 283 696 251 694 l 386 704 l 386 683 q 359 617 386 639 q 289 594 332 594 q 215 646 215 594 m 764 235 q 795 103 764 161 q 885 11 826 44 q 1024 -22 944 -22 q 1149 6 1094 -22 q 1236 79 1204 33 q 1275 178 1268 125 l 1119 178 q 1089 134 1114 150 q 1028 118 1064 118 q 951 149 979 118 q 922 235 922 179 q 951 324 922 292 q 1029 356 979 356 q 1088 341 1064 356 q 1117 304 1111 326 l 1274 304 q 1199 442 1265 390 q 1031 494 1133 494 q 891 462 951 494 q 797 370 831 429 q 764 235 764 311 "},"℗":{"ha":1468,"x_min":68,"x_max":1400,"o":"m 522 813 l 522 172 l 660 172 l 660 403 l 810 403 q 969 458 910 403 q 1029 608 1029 514 q 969 758 1029 703 q 810 813 910 813 l 522 813 m 68 486 q 155 145 68 297 q 394 -94 242 -7 q 735 -181 546 -181 q 1075 -94 924 -181 q 1313 145 1226 -7 q 1400 486 1400 297 q 1313 827 1400 675 q 1075 1066 1226 979 q 735 1153 924 1153 q 394 1066 546 1153 q 155 827 242 979 q 68 486 68 675 m 214 486 q 282 758 214 636 q 469 950 350 881 q 735 1019 588 1019 q 999 950 881 1019 q 1186 758 1118 881 q 1254 486 1254 636 q 1186 214 1254 336 q 999 22 1118 92 q 735 -47 881 -47 q 469 22 588 -47 q 282 214 350 92 q 214 486 214 336 m 803 531 l 660 531 l 660 685 l 803 685 q 865 665 842 685 q 888 608 888 644 q 865 551 888 572 q 803 531 843 531 "},"℅":{"ha":1313,"x_min":69,"x_max":1244,"o":"m 936 972 l 199 0 l 365 0 l 1103 972 l 936 972 m 69 735 q 101 603 69 661 q 191 511 132 544 q 329 478 250 478 q 455 506 400 478 q 542 579 510 533 q 581 678 574 625 l 425 678 q 394 634 419 650 q 333 618 369 618 q 256 649 285 618 q 228 735 228 679 q 256 824 228 792 q 335 856 285 856 q 393 841 369 856 q 422 804 417 826 l 579 804 q 505 942 571 890 q 336 994 439 994 q 197 962 257 994 q 103 870 136 929 q 69 735 69 811 m 697 236 q 732 101 697 160 q 828 10 767 42 q 971 -22 890 -22 q 1113 10 1050 -22 q 1210 101 1175 43 q 1244 236 1244 160 q 1210 371 1244 313 q 1113 462 1175 429 q 971 494 1050 494 q 828 463 890 494 q 732 372 767 431 q 697 236 697 313 m 856 236 q 888 322 856 289 q 971 356 919 356 q 1054 322 1022 356 q 1086 236 1086 289 q 1054 151 1086 183 q 971 118 1022 118 q 888 151 919 118 q 856 236 856 183 "},"′":{"ha":482,"x_min":99,"x_max":383,"o":"m 169 985 l 99 594 l 240 594 l 383 985 l 169 985 "},"″":{"ha":774,"x_min":99,"x_max":675,"o":"m 461 985 l 390 594 l 532 594 l 675 985 l 461 985 m 169 985 l 99 594 l 240 594 l 383 985 l 169 985 "},"⌛":{"ha":889,"x_min":28,"x_max":863,"o":"m 29 14 l 29 -69 l 863 -69 l 863 14 l 807 14 l 807 168 l 772 168 l 772 251 l 703 251 l 703 335 l 633 335 l 633 418 l 582 418 l 582 557 l 633 557 l 633 640 l 703 640 l 703 724 l 772 724 l 772 807 l 807 807 l 807 958 l 861 958 l 861 1042 l 28 1042 l 28 958 l 85 958 l 85 807 l 119 807 l 119 724 l 189 724 l 189 640 l 258 640 l 258 557 l 310 557 l 310 418 l 258 418 l 258 335 l 189 335 l 189 251 l 119 251 l 119 168 l 85 168 l 85 14 l 29 14 m 731 14 l 161 14 l 161 168 l 231 168 l 231 251 l 300 251 l 300 335 l 351 335 l 351 418 l 386 418 l 386 557 l 351 557 l 351 640 l 300 640 l 300 724 l 231 724 l 231 807 l 161 807 l 161 958 l 731 958 l 731 807 l 661 807 l 661 724 l 592 724 l 592 640 l 540 640 l 540 557 l 506 557 l 506 418 l 540 418 l 540 335 l 592 335 l 592 251 l 661 251 l 661 168 l 731 168 l 731 14 m 203 126 l 203 56 l 693 56 l 693 126 l 619 126 l 619 210 l 550 210 l 550 293 l 499 293 l 499 376 l 393 376 l 393 293 l 342 293 l 342 210 l 272 210 l 272 126 l 203 126 "},"⏳":{"ha":889,"x_min":28,"x_max":863,"o":"m 28 1042 l 28 958 l 85 958 l 85 807 l 119 807 l 119 724 l 189 724 l 189 640 l 258 640 l 258 557 l 310 557 l 310 418 l 258 418 l 258 335 l 189 335 l 189 251 l 119 251 l 119 168 l 85 168 l 85 14 l 29 14 l 29 -69 l 863 -69 l 863 14 l 807 14 l 807 168 l 772 168 l 772 251 l 703 251 l 703 335 l 633 335 l 633 418 l 582 418 l 582 557 l 633 557 l 633 640 l 703 640 l 703 724 l 772 724 l 772 807 l 807 807 l 807 958 l 861 958 l 861 1042 l 28 1042 m 731 14 l 161 14 l 161 168 l 231 168 l 231 251 l 300 251 l 300 335 l 351 335 l 351 418 l 386 418 l 386 557 l 351 557 l 351 640 l 300 640 l 300 724 l 231 724 l 231 807 l 161 807 l 161 958 l 731 958 l 731 807 l 661 807 l 661 724 l 592 724 l 592 640 l 540 640 l 540 557 l 506 557 l 506 418 l 540 418 l 540 335 l 592 335 l 592 251 l 661 251 l 661 168 l 731 168 l 731 14 m 203 126 l 203 56 l 693 56 l 693 126 l 619 126 l 619 168 l 550 168 l 550 210 l 499 210 l 499 251 l 464 251 l 464 596 l 499 596 l 499 679 l 550 679 l 550 763 l 619 763 l 619 846 l 272 846 l 272 763 l 342 763 l 342 679 l 393 679 l 393 596 l 428 596 l 428 251 l 393 251 l 393 210 l 342 210 l 342 168 l 272 168 l 272 126 l 203 126 "},"₿":{"ha":913,"x_min":33,"x_max":833,"o":"m 33 176 l 33 0 l 256 0 l 256 -104 l 364 -104 l 364 0 l 475 0 l 475 -104 l 583 -104 l 583 3 q 766 95 699 18 q 833 285 833 172 q 792 426 833 367 q 682 514 750 485 q 772 603 738 547 q 806 728 806 660 q 747 888 806 824 q 583 967 688 951 l 583 1063 l 475 1063 l 475 972 l 364 972 l 364 1063 l 256 1063 l 256 972 l 33 972 l 33 796 l 154 796 l 154 176 l 33 176 m 501 176 l 354 176 l 354 424 l 501 424 q 597 392 564 424 q 631 304 631 361 q 597 210 631 244 q 501 176 563 176 m 486 593 l 354 593 l 354 796 l 486 796 q 572 769 540 796 q 603 692 603 743 q 572 619 603 644 q 486 593 542 593 "},"₺":{"ha":815,"x_min":28,"x_max":788,"o":"m 126 383 l 126 0 l 318 0 q 565 59 458 0 q 729 228 671 118 q 788 486 788 338 l 593 486 q 522 262 593 347 q 331 176 451 176 l 321 176 l 321 456 l 582 553 l 582 678 l 321 581 l 321 661 l 582 758 l 582 883 l 321 786 l 321 972 l 126 972 l 126 714 l 28 676 l 28 553 l 126 589 l 126 508 l 28 471 l 28 347 l 126 383 "},"₋":{"ha":674,"x_min":92,"x_max":582,"o":"m 92 267 l 92 131 l 582 131 l 582 267 l 92 267 "},"⁻":{"ha":674,"x_min":92,"x_max":582,"o":"m 92 725 l 92 589 l 582 589 l 582 725 l 92 725 "},"₊":{"ha":693,"x_min":92,"x_max":601,"o":"m 92 267 l 92 131 l 271 131 l 271 -51 l 408 -51 l 408 131 l 601 131 l 601 267 l 408 267 l 408 447 l 271 447 l 271 267 l 92 267 "},"⁺":{"ha":693,"x_min":92,"x_max":601,"o":"m 92 725 l 92 589 l 271 589 l 271 407 l 408 407 l 408 589 l 601 589 l 601 725 l 408 725 l 408 906 l 271 906 l 271 725 l 92 725 "},"↑":{"ha":1060,"x_min":115,"x_max":943,"o":"m 456 719 l 456 -21 l 604 -21 l 604 719 l 843 479 l 943 581 l 531 994 l 115 581 l 217 479 l 456 719 "},"↗":{"ha":1204,"x_min":115,"x_max":1088,"o":"m 1088 386 l 1088 972 l 501 972 l 501 831 l 840 831 l 115 104 l 221 0 l 946 725 l 946 386 l 1088 386 "},"→":{"ha":1240,"x_min":115,"x_max":1125,"o":"m 610 144 l 710 44 l 1125 457 l 710 872 l 610 771 l 849 532 l 115 532 l 115 383 l 850 383 l 610 144 "},"↘":{"ha":1204,"x_min":115,"x_max":1088,"o":"m 946 247 l 221 972 l 115 868 l 840 142 l 501 142 l 501 0 l 1088 0 l 1088 586 l 946 586 l 946 247 "},"↓":{"ha":1060,"x_min":117,"x_max":944,"o":"m 604 253 l 604 993 l 456 993 l 456 253 l 217 493 l 117 392 l 529 -22 l 944 392 l 843 493 l 604 253 "},"↙":{"ha":1204,"x_min":115,"x_max":1088,"o":"m 115 586 l 115 0 l 701 0 l 701 142 l 363 142 l 1088 868 l 983 972 l 258 247 l 258 586 l 115 586 "},"←":{"ha":1240,"x_min":115,"x_max":1125,"o":"m 631 771 l 531 871 l 115 458 l 531 43 l 631 144 l 392 383 l 1125 383 l 1125 532 l 390 532 l 631 771 "},"↖":{"ha":1204,"x_min":115,"x_max":1088,"o":"m 258 725 l 983 0 l 1088 104 l 363 831 l 701 831 l 701 972 l 115 972 l 115 386 l 258 386 l 258 725 "},"↔":{"ha":1576,"x_min":115,"x_max":1461,"o":"m 631 772 l 531 872 l 115 460 l 531 44 l 631 146 l 392 385 l 451 385 l 451 383 l 1186 383 l 946 144 l 1046 44 l 1461 457 l 1046 872 l 946 771 l 1185 532 l 1125 532 l 1125 533 l 390 533 l 631 772 "},"↕":{"ha":1060,"x_min":115,"x_max":943,"o":"m 115 301 l 531 -114 l 943 301 l 843 401 l 604 161 l 604 813 l 843 572 l 943 672 l 531 1088 l 115 672 l 217 572 l 456 811 l 456 163 l 217 401 l 115 301 "},"⇵":{"ha":1568,"x_min":115,"x_max":1451,"o":"m 999 719 l 999 -21 l 1147 -21 l 1147 719 l 1351 514 l 1451 615 l 1074 994 l 693 615 l 794 514 l 999 719 m 217 460 l 115 358 l 494 -21 l 875 358 l 774 460 l 569 254 l 569 994 l 421 994 l 421 254 l 217 460 "},"⇹":{"ha":1553,"x_min":115,"x_max":1438,"o":"m 115 457 l 531 44 l 631 144 l 390 383 l 703 383 l 703 76 l 851 76 l 851 383 l 1163 383 l 922 144 l 1024 44 l 1438 457 l 1024 872 l 922 771 l 1161 532 l 851 532 l 851 843 l 703 843 l 703 532 l 392 532 l 631 771 l 531 872 l 115 457 "},"↜":{"ha":1240,"x_min":115,"x_max":1125,"o":"m 115 458 l 531 44 l 631 146 l 408 360 q 556 333 479 333 q 672 349 621 333 q 789 392 724 364 q 875 425 844 415 q 940 435 906 435 q 1125 358 1040 435 l 1125 515 q 940 583 1049 583 q 856 572 894 583 q 760 536 818 561 q 656 497 701 510 q 556 483 611 483 q 379 531 461 483 l 631 772 l 531 872 l 115 458 "},"↝":{"ha":1240,"x_min":115,"x_max":1125,"o":"m 610 146 l 710 44 l 1125 458 l 710 872 l 610 772 l 861 531 q 685 483 779 483 q 584 497 629 483 q 481 536 539 510 q 384 572 422 561 q 300 583 346 583 q 115 515 192 583 l 115 358 q 300 435 200 435 q 365 425 335 435 q 451 392 396 415 q 568 349 517 364 q 685 333 619 333 q 832 360 761 333 l 610 146 "},"↭":{"ha":1564,"x_min":115,"x_max":1447,"o":"m 933 144 l 1033 44 l 1447 457 l 1033 872 l 933 771 l 1172 532 l 1036 532 l 968 467 l 782 653 l 594 465 l 528 532 l 392 532 l 631 771 l 531 872 l 115 457 l 531 44 l 631 144 l 390 383 l 476 383 l 596 263 l 782 451 l 968 263 l 1088 383 l 1174 383 l 933 144 "},"↩":{"ha":1457,"x_min":115,"x_max":1342,"o":"m 115 458 l 531 44 l 631 146 l 388 388 l 1004 388 q 1249 468 1157 388 q 1342 693 1342 549 q 1250 915 1342 836 q 1004 993 1158 993 l 867 993 l 867 846 l 1003 846 q 1133 806 1086 846 q 1181 693 1181 767 q 1133 576 1181 618 q 1003 535 1086 535 l 393 535 l 631 772 l 531 872 l 115 458 "},"↪":{"ha":1457,"x_min":115,"x_max":1342,"o":"m 826 146 l 926 44 l 1342 458 l 926 872 l 826 772 l 1064 535 l 454 535 q 324 576 371 535 q 276 693 276 618 q 324 806 276 767 q 454 846 371 846 l 590 846 l 590 993 l 453 993 q 207 915 299 993 q 115 693 115 836 q 208 468 115 549 q 453 388 300 388 l 1069 388 l 826 146 "},"↫":{"ha":1489,"x_min":115,"x_max":1374,"o":"m 115 458 l 531 44 l 631 146 l 388 388 l 819 388 l 819 94 l 967 94 l 967 388 l 1057 388 q 1288 465 1203 388 q 1374 681 1374 542 q 1297 881 1374 811 q 1093 951 1221 951 q 893 872 967 951 q 819 643 819 793 l 819 535 l 393 535 l 631 772 l 531 872 l 115 458 m 1056 535 l 967 535 l 967 643 q 1000 763 967 722 q 1093 804 1033 804 q 1181 772 1149 804 q 1214 681 1214 740 q 1172 573 1214 611 q 1056 535 1131 535 "},"↬":{"ha":1489,"x_min":115,"x_max":1374,"o":"m 858 146 l 960 44 l 1374 458 l 960 872 l 858 772 l 1096 535 l 669 535 l 669 643 q 596 872 669 793 q 397 951 522 951 q 192 881 269 951 q 115 681 115 811 q 201 465 115 542 q 433 388 288 388 l 522 388 l 522 94 l 669 94 l 669 388 l 1101 388 l 858 146 m 276 681 q 308 772 276 740 q 397 804 340 804 q 489 763 456 804 q 522 643 522 722 l 522 535 l 435 535 q 318 573 360 535 q 276 681 276 611 "},"↯":{"ha":1000,"x_min":115,"x_max":883,"o":"m 115 486 l 353 -24 l 883 225 l 824 354 l 507 206 l 717 758 l 479 758 l 585 972 l 435 972 l 257 611 l 507 611 l 378 258 l 244 546 l 115 486 "},"↰":{"ha":1308,"x_min":115,"x_max":1192,"o":"m 115 458 l 531 44 l 631 146 l 389 386 l 1044 386 l 1044 -21 l 1192 -21 l 1192 531 l 389 531 l 631 772 l 531 872 l 115 458 "},"↱":{"ha":1308,"x_min":115,"x_max":1192,"o":"m 676 146 l 778 44 l 1192 458 l 778 872 l 676 772 l 919 531 l 115 531 l 115 -21 l 264 -21 l 264 386 l 918 386 l 676 146 "},"↲":{"ha":1308,"x_min":115,"x_max":1192,"o":"m 115 458 l 531 43 l 631 144 l 389 386 l 1192 386 l 1192 993 l 1044 993 l 1044 531 l 389 531 l 631 771 l 531 871 l 115 458 "},"↳":{"ha":1308,"x_min":115,"x_max":1192,"o":"m 676 144 l 778 43 l 1192 458 l 778 871 l 676 771 l 918 531 l 264 531 l 264 993 l 115 993 l 115 386 l 919 386 l 676 144 "},"↴":{"ha":1201,"x_min":115,"x_max":1086,"o":"m 258 393 l 671 -21 l 1086 393 l 985 494 l 744 253 l 744 972 l 115 972 l 115 825 l 599 825 l 599 251 l 358 494 l 258 393 "},"⬐":{"ha":1201,"x_min":115,"x_max":1086,"o":"m 115 393 l 531 -21 l 943 393 l 843 494 l 603 251 l 603 825 l 1086 825 l 1086 972 l 457 972 l 457 253 l 217 494 l 115 393 "},"↶":{"ha":1129,"x_min":115,"x_max":1013,"o":"m 865 638 l 865 0 l 1013 0 l 1013 639 q 929 898 1013 801 q 692 994 846 994 q 452 897 538 994 q 367 639 367 800 l 367 575 l 217 732 l 115 632 l 439 310 l 760 635 l 658 735 l 515 582 l 515 638 q 561 791 515 735 q 692 847 607 847 q 820 791 775 847 q 865 638 865 735 "},"↷":{"ha":1129,"x_min":115,"x_max":1013,"o":"m 115 639 l 115 0 l 264 0 l 264 638 q 309 791 264 735 q 438 847 354 847 q 568 791 522 847 q 614 638 614 735 l 614 581 l 469 735 l 369 635 l 690 310 l 1013 632 l 913 732 l 763 575 l 763 639 q 677 897 763 800 q 438 994 592 994 q 199 898 283 994 q 115 639 115 801 "},"↺":{"ha":1504,"x_min":115,"x_max":1388,"o":"m 854 -57 q 1128 14 1006 -57 q 1319 208 1250 85 q 1388 486 1388 332 q 1319 764 1388 640 q 1128 958 1250 888 q 854 1029 1006 1029 q 586 960 706 1029 q 398 772 467 892 q 326 503 329 651 l 204 625 l 115 536 l 400 250 l 685 536 l 596 625 l 475 503 q 528 703 478 614 q 663 842 578 792 q 854 893 749 893 q 1051 840 963 893 q 1190 694 1139 788 q 1240 486 1240 601 q 1190 278 1240 371 q 1051 132 1139 185 q 854 79 963 79 q 695 110 768 79 q 568 199 622 142 l 482 113 q 647 -12 550 33 q 854 -57 743 -57 "},"↻":{"ha":1504,"x_min":115,"x_max":1388,"o":"m 649 -57 q 858 -12 761 -57 q 1022 113 954 33 l 935 199 q 809 110 882 142 q 649 79 736 79 q 452 132 540 79 q 314 278 364 185 q 264 486 264 371 q 314 694 264 601 q 452 840 364 788 q 649 893 540 893 q 840 842 754 893 q 976 702 926 792 q 1029 503 1026 613 l 908 625 l 819 536 l 1103 250 l 1388 536 l 1299 625 l 1176 501 q 1105 772 1174 651 q 917 960 1036 892 q 649 1029 797 1029 q 375 958 497 1029 q 184 764 253 888 q 115 486 115 640 q 184 208 115 332 q 375 14 253 85 q 649 -57 497 -57 "},"⇄":{"ha":1476,"x_min":115,"x_max":1361,"o":"m 115 739 l 496 361 l 596 461 l 392 665 l 1243 665 l 1243 815 l 393 815 l 596 1019 l 496 1119 l 115 739 m 233 253 l 233 103 l 1085 103 l 881 -101 l 981 -201 l 1361 178 l 981 557 l 881 457 l 1083 253 l 233 253 "},"⇅":{"ha":1568,"x_min":115,"x_max":1451,"o":"m 693 358 l 1074 -21 l 1451 358 l 1351 460 l 1147 254 l 1147 994 l 999 994 l 999 254 l 794 460 l 693 358 m 494 994 l 115 615 l 217 514 l 421 719 l 421 -21 l 569 -21 l 569 719 l 774 514 l 875 615 l 494 994 "},"⇜":{"ha":1533,"x_min":115,"x_max":1418,"o":"m 115 457 l 531 44 l 631 144 l 390 383 l 488 383 l 607 263 l 793 451 l 981 263 l 1167 451 l 1233 383 l 1418 383 l 1418 532 l 1288 532 l 1167 653 l 981 467 l 793 653 l 607 467 l 540 532 l 392 532 l 631 771 l 531 872 l 115 457 "},"⇝":{"ha":1533,"x_min":115,"x_max":1418,"o":"m 903 144 l 1003 44 l 1418 457 l 1003 872 l 903 771 l 1142 532 l 994 532 l 928 465 l 740 653 l 554 467 l 367 653 l 246 532 l 115 532 l 115 383 l 300 383 l 367 451 l 554 263 l 740 451 l 926 263 l 1046 383 l 1143 383 l 903 144 "},"●":{"ha":1468,"x_min":68,"x_max":1400,"o":"m 735 -181 q 1075 -94 924 -181 q 1313 145 1226 -7 q 1400 486 1400 297 q 1313 827 1400 675 q 1075 1066 1226 979 q 735 1153 924 1153 q 394 1066 546 1153 q 155 827 242 979 q 68 486 68 675 q 155 145 68 297 q 394 -94 242 -7 q 735 -181 546 -181 "},"○":{"ha":1468,"x_min":68,"x_max":1400,"o":"m 735 -181 q 1075 -94 924 -181 q 1313 145 1226 -7 q 1400 486 1400 297 q 1313 827 1400 675 q 1075 1066 1226 979 q 735 1153 924 1153 q 394 1066 546 1153 q 155 827 242 979 q 68 486 68 675 q 155 145 68 297 q 394 -94 242 -7 q 735 -181 546 -181 m 214 486 q 282 758 214 636 q 469 950 350 881 q 735 1019 588 1019 q 999 950 881 1019 q 1186 758 1118 881 q 1254 486 1254 636 q 1186 214 1254 336 q 999 22 1118 92 q 735 -47 881 -47 q 469 22 588 -47 q 282 214 350 92 q 214 486 214 336 "},"̣":{"ha":0,"x_min":69,"x_max":274,"o":"m 69 -71 l 69 -250 l 274 -250 l 274 -71 l 69 -71 "},"ʻ":{"ha":336,"x_min":69,"x_max":267,"o":"m 69 953 l 69 767 l 267 767 l 267 903 l 179 903 l 179 940 q 183 956 179 951 q 199 961 188 961 l 267 961 l 267 1035 l 178 1035 q 98 1015 126 1035 q 69 953 69 994 "}}}
